<?xml version="1.0" standalone="no"?>
<!DOCTYPE svg PUBLIC "-//W3C//DTD SVG 1.1//EN" "http://www.w3.org/Graphics/SVG/1.1/DTD/svg11.dtd" >
<svg xmlns="http://www.w3.org/2000/svg" xmlns:xlink="http://www.w3.org/1999/xlink" version="1.1">
<metadata></metadata>
<defs>
<font id="daxregular" horiz-adv-x="1081" >
<font-face units-per-em="2048" ascent="1608" descent="-440" />
<missing-glyph horiz-adv-x="565" />
<glyph horiz-adv-x="0" />
<glyph horiz-adv-x="682" />
<glyph unicode=" "  horiz-adv-x="565" />
<glyph unicode="&#x09;" horiz-adv-x="565" />
<glyph unicode="&#xa0;" horiz-adv-x="565" />
<glyph unicode="!" horiz-adv-x="593" d="M203 109q0 47 34.5 81.5t81.5 34.5q49 0 84 -34.5t35 -81.5q0 -49 -35 -84t-84 -35q-47 0 -81.5 35t-34.5 84zM213 1409h213l-39 -946h-135z" />
<glyph unicode="&#x22;" horiz-adv-x="786" d="M141 1384q30 43 88 43q56 0 86 -43l-41 -512h-92zM469 1384q34 43 88 43q58 0 88 -43l-41 -512h-94z" />
<glyph unicode="#" d="M57 469v94h228l57 320h-211v92h227l76 434h107l-76 -434h240l75 434h107l-76 -434h213v-92h-229l-60 -320h215v-94h-231l-80 -469h-107l82 469h-239l-86 -469h-105l84 469h-211zM389 563h240l59 320h-242z" />
<glyph unicode="$" d="M160 59l47 125q105 -67 244 -67q121 0 194.5 74t73.5 196q0 97 -58 160.5t-192 114.5q-297 114 -297 372q0 150 93.5 260.5t250.5 128.5l-18 236h114l-18 -234q157 -6 256 -73l-43 -109q-98 62 -221 62q-111 0 -174.5 -68t-63.5 -182q0 -45 13 -82.5t33 -63t53.5 -48.5 t63.5 -37.5t75 -32.5q93 -36 157 -82.5t98 -98.5t48 -103t14 -110q0 -165 -98.5 -276t-259.5 -133l18 -250h-119l19 246q-194 3 -303 75z" />
<glyph unicode="%" horiz-adv-x="1748" d="M141 950q0 72 6.5 134.5t25 128.5t48 112.5t80 76.5t117.5 30q65 0 115 -30t79.5 -76.5t48 -112.5t25 -129t6.5 -134t-6.5 -134t-25 -128.5t-48 -112t-79.5 -76.5t-115 -30q-67 0 -117.5 30t-80 76.5t-48 112.5t-25 128t-6.5 134zM264 952q0 -48 1.5 -87t6.5 -87.5 t16 -84t27.5 -67.5t42.5 -48.5t60 -16.5q40 0 69 26t44.5 63.5t24.5 94.5t11 102.5t2 104.5q5 400 -151 400q-40 0 -70 -26.5t-45.5 -65t-24.5 -96.5t-11.5 -105t-2.5 -107zM586 12l479 1411l94 -26l-479 -1413zM1057 461q0 72 6 134t24.5 127.5t48 112t79.5 76t116 29.5 t116.5 -29.5t80 -76t48.5 -112t25.5 -128t6.5 -133.5q0 -72 -6.5 -135t-25.5 -129t-48.5 -113t-80 -77t-116.5 -30q-82 0 -139 43.5t-85 118t-39.5 153t-10.5 169.5zM1180 463q0 -59 2 -104.5t11 -102.5t24.5 -94.5t44.5 -63.5t69 -26t70 26t45.5 63.5t24.5 94t11.5 102.5 t2.5 105q5 397 -154 397q-156 0 -151 -397z" />
<glyph unicode="&#x26;" horiz-adv-x="1267" d="M109 383q0 151 98 258t268 158v4q-132 36 -204 115.5t-72 193.5q0 139 104.5 228.5t278.5 89.5q84 0 161.5 -21t126.5 -53l-51 -105q-97 56 -203 56q-119 0 -178 -54.5t-59 -150.5q0 -103 77 -164t191 -61q233 0 535 159l51 -114q-111 -55 -227 -82v-781 q-121 -79 -377 -79q-238 0 -379 107.5t-141 295.5zM303 393q0 -139 85.5 -217t248.5 -78q129 0 192 31v672q-285 -67 -405.5 -155t-120.5 -253z" />
<glyph unicode="'" horiz-adv-x="458" d="M141 1384q30 43 88 43t88 -43l-43 -512h-92z" />
<glyph unicode="(" horiz-adv-x="743" d="M139 586q0 260 107.5 510.5t339.5 535.5l88 -53q-340 -476 -340 -993t340 -996l-88 -53q-232 285 -339.5 536.5t-107.5 512.5z" />
<glyph unicode=")" horiz-adv-x="743" d="M70 -410q340 479 340 996t-340 993l88 53q232 -285 339 -535t107 -511t-107 -513t-339 -536z" />
<glyph unicode="*" horiz-adv-x="864" d="M106 1380q0 36 26 62t61 26t60.5 -25.5t25.5 -62.5q0 -35 -25.5 -60.5t-60.5 -25.5t-61 25.5t-26 60.5zM186 1104q0 37 25.5 62.5t60.5 25.5t60.5 -25.5t25.5 -62.5q0 -35 -25.5 -60.5t-60.5 -25.5t-60.5 25.5t-25.5 60.5zM346 1552q0 37 25.5 62.5t60.5 25.5t60.5 -25.5 t25.5 -62.5q0 -35 -25.5 -60.5t-60.5 -25.5t-60.5 25.5t-25.5 60.5zM358 1303q0 32 21.5 53.5t52.5 21.5t52.5 -21.5t21.5 -53.5q0 -31 -21.5 -52.5t-52.5 -21.5t-52.5 21.5t-21.5 52.5zM504 1104q0 36 25 61t61 25q35 0 60.5 -25.5t25.5 -60.5q0 -36 -25 -61t-61 -25 t-61 25t-25 61zM586 1380q0 36 25 61t61 25t61 -25t25 -61q0 -37 -25.5 -62.5t-60.5 -23.5q-36 0 -61 25t-25 61z" />
<glyph unicode="+" d="M147 623v122h330v359h125v-359h332v-122h-332v-359h-125v359h-330z" />
<glyph unicode="," horiz-adv-x="536" d="M25 -346l174 506q44 51 120 51q70 0 78 -51l-266 -506h-106z" />
<glyph unicode="-" horiz-adv-x="704" d="M121 618v144h463v-144h-463z" />
<glyph unicode="." horiz-adv-x="512" d="M137 111q0 49 34.5 82.5t84.5 33.5t83.5 -33.5t33.5 -82.5q0 -50 -34 -84.5t-83 -34.5q-50 0 -84.5 35t-34.5 84z" />
<glyph unicode="/" horiz-adv-x="1153" d="M33 -408l971 2038l116 -57l-970 -2038z" />
<glyph unicode="0" d="M113 705q0 102 11 197t41 193.5t76.5 170.5t123.5 118t176 46t176 -46t123.5 -118t76.5 -170.5t41 -193.5t11 -197t-11 -197t-41 -193.5t-76.5 -170.5t-123.5 -118t-176 -46t-176 46t-123.5 118t-76.5 170.5t-41 193.5t-11 197zM287 707q0 -605 254 -605t254 605 q0 612 -254 612q-63 0 -111 -40.5t-74.5 -101.5t-42.5 -147.5t-21 -161.5t-5 -161z" />
<glyph unicode="1" d="M174 1192q173 23 282.5 82.5t157.5 134.5h125v-1409h-184v1184q-57 -36 -161.5 -64.5t-198.5 -36.5z" />
<glyph unicode="2" d="M82 0l498 707q78 111 105.5 186t27.5 147q0 254 -291 254q-140 0 -252 -57l-47 117q145 76 354 76q195 0 311.5 -104t116.5 -269q0 -162 -178 -400l-377 -507h572v-150h-840z" />
<glyph unicode="3" d="M92 53l51 123q102 -61 275 -61q141 0 225 78t84 215q0 64 -19 115t-52.5 83t-73.5 54t-87.5 32t-88 13.5t-82.5 1.5v102q161 12 258.5 87.5t97.5 193.5q0 108 -68 158t-174 50q-77 0 -148.5 -15.5t-115.5 -39.5l-47 113q132 74 338 74q110 0 199 -36.5t143.5 -110.5 t54.5 -173q0 -55 -19.5 -104t-47.5 -82.5t-66 -62t-68.5 -44t-60.5 -26.5v-5q48 -13 89.5 -31t86 -49.5t75.5 -71t51 -98t20 -128.5q0 -192 -133.5 -310t-337.5 -118q-229 0 -359 73z" />
<glyph unicode="4" d="M113 322v116l569 971h172v-981h115v-106h-115v-322h-166v322h-575zM238 428h450v592l4 205h-4q-41 -88 -104 -197z" />
<glyph unicode="5" d="M113 53l47 123q116 -63 278 -63q76 0 144 31.5t115.5 100t47.5 161.5q0 67 -18 121t-59 99t-106.5 68.5t-160 30t-219.5 -15.5l60 700h657v-149h-528l-33 -433q293 32 446.5 -85.5t153.5 -333.5q0 -116 -59.5 -213.5t-168.5 -156t-245 -58.5q-222 0 -352 73z" />
<glyph unicode="6" d="M119 512q0 130 28.5 247t75 202.5t109 159.5t125.5 123t131 87.5t119.5 58.5t95.5 31l47 -121q-390 -128 -522 -495q92 37 194 37q94 0 174 -26t142 -77.5t97.5 -135.5t35.5 -191q0 -86 -27 -162.5t-78 -137.5t-133 -96.5t-184 -35.5q-211 0 -320.5 142.5t-109.5 389.5z M287 508q0 -188 66 -297t200 -109q64 0 112.5 27t77 72.5t42.5 101t14 117.5q0 321 -307 321q-108 0 -187 -36q-18 -93 -18 -197z" />
<glyph unicode="7" d="M131 1260v149h873l-189 -440q-114 -267 -215.5 -544t-140.5 -425h-226l551 1260h-653z" />
<glyph unicode="8" d="M113 332q0 122 70 213.5t239 189.5q-144 84 -204 166t-60 193q0 147 111 241.5t272 94.5q160 0 271.5 -94t111.5 -240q0 -109 -60.5 -190.5t-204.5 -164.5q168 -99 239 -193.5t71 -213.5q0 -156 -121 -255t-307 -99q-85 0 -162 23.5t-136.5 67t-94.5 111t-35 150.5z M274 338q0 -107 77.5 -173.5t187.5 -66.5q114 0 188 66.5t74 169.5t-53 176t-211 164q-156 -90 -209.5 -162t-53.5 -174zM313 1098q0 -93 49 -154t183 -141q132 74 180.5 137.5t48.5 155.5q0 98 -64.5 161.5t-166.5 63.5t-166 -63t-64 -160z" />
<glyph unicode="9" d="M111 987q0 86 27.5 163.5t79 138.5t133.5 96.5t184 35.5q211 0 319.5 -142.5t108.5 -389.5q0 -130 -28.5 -247t-75 -202.5t-109 -159.5t-125.5 -123t-131 -87.5t-119.5 -58.5t-95.5 -31l-48 118q393 133 523 498q-92 -37 -195 -37q-94 0 -174 26t-142 77.5t-97 134.5 t-35 190zM281 985q0 -158 77 -239.5t230 -81.5q105 0 188 36q17 89 17 197q0 188 -66 298t-199 110q-85 0 -142.5 -48t-81 -117.5t-23.5 -154.5z" />
<glyph unicode=":" horiz-adv-x="512" d="M137 111q0 49 34.5 82.5t84.5 33.5t83.5 -33.5t33.5 -82.5q0 -50 -34 -84.5t-83 -34.5q-50 0 -84.5 35t-34.5 84zM137 739q0 49 34.5 84t84.5 35q49 0 83 -34.5t34 -84.5q0 -49 -33.5 -82.5t-83.5 -33.5t-84.5 33.5t-34.5 82.5z" />
<glyph unicode=";" horiz-adv-x="536" d="M25 -346l174 506q48 55 118 55q36 0 56.5 -15.5t23.5 -39.5l-266 -506h-106zM162 739q0 49 34.5 84t82.5 35q49 0 83.5 -34.5t34.5 -84.5q0 -49 -34 -82.5t-84 -33.5q-48 0 -82.5 33.5t-34.5 82.5z" />
<glyph unicode="&#x3c;" d="M147 631v119l787 346v-135l-639 -271l639 -270v-133z" />
<glyph unicode="=" d="M147 440v123h787v-123h-787zM147 803v123h787v-123h-787z" />
<glyph unicode="&#x3e;" d="M147 287v133l639 270l-639 271v135l787 -346v-119z" />
<glyph unicode="?" horiz-adv-x="806" d="M86 1350q124 75 295 75q183 0 290 -89.5t107 -241.5q0 -65 -29.5 -124t-76 -99.5t-95 -68t-94.5 -40.5l-22 -299h-135l-29 354q41 9 79.5 23.5t78 38t69 52.5t48 68.5t18.5 83.5q0 96 -60.5 154.5t-179.5 58.5q-118 0 -213 -53zM276 109q0 49 34.5 83.5t82.5 34.5 q50 0 84.5 -34.5t34.5 -83.5t-35 -84t-84 -35q-48 0 -82.5 35t-34.5 84z" />
<glyph unicode="@" horiz-adv-x="1781" d="M135 455q0 154 46 301.5t131 268.5t197 213t253 143t291 51q264 0 428 -157.5t164 -428.5q0 -81 -18 -175t-56 -189.5t-90 -173t-127 -126.5t-160 -49q-70 0 -105.5 43.5t-39.5 145.5q-115 -187 -318 -187q-80 0 -136 46t-81 116.5t-25 157.5q0 84 28.5 179.5t78.5 181 t130 142t173 56.5q91 0 150 -53t88 -140l30 158h103l-70 -324q-1 -6 -8.5 -37t-9.5 -40.5t-8 -37.5t-8.5 -40.5t-6.5 -37t-5.5 -40t-3 -35.5t-1.5 -37q0 -76 19 -105.5t65 -29.5q81 0 159 107t122.5 253t44.5 271q0 236 -141.5 376t-370.5 140q-174 0 -329 -77t-262.5 -203 t-170 -291t-62.5 -338q0 -158 49 -283.5t138 -207t212.5 -124.5t272.5 -43q222 0 375.5 73t298.5 228l45 -53q-145 -163 -313 -241t-406 -78q-229 0 -399 83.5t-265.5 250t-95.5 397.5zM602 459q0 -101 46 -170.5t134 -69.5q74 0 136 49.5t98.5 124t57 151.5t22.5 142 q3 116 -52.5 181t-132.5 65q-75 0 -136.5 -50.5t-97.5 -126t-55.5 -153.5t-19.5 -143z" />
<glyph unicode="A" horiz-adv-x="1198" d="M39 0l477 1409h168l475 -1409h-194l-134 422h-483l-137 -422h-172zM381 535h420l-164 534q-16 49 -26 91.5t-13 60.5l-2 18h-4q-8 -59 -43 -170z" />
<glyph unicode="B" horiz-adv-x="1150" d="M158 57v1295q61 35 157.5 56.5t208.5 21.5q226 0 350.5 -97.5t124.5 -255.5q0 -72 -24.5 -131.5t-65.5 -98.5t-87.5 -63t-96.5 -34v-5q52 -10 107 -38t105.5 -72t83 -111t32.5 -143q0 -103 -38.5 -181.5t-108 -125.5t-160.5 -70.5t-203 -23.5q-244 0 -385 77zM336 133 q76 -33 199 -33q149 0 238 67t89 212q0 165 -102 240t-330 75h-94v-561zM336 788h92q212 0 300.5 66.5t88.5 208.5q0 258 -295 258q-98 0 -186 -31v-502z" />
<glyph unicode="C" horiz-adv-x="978" d="M111 705q0 199 60 361.5t182 263t286 100.5q168 0 274 -78l-45 -111q-88 55 -196 55q-97 0 -170 -49.5t-114.5 -135t-61 -187t-19.5 -219.5q0 -94 12.5 -178t41 -159t70 -129.5t103 -86t136.5 -31.5q108 0 196 55l49 -119q-100 -77 -276 -77q-164 0 -285.5 99t-182 261.5 t-60.5 364.5z" />
<glyph unicode="D" horiz-adv-x="1218" d="M158 55v1297q142 78 364 78q286 0 436 -188.5t150 -522.5q0 -132 -21.5 -243.5t-67 -204t-113 -156.5t-163 -99.5t-213.5 -35.5t-216 20.5t-156 54.5zM344 139q67 -26 176 -26q208 0 300.5 151t92.5 457q0 588 -395 588q-103 0 -174 -29v-1141z" />
<glyph unicode="E" horiz-adv-x="905" d="M158 0v1409h653v-127h-465v-491h418v-125h-418v-539h465v-127h-653z" />
<glyph unicode="F" horiz-adv-x="888" d="M158 0v1409h651v-127h-463v-491h416v-125h-416v-666h-188z" />
<glyph unicode="G" horiz-adv-x="1204" d="M111 715q0 171 47 308.5t128 225.5t187.5 134.5t228.5 46.5q213 0 330 -74l-55 -117q-92 57 -254 57q-200 0 -309 -148.5t-109 -449.5q0 -278 111 -432.5t284 -154.5q119 0 177 32v529h-240v119h422v-734q-69 -39 -150 -58t-207 -19q-125 0 -231 45.5t-187 134.5 t-127 231t-46 324z" />
<glyph unicode="H" horiz-adv-x="1222" d="M158 0v1409h188v-618h531v618h188v-1409h-188v666h-531v-666h-188z" />
<glyph unicode="I" horiz-adv-x="518" d="M164 0v1409h188v-1409h-188z" />
<glyph unicode="J" horiz-adv-x="518" d="M-90 -317q110 30 182 124t72 240v1362h188v-1352q0 -111 -35.5 -203t-97.5 -154t-140.5 -100t-168.5 -51v134z" />
<glyph unicode="K" horiz-adv-x="1062" d="M164 0v1409h186v-653h4l453 653h197l-482 -655l504 -754h-213l-459 729h-4v-729h-186z" />
<glyph unicode="L" horiz-adv-x="841" d="M164 0v1409h188v-1282h424v-127h-612z" />
<glyph unicode="M" horiz-adv-x="1601" d="M109 0l167 1409h199l283 -1018q12 -42 21 -82t13 -59l3 -19h4q10 66 37 158l290 1020h199l168 -1409h-178l-109 1055l-10 166h-4q-14 -78 -39 -166q-291 -1030 -299 -1055h-125l-295 1057l-39 164h-4q-2 -80 -10 -164q-109 -1037 -111 -1057h-161z" />
<glyph unicode="N" horiz-adv-x="1325" d="M158 0v1409h198l576 -989q23 -38 43 -75.5t29 -56.5l8 -18h4q-6 68 -6 156v983h157v-1409h-163l-601 1028q-23 39 -45.5 81.5t-33.5 65.5l-11 23h-4q6 -86 6 -174v-1024h-157z" />
<glyph unicode="O" horiz-adv-x="1239" d="M111 705q0 154 29 282t88 229t159.5 157.5t233.5 56.5t232.5 -56.5t158.5 -157.5t87.5 -229t28.5 -282q0 -156 -28.5 -284t-87.5 -228.5t-158.5 -156.5t-232.5 -56q-134 0 -234 56t-159.5 156.5t-88 228.5t-28.5 284zM301 711q0 -592 320 -592q317 0 317 592q0 92 -8 172 t-30 159.5t-56.5 136t-91.5 91.5t-131 35q-75 0 -132.5 -35t-92 -91.5t-57 -136t-30.5 -159.5t-8 -172z" />
<glyph unicode="P" horiz-adv-x="1075" d="M158 0v1352q135 78 352 78q240 0 360.5 -115.5t120.5 -310.5q0 -77 -20.5 -144.5t-66 -124.5t-112.5 -95q-67 -40 -166 -56q-57 -10 -122 -9q-47 0 -98 5l-64 6v-586h-184zM342 700l61 -6q42 -4 80 -4q151 0 229 68q97 84 97 248q0 156 -74 233.5t-233 77.5 q-95 0 -160 -27v-590z" />
<glyph unicode="Q" horiz-adv-x="1239" d="M111 707q0 123 17.5 229t56.5 198t97.5 157t145 102t193.5 37t193 -37t144 -102t97 -157t56 -198t17 -229q0 -484 -268 -664l244 -307l-141 -125l-213 391q-65 -16 -129 -16q-134 0 -234 56t-159 156t-88 227.5t-29 281.5zM301 715q0 -77 5 -143t17.5 -136t36.5 -124 t58 -98t86 -67.5t117 -23.5q319 0 319 592q0 590 -319 590q-320 0 -320 -590z" />
<glyph unicode="R" horiz-adv-x="1110" d="M162 0v1354q137 76 350 76q236 0 359.5 -109.5t123.5 -308.5q0 -178 -116 -281t-312 -106v-4l461 -621h-213l-463 657h-4v-657h-186zM348 698q40 -12 121 -12q170 0 255 82t85 236q0 162 -73 238.5t-228 76.5q-103 0 -160 -31v-590z" />
<glyph unicode="S" horiz-adv-x="952" d="M88 57l49 131q104 -65 246 -65q121 0 192.5 72t71.5 192q0 93 -56.5 155t-189.5 115q-299 119 -299 377q0 165 109.5 280.5t288.5 115.5q180 0 288 -76l-45 -119q-103 65 -223 65q-111 0 -172 -66.5t-61 -180.5q0 -99 60.5 -156t174.5 -102q80 -31 140 -71.5t93.5 -79.5 t54 -85t26.5 -83t6 -79q0 -184 -119.5 -300.5t-306.5 -116.5q-207 0 -328 77z" />
<glyph unicode="T" horiz-adv-x="872" d="M61 1282v127h750v-127h-281v-1282h-188v1282h-281z" />
<glyph unicode="U" horiz-adv-x="1193" d="M158 401v1008h188v-1006q0 -128 75.5 -203t184.5 -75q108 0 183 75t75 203v1006h172v-1008q0 -184 -120.5 -304t-319.5 -120q-198 0 -318 120.5t-120 303.5z" />
<glyph unicode="V" horiz-adv-x="1083" d="M49 1409h201l260 -991q10 -39 20.5 -85.5t15.5 -72.5l5 -27h4q20 97 43 185l264 991h178l-409 -1409h-164z" />
<glyph unicode="W" horiz-adv-x="1673" d="M74 1409h194l203 -1018l25 -162h4q10 80 30 162l244 1018h144l241 -1018q8 -34 15.5 -74.5t10.5 -64.5l3 -23h4q9 86 25 162l213 1018h174l-330 -1409h-166l-238 983q-9 37 -16.5 76.5t-10.5 60.5l-3 21h-4q-7 -72 -27 -158l-240 -983h-166z" />
<glyph unicode="X" horiz-adv-x="1062" d="M49 0l383 725l-342 684h205l237 -532h5l268 532h176l-350 -661l385 -748h-213l-275 584h-4l-284 -584h-191z" />
<glyph unicode="Y" horiz-adv-x="1024" d="M35 1409h203l280 -637h4l291 637h180l-387 -784v-625h-188v625z" />
<glyph unicode="Z" horiz-adv-x="886" d="M49 0l518 1282h-485v127h723l-512 -1282h526v-127h-770z" />
<glyph unicode="[" horiz-adv-x="702" d="M160 -440v2048h440v-107h-278v-1833h280v-108h-442z" />
<glyph unicode="\" horiz-adv-x="1163" d="M33 1571l121 61l976 -2038l-120 -59z" />
<glyph unicode="]" horiz-adv-x="702" d="M100 -332h279v1833h-279v107h443v-2048h-443v108z" />
<glyph unicode="^" horiz-adv-x="1183" d="M195 981l301 393q39 51 96 51t96 -51l301 -393l-65 -68l-332 377l-332 -377z" />
<glyph unicode="_" d="M-20 -287h1122v-116h-1122v116z" />
<glyph unicode="`" horiz-adv-x="401" d="M-16 1503q12 36 74 36t118 -34l143 -280h-102z" />
<glyph unicode="a" horiz-adv-x="1021" d="M90 305q0 72 21.5 130t63 100t95 73.5t126 53t146.5 35t165 22.5v67q0 120 -64.5 170t-179.5 50q-128 0 -266 -70l-43 106q148 82 338 82q64 0 119 -11t105 -37.5t85 -66.5t55.5 -102t20.5 -141v-709q-138 -77 -367 -77q-210 0 -315 85t-105 240zM262 309 q0 -225 262 -225q116 0 183 37v506q-114 -14 -189 -33.5t-136.5 -54.5t-90.5 -91.5t-29 -138.5z" />
<glyph unicode="b" horiz-adv-x="1079" d="M145 57v1551h179v-541q97 51 225 51q192 0 310 -149t118 -398q0 -271 -130.5 -431t-371.5 -160q-212 0 -330 77zM324 123q55 -27 155 -27q83 0 145 33.5t99.5 96.5t55.5 147.5t18 191.5q0 94 -17 172.5t-51 141t-91.5 98t-133.5 35.5q-104 0 -180 -43v-846z" />
<glyph unicode="c" horiz-adv-x="841" d="M102 553q0 266 117.5 418.5t306.5 152.5q162 0 244 -73l-43 -105q-70 53 -164 53q-144 0 -211 -117.5t-67 -322.5q0 -203 71 -324.5t201 -121.5q93 0 168 53l45 -113q-80 -73 -248 -73q-185 0 -302.5 155.5t-117.5 417.5z" />
<glyph unicode="d" horiz-adv-x="1079" d="M102 535q0 271 131.5 425t348.5 154q86 0 174 -24v518h178v-1551q-127 -77 -346 -77q-232 0 -359 150t-127 405zM281 549q0 -207 77 -329t238 -122q113 0 160 31v860q-79 21 -138 21q-75 0 -133.5 -25t-96 -67.5t-62.5 -102.5t-35 -125.5t-10 -140.5z" />
<glyph unicode="e" horiz-adv-x="1069" d="M102 555q0 274 122 421.5t323 147.5q203 0 313 -134q107 -131 107 -392v-14l-695 -101q30 -372 336 -372q164 0 273 63l47 -119q-124 -75 -334 -75q-226 0 -359 145t-133 430zM266 580l529 79q0 349 -254 349q-127 0 -203 -106q-73 -102 -72 -306v-16z" />
<glyph unicode="f" horiz-adv-x="634" d="M80 991v113h127v156q0 166 97 260q91 88 252 88h24v-115q-193 -11 -193 -213v-176h193v-113h-193v-991h-180v991h-127z" />
<glyph unicode="g" horiz-adv-x="1077" d="M102 532q0 270 129.5 431t372.5 161q210 0 328 -77v-1070q0 -208 -112.5 -324t-311.5 -116q-217 0 -342 76l55 121q115 -66 256 -66q145 0 213 78t68 211v78q-79 -47 -221 -47q-199 0 -317 146.5t-118 397.5zM281 539q0 -445 303 -445q102 0 174 45v846q-55 31 -158 31 q-162 0 -240.5 -125.5t-78.5 -351.5z" />
<glyph unicode="h" horiz-adv-x="1091" d="M145 0v1608h181v-561q131 67 254 67q101 0 175 -28.5t114 -77t58.5 -103t18.5 -117.5v-788h-180v782q0 217 -225 217q-124 0 -215 -55v-944h-181z" />
<glyph unicode="i" horiz-adv-x="493" d="M141 1415q0 41 31.5 71t75.5 30q43 0 73.5 -30t30.5 -71q0 -40 -30.5 -69t-73.5 -29q-44 0 -75.5 29t-31.5 69zM158 0v1104h180v-1104h-180z" />
<glyph unicode="j" horiz-adv-x="499" d="M-41 -336q203 75 203 387v1053h180v-1041q0 -115 -32 -211t-86 -159t-122 -101t-143 -47v119zM145 1415q0 41 31.5 71t75.5 30t75 -30t31 -71t-31 -69.5t-75 -28.5q-43 0 -75 29t-32 69z" />
<glyph unicode="k" horiz-adv-x="974" d="M156 0v1608h176v-1016h4l393 512h189l-418 -516l463 -588h-205l-422 569h-4v-569h-176z" />
<glyph unicode="l" horiz-adv-x="497" d="M158 0v1608h180v-1608h-180z" />
<glyph unicode="m" horiz-adv-x="1712" d="M145 0v1047q157 77 383 77q231 0 338 -133q126 133 342 133q76 0 138 -19t102.5 -51t68 -74.5t39 -87.5t11.5 -93v-799h-181v795q0 93 -50 152t-162 59q-136 0 -228 -99v-907h-180v803q0 95 -62.5 150t-179.5 55q-111 0 -198 -37v-971h-181z" />
<glyph unicode="n" horiz-adv-x="1091" d="M145 0v1047q161 77 404 77q110 0 190.5 -28t124 -77t63 -103.5t19.5 -118.5v-797h-180v793q0 42 -10 77t-34.5 68t-72 51.5t-114.5 18.5q-120 0 -209 -39v-969h-181z" />
<glyph unicode="o" horiz-adv-x="1067" d="M102 551q0 169 44.5 295.5t143 202t242.5 75.5q111 0 195 -42.5t135.5 -120.5t77 -181t25.5 -229q0 -124 -25.5 -226.5t-77 -180.5t-135 -121t-192.5 -43q-110 0 -194 43t-135.5 121t-77.5 180.5t-26 226.5zM283 551q0 -447 252 -447q61 0 106.5 26t72.5 67t43 102 t21.5 120t5.5 132t-5.5 133.5t-21.5 123t-43 105.5t-72.5 70t-106.5 27q-252 0 -252 -459z" />
<glyph unicode="p" horiz-adv-x="1079" d="M145 -440v1487q133 77 344 77q231 0 359.5 -149.5t128.5 -405.5q0 -273 -130.5 -429t-350.5 -156q-96 0 -172 26v-450h-179zM324 119q62 -25 135 -25q165 0 251.5 122t86.5 345q0 222 -74 338.5t-242 116.5q-83 0 -157 -31v-866z" />
<glyph unicode="q" horiz-adv-x="1079" d="M102 530q0 130 31 237.5t91.5 187.5t157.5 124.5t222 44.5q212 0 330 -77v-1487h-176v475q-87 -51 -223 -51q-198 0 -315.5 147.5t-117.5 398.5zM281 539q0 -445 301 -445q99 0 176 45v846q-55 31 -158 31q-161 0 -240 -125.5t-79 -351.5z" />
<glyph unicode="r" horiz-adv-x="659" d="M145 0v1044q89 46 190 64q83 15 223 15q30 0 63 -1l-43 -137q-53 16 -107 16q-15 1 -31 -1q-70 -6 -114 -35v-965h-181z" />
<glyph unicode="s" horiz-adv-x="827" d="M78 59l49 119q32 -27 89 -46t126 -19q91 0 148 54.5t57 135.5q0 83 -43 129t-139 82q-78 29 -131 65t-80 77t-37.5 80.5t-10.5 86.5q0 127 91.5 215t238.5 88q148 0 258 -75l-47 -109q-82 62 -184 62q-87 0 -135.5 -50.5t-48.5 -124.5t47 -118.5t137 -79.5 q150 -57 209 -137.5t59 -186.5q0 -131 -104 -227t-267 -96q-88 0 -162.5 20.5t-119.5 54.5z" />
<glyph unicode="t" horiz-adv-x="657" d="M80 991v113h127v254l180 55v-309h193v-113h-193v-719q0 -71 34 -115t105 -44q18 0 54 8v-115q-53 -16 -99 -16q-72 0 -127 24t-86 65t-46 88.5t-15 100.5v723h-127z" />
<glyph unicode="u" horiz-adv-x="1071" d="M145 338v766h181v-772q0 -102 56 -165t165 -63q122 0 198 46v954h181v-1038q-155 -89 -389 -89q-201 0 -296.5 94.5t-95.5 266.5z" />
<glyph unicode="v" horiz-adv-x="999" d="M59 1104h193l231 -791q10 -33 17.5 -66.5t9.5 -50.5l2 -18h4q4 59 27 135l235 791h168l-358 -1104h-162z" />
<glyph unicode="w" horiz-adv-x="1579" d="M72 1104h184l193 -793q8 -34 13.5 -66.5t7.5 -48.5l1 -16h4q7 55 27 131l223 793h156l217 -793q7 -28 13 -61t9 -52l2 -18h4q7 67 23 133l201 791h163l-315 -1104h-156l-223 788q-8 30 -13.5 62.5t-7.5 49.5l-1 18h-2q-7 -62 -27 -130l-227 -788h-156z" />
<glyph unicode="x" horiz-adv-x="966" d="M49 0l342 571l-305 533h188l215 -404h5l219 404h170l-308 -518l343 -586h-199l-238 449h-4l-241 -449h-187z" />
<glyph unicode="y" horiz-adv-x="999" d="M59 1104h193l227 -793q10 -34 17 -69t8 -54l2 -18h4q6 65 29 141l239 793h168l-508 -1544h-194l184 440z" />
<glyph unicode="z" horiz-adv-x="854" d="M61 0l465 991h-430v113h660l-455 -991h471v-113h-711z" />
<glyph unicode="{" horiz-adv-x="757" d="M106 625v100q84 5 121 61.5t37 190.5v319q0 158 102.5 235t278.5 77v-99q-110 0 -165.5 -50.5t-55.5 -158.5v-376q0 -210 -170 -248v-4q170 -41 170 -250v-377q0 -108 55.5 -158.5t165.5 -50.5v-100q-177 0 -279 76t-102 237v320q0 137 -37 194t-121 62z" />
<glyph unicode="|" horiz-adv-x="466" d="M160 -440v2048h147v-2048h-147z" />
<glyph unicode="}" horiz-adv-x="757" d="M113 -164q223 0 223 209v377q0 210 168 250v4q-168 37 -168 248v376q0 209 -223 209v99q176 0 278.5 -77t102.5 -235v-319q0 -134 37 -190.5t120 -61.5v-100q-84 -5 -120.5 -62t-36.5 -194v-320q0 -161 -102 -237t-279 -76v100z" />
<glyph unicode="~" horiz-adv-x="1183" d="M172 653q32 74 77 117t126 51q48 5 93.5 -8.5t81.5 -35t70.5 -43.5t75.5 -34.5t82 -7.5q114 15 164 137l70 -106q-47 -142 -211 -164q-43 -6 -86 6t-79.5 34t-72.5 43.5t-79 35t-85 8.5q-109 -14 -163 -137z" />
<glyph unicode="&#xa1;" horiz-adv-x="593" d="M203 860q0 49 34.5 84t81.5 35q49 0 84 -34.5t35 -84.5q0 -49 -34.5 -83t-84.5 -34q-48 0 -82 34t-34 83zM213 -440l39 946h135l39 -946h-213z" />
<glyph unicode="&#xa2;" d="M180 705q0 206 95.5 334.5t256.5 152.5l-18 215h123l-14 -211q143 -5 215 -61l-39 -95q-67 43 -164 43q-143 0 -212 -100t-69 -272q0 -175 72 -276t205 -101q95 0 166 43l41 -103q-75 -56 -220 -61l17 -211h-125l18 217q-163 22 -255.5 147.5t-92.5 338.5z" />
<glyph unicode="&#xa3;" d="M119 676v106h168q-47 154 -47 277q0 158 113 264.5t302 106.5q97 0 176.5 -21.5t122.5 -50.5l-47 -115q-99 55 -223 55q-138 0 -203 -78.5t-65 -209.5q0 -105 35 -228h278v-106h-258q18 -81 18 -187q0 -90 -36.5 -193t-67.5 -146h592v-150h-836q92 110 146.5 235.5 t54.5 249.5q0 80 -27 191h-196z" />
<glyph unicode="&#xa4;" d="M92 322l148 147q-78 100 -78 229q0 130 78 230l-148 147l72 72l147 -148q100 78 230 78q129 0 229 -78l148 148l71 -72l-147 -147q78 -100 78 -230q0 -129 -78 -229l147 -147l-71 -72l-148 147q-100 -78 -229 -78q-130 0 -230 78l-147 -147zM279 698q0 -109 76.5 -186.5 t185.5 -77.5t185.5 77.5t76.5 186.5t-76.5 186t-185.5 77t-185.5 -77t-76.5 -186z" />
<glyph unicode="&#xa5;" d="M70 1409h190l285 -653h4l295 653h168l-248 -508l221 14v-92l-250 19l-102 -207l352 14v-94l-356 20v-575h-174v575l-361 -20v94l357 -14l-103 207l-254 -19v92l225 -14z" />
<glyph unicode="&#xa6;" horiz-adv-x="466" d="M160 369h147v-809h-147v809zM160 799v809h147v-809h-147z" />
<glyph unicode="&#xa7;" d="M156 553q0 198 239 350q-66 63 -93.5 122t-27.5 132q0 110 86 188t220 78q157 0 254 -69l-46 -101q-83 56 -184 56q-77 0 -124.5 -40.5t-47.5 -113.5q0 -57 28.5 -107t110.5 -118l166 -142q107 -92 149 -168t42 -176q0 -196 -244 -342q83 -73 113 -137.5t30 -134.5 q0 -123 -93.5 -205t-239.5 -82q-165 0 -271 74l49 113q32 -25 84.5 -44.5t108.5 -19.5q80 0 137 43.5t57 116.5q0 56 -21.5 99t-92.5 104l-211 178q-101 86 -139.5 165t-38.5 181zM297 578q0 -81 32 -140t105 -123l166 -141q82 51 129 110t47 138q0 80 -26 136.5t-101 121.5 l-178 151q-174 -104 -174 -253z" />
<glyph unicode="&#xa8;" horiz-adv-x="401" d="M-61 1350q0 37 27 62.5t65 25.5t66 -25.5t28 -62.5q0 -36 -27.5 -61t-66.5 -25q-38 0 -65 25.5t-27 60.5zM276 1350q0 37 27.5 62.5t65.5 25.5t65 -25.5t27 -62.5t-27 -61.5t-65 -24.5t-65.5 25.5t-27.5 60.5z" />
<glyph unicode="&#xa9;" horiz-adv-x="1689" d="M121 702q0 197 97 364t263.5 264t362.5 97t363 -97t264.5 -264t97.5 -364q0 -196 -97.5 -362.5t-264.5 -263t-363 -96.5t-362.5 96.5t-263.5 263t-97 362.5zM209 702q0 -172 85 -318t231.5 -231t318.5 -85q130 0 248 50t203 135t135.5 202.5t50.5 246.5t-50.5 247 t-135.5 203.5t-203 136t-248 50.5q-129 0 -246.5 -50.5t-202.5 -136t-135.5 -203.5t-50.5 -247zM420 707q0 180 125.5 306t304.5 126q194 0 328 -154l-70 -63q-48 58 -115.5 91.5t-142.5 33.5q-138 0 -237 -99.5t-99 -240.5q0 -139 99 -238.5t237 -99.5q74 0 141 32t115 88 l74 -57q-62 -74 -147.5 -115t-182.5 -41q-178 0 -304 126t-126 305z" />
<glyph unicode="&#xaa;" horiz-adv-x="722" d="M88 922q0 55 22.5 97t57.5 68t91.5 44.5t110 27t126.5 15.5v38q0 70 -40 98.5t-114 28.5q-84 0 -172 -41l-31 76q92 49 221 49q256 0 256 -221v-434q-94 -51 -243 -51q-141 0 -213 55t-72 150zM207 922q0 -129 174 -129q70 0 115 20v291q-59 -7 -99 -14t-79 -20.5 t-61.5 -32t-36 -47.5t-13.5 -68z" />
<glyph unicode="&#xab;" horiz-adv-x="1052" d="M123 684l309 446l96 -63l-262 -383l262 -383l-96 -63zM500 684l309 446l96 -63l-262 -383l262 -383l-96 -63z" />
<glyph unicode="&#xac;" d="M147 627v123h787v-451h-129v328h-658z" />
<glyph unicode="&#xad;" horiz-adv-x="704" d="M121 618v144h463v-144h-463z" />
<glyph unicode="&#xae;" horiz-adv-x="1689" d="M121 702q0 197 97 364t263.5 264t362.5 97t363 -97t264.5 -264t97.5 -364q0 -196 -97.5 -362.5t-264.5 -263t-363 -96.5t-362.5 96.5t-263.5 263t-97 362.5zM209 702q0 -172 85 -318t231.5 -231t318.5 -85q130 0 248 50t203 135t135.5 202.5t50.5 246.5t-50.5 247 t-135.5 203.5t-203 136t-248 50.5q-129 0 -246.5 -50.5t-202.5 -136t-135.5 -203.5t-50.5 -247zM618 285v835q80 41 201 41t203 -62.5t82 -178.5q0 -105 -70.5 -166.5t-183.5 -67.5l291 -401h-115l-281 395h-30v-395h-97zM715 748h76q61 0 107 15.5t77 56t31 102.5 q0 59 -32.5 96.5t-74 50t-92.5 12.5q-52 0 -92 -16v-317z" />
<glyph unicode="&#xaf;" horiz-adv-x="401" d="M-90 1288v105h582v-105h-582z" />
<glyph unicode="&#xb0;" horiz-adv-x="860" d="M123 1124q0 128 90 218t217 90t217 -90t90 -218t-89.5 -217.5t-217.5 -89.5t-217.5 89.5t-89.5 217.5zM219 1124q0 -88 61.5 -149.5t149.5 -61.5t149.5 61.5t61.5 149.5t-61.5 149.5t-149.5 61.5t-149.5 -61.5t-61.5 -149.5z" />
<glyph unicode="&#xb1;" d="M147 145v119h787v-119h-787zM147 745v119h330v350h125v-350h332v-119h-332v-354h-125v354h-330z" />
<glyph unicode="&#xb2;" horiz-adv-x="753" d="M98 555l312 430q46 64 61.5 103.5t15.5 85.5q0 65 -42.5 104t-125.5 39q-75 0 -143 -33l-39 88q96 49 219 49t196 -65t73 -170q0 -102 -109 -242l-215 -278h330v-111h-533z" />
<glyph unicode="&#xb3;" horiz-adv-x="753" d="M109 592l36 92q73 -39 168 -39q82 0 128 42.5t46 117.5q0 53 -22.5 89.5t-60.5 52.5t-75.5 22t-80.5 4v82q99 7 155 48.5t56 104.5q0 60 -38 88.5t-99 28.5q-80 0 -148 -35l-37 84q88 49 207 49q105 0 175.5 -53t70.5 -147q0 -68 -42 -115.5t-97 -73.5q174 -60 174 -229 q0 -118 -83 -191t-208 -73q-137 0 -225 51z" />
<glyph unicode="&#xb4;" horiz-adv-x="401" d="M82 1225l143 280q56 34 118.5 34t74.5 -36l-234 -278h-102z" />
<glyph unicode="&#xb5;" horiz-adv-x="1091" d="M145 -440v1544h181v-944q103 -58 223 -58q137 0 217 45v957h180v-1036q-76 -42 -158.5 -62t-201.5 -20q-135 0 -260 69v-495h-181z" />
<glyph unicode="&#xb6;" d="M57 1030q0 99 36.5 174t100.5 118.5t143.5 65t172.5 21.5h485v-92h-63v-1757h-129v1757h-277v-1757h-129v1106q-156 17 -248 115.5t-92 248.5z" />
<glyph unicode="&#xb7;" horiz-adv-x="497" d="M129 705q0 50 35 84t86 34q50 0 84.5 -34.5t34.5 -83.5t-34.5 -84t-84.5 -35q-51 0 -86 34.5t-35 84.5z" />
<glyph unicode="&#xb8;" horiz-adv-x="401" d="M-61 -401l41 69q144 -11 246 7.5t102 68.5q0 45 -62 60t-198 6l41 63q354 33 354 -127q0 -93 -138 -130.5t-386 -16.5z" />
<glyph unicode="&#xb9;" horiz-adv-x="753" d="M152 1276q198 24 270 133h90v-854h-131v688q-84 -29 -217 -39z" />
<glyph unicode="&#xba;" horiz-adv-x="722" d="M72 1073q0 160 72 257t216 97q147 0 219 -97t72 -257q0 -158 -72.5 -256t-216.5 -98q-145 0 -217.5 97.5t-72.5 256.5zM201 1075q0 -266 161 -266q39 0 68 14.5t46 38.5t27.5 59.5t14.5 71.5t4 80q0 275 -160 275q-161 0 -161 -273z" />
<glyph unicode="&#xbb;" horiz-adv-x="1052" d="M147 301l263 383l-263 383l99 63l309 -446l-309 -446zM526 301l260 383l-260 383l97 63l307 -446l-307 -446z" />
<glyph unicode="&#xbc;" horiz-adv-x="1636" d="M98 1276q97 13 169.5 50t103.5 83h90v-854h-131v688q-79 -29 -219 -39zM408 16l677 1422l109 -45l-678 -1424zM942 190v84l348 582h121v-582h70v-84h-70v-190h-123v190h-346zM1036 274h252v334l2 107h-4q-22 -54 -53 -107z" />
<glyph unicode="&#xbd;" horiz-adv-x="1636" d="M98 1276q97 13 169.5 50t103.5 83h90v-854h-131v688q-79 -29 -219 -39zM375 16l678 1422l108 -45l-678 -1424zM952 0l312 424q46 63 60.5 105.5t14.5 88.5q0 148 -168 148q-67 0 -135 -37l-37 88q88 51 209 51q122 0 195.5 -67t73.5 -172q0 -112 -107 -246l-217 -272h328 v-111h-529z" />
<glyph unicode="&#xbe;" horiz-adv-x="1636" d="M109 592l36 92q73 -39 168 -39q83 0 128.5 42.5t45.5 117.5q0 53 -22 89.5t-60 52.5t-75 22t-80 4v82q98 7 153.5 48.5t55.5 104.5q0 60 -37.5 88.5t-97.5 28.5q-80 0 -148 -35l-39 84q88 49 209 49q105 0 174.5 -53t69.5 -147q0 -69 -41 -116t-96 -73q172 -59 172 -229 q0 -118 -82.5 -191t-208.5 -73q-137 0 -225 51zM471 16l678 1422l111 -45l-680 -1424zM952 190v84l348 582h121v-582h70v-84h-70v-190h-123v190h-346zM1047 274h251v334l2 107q-1 0 -8 -15t-21.5 -42t-27.5 -50z" />
<glyph unicode="&#xbf;" horiz-adv-x="806" d="M86 -125q0 66 29.5 125t76.5 99.5t94.5 68t94.5 41.5l22 299h136l28 -356q-52 -12 -100 -32.5t-93.5 -52.5t-72.5 -78.5t-27 -101.5q0 -97 60 -155t180 -58q116 0 213 54l51 -107q-120 -76 -295 -76q-183 0 -290 89.5t-107 240.5zM352 860q0 50 35 84.5t84 34.5 q48 0 82.5 -35t34.5 -84q0 -47 -35 -82t-82 -35q-49 0 -84 34.5t-35 82.5z" />
<glyph unicode="&#xc0;" horiz-adv-x="1198" d="M39 0l477 1409h168l475 -1409h-194l-134 422h-483l-137 -422h-172zM322 1794q12 36 73.5 36t116.5 -34l145 -280h-102zM381 535h420l-164 534q-16 49 -26 90.5t-13 58.5l-2 17h-4q-8 -55 -43 -166z" />
<glyph unicode="&#xc1;" horiz-adv-x="1198" d="M39 0l477 1409h168l475 -1409h-194l-134 422h-483l-137 -422h-172zM381 535h420l-164 534q-16 49 -26 90.5t-13 58.5l-2 17h-4q-8 -55 -43 -166zM522 1516l144 280q55 34 117 34t75 -36l-233 -278h-103z" />
<glyph unicode="&#xc2;" horiz-adv-x="1198" d="M39 0l477 1409h168l475 -1409h-194l-134 422h-483l-137 -422h-172zM330 1556l202 207q28 31 68 31q39 0 70 -31l202 -207l-53 -43l-217 162l-221 -162zM381 535h420l-164 534q-16 49 -26 90.5t-13 58.5l-2 17h-4q-8 -55 -43 -166z" />
<glyph unicode="&#xc3;" horiz-adv-x="1198" d="M39 0l477 1409h168l475 -1409h-194l-134 422h-483l-137 -422h-172zM309 1612q22 49 54.5 77.5t91.5 34.5q39 4 77.5 -9t64.5 -30.5t60 -30.5t66 -9q76 10 106 90l58 -84q-31 -92 -139 -107q-39 -5 -78 6.5t-67 29t-64.5 30.5t-69.5 10q-74 -7 -107 -90zM381 535h420 l-164 534q-16 49 -26 90.5t-13 58.5l-2 17h-4q-8 -55 -43 -166z" />
<glyph unicode="&#xc4;" horiz-adv-x="1198" d="M39 0l477 1409h168l475 -1409h-194l-134 422h-483l-137 -422h-172zM340 1638q0 37 27 62.5t65 25.5t65 -25.5t27 -62.5t-27 -62.5t-65 -25.5t-65 25.5t-27 62.5zM381 535h420l-164 534q-16 49 -26 90.5t-13 58.5l-2 17h-4q-8 -55 -43 -166zM676 1638q0 36 27.5 62 t64.5 26q38 0 66 -25.5t28 -62.5t-28 -62.5t-66 -25.5q-37 0 -64.5 26t-27.5 62z" />
<glyph unicode="&#xc5;" horiz-adv-x="1198" d="M39 0l477 1409h168l475 -1409h-194l-134 422h-483l-137 -422h-172zM381 535h420l-164 534q-16 49 -26 90.5t-13 58.5l-2 17h-4q-8 -55 -43 -166zM436 1675q0 69 48 117.5t116 48.5q69 0 117.5 -48.5t48.5 -117.5q0 -68 -48.5 -116t-117.5 -48q-68 0 -116 48.5t-48 115.5z M504 1675q0 -40 28 -68t68 -28t68 28t28 68t-28 68.5t-68 28.5t-68 -28.5t-28 -68.5z" />
<glyph unicode="&#xc6;" horiz-adv-x="1525" d="M10 0l588 1409h745v-127h-538l125 -491h413v-125h-385l138 -539h385v-127h-539l-98 422h-492l-168 -422h-174zM397 537h428l-133 583q-7 31 -12 64t-6 50l-2 17h-4q-12 -61 -41 -133z" />
<glyph unicode="&#xc7;" horiz-adv-x="978" d="M111 705q0 199 60 361.5t182 263t286 100.5q168 0 274 -78l-45 -111q-88 55 -196 55q-97 0 -170 -49.5t-114.5 -135t-61 -187t-19.5 -219.5q0 -94 12.5 -178t41 -159t70 -129.5t103 -86t136.5 -31.5q108 0 196 55l49 -119q-100 -77 -276 -77q-164 0 -285.5 99t-182 261.5 t-60.5 364.5zM285 -401l43 69q143 -11 244.5 7.5t101.5 68.5q0 45 -62 60t-198 6l41 63q354 33 354 -127q0 -93 -137.5 -130.5t-386.5 -16.5z" />
<glyph unicode="&#xc8;" horiz-adv-x="903" d="M158 0v1409h653v-127h-465v-491h418v-125h-418v-539h465v-127h-653zM238 1794q13 36 75 36t117 -34l143 -280h-102z" />
<glyph unicode="&#xc9;" horiz-adv-x="903" d="M158 0v1409h653v-127h-465v-491h418v-125h-418v-539h465v-127h-653zM391 1516l144 280q55 34 117 34t75 -36l-233 -278h-103z" />
<glyph unicode="&#xca;" horiz-adv-x="903" d="M158 0v1409h653v-127h-465v-491h418v-125h-418v-539h465v-127h-653zM203 1556l200 207q31 31 68 31q41 0 72 -31l200 -207l-51 -43l-219 162l-219 -162z" />
<glyph unicode="&#xcb;" horiz-adv-x="903" d="M158 0v1409h653v-127h-465v-491h418v-125h-418v-539h465v-127h-653zM215 1638q0 37 27 62.5t65 25.5t66 -25.5t28 -62.5t-28 -62.5t-66 -25.5t-65 25.5t-27 62.5zM551 1638q0 37 28 62.5t66 25.5q37 0 64.5 -26t27.5 -62t-27.5 -62t-64.5 -26q-38 0 -66 25.5t-28 62.5z " />
<glyph unicode="&#xcc;" horiz-adv-x="518" d="M31 1794q13 36 75 36t117 -34l144 -280h-103zM166 0v1409h188v-1409h-188z" />
<glyph unicode="&#xcd;" horiz-adv-x="518" d="M152 1516l143 280q55 34 117 34t75 -36l-235 -278h-100zM164 0v1409h188v-1409h-188z" />
<glyph unicode="&#xce;" horiz-adv-x="518" d="M-12 1556l202 207q28 31 68 31q39 0 70 -31l200 -207l-51 -43l-217 162l-221 -162zM164 0v1409h188v-1409h-188z" />
<glyph unicode="&#xcf;" horiz-adv-x="518" d="M-2 1638q0 37 27 62.5t65 25.5t65 -25.5t27 -62.5t-27 -62.5t-65 -25.5t-65 25.5t-27 62.5zM164 0v1409h188v-1409h-188zM334 1638q0 37 28 62.5t66 25.5q37 0 64.5 -26t27.5 -62t-27.5 -62t-64.5 -26q-38 0 -66 25.5t-28 62.5z" />
<glyph unicode="&#xd0;" horiz-adv-x="1273" d="M86 711v102h125v539q142 78 364 78q287 0 437.5 -189t150.5 -522q0 -165 -34.5 -299t-104 -233t-181.5 -153t-259 -54q-121 0 -219 21t-154 56v654h-125zM395 137q76 -26 178 -26q209 0 302.5 152t93.5 458q0 588 -400 588q-103 0 -174 -27v-469h236v-102h-236v-574z" />
<glyph unicode="&#xd1;" horiz-adv-x="1325" d="M158 0v1409h198l576 -989q23 -38 43 -75.5t29 -56.5l8 -18h4q-6 68 -6 156v983h157v-1409h-163l-601 1028q-23 39 -45.5 81.5t-33.5 65.5l-11 23h-4q6 -86 6 -174v-1024h-157zM373 1612q22 50 54 78t91 34q39 4 77.5 -9t64.5 -30.5t60.5 -30.5t67.5 -9q77 10 107 90 l55 -84q-31 -92 -139 -107q-39 -5 -78 6.5t-66.5 29t-63.5 30.5t-68 10q-76 -7 -109 -90z" />
<glyph unicode="&#xd2;" horiz-adv-x="1239" d="M111 705q0 154 29 282t88 229t159.5 157.5t233.5 56.5t232.5 -56.5t158.5 -157.5t87.5 -229t28.5 -282q0 -156 -28.5 -284t-87.5 -228.5t-158.5 -156.5t-232.5 -56q-134 0 -234 56t-159.5 156.5t-88 228.5t-28.5 284zM301 711q0 -592 320 -592q317 0 317 592q0 92 -8 172 t-30 159.5t-56.5 136t-91.5 91.5t-131 35q-75 0 -132.5 -35t-92 -91.5t-57 -136t-30.5 -159.5t-8 -172zM379 1794q13 36 74.5 36t117.5 -34l144 -280h-103z" />
<glyph unicode="&#xd3;" horiz-adv-x="1239" d="M111 705q0 154 29 282t88 229t159.5 157.5t233.5 56.5t232.5 -56.5t158.5 -157.5t87.5 -229t28.5 -282q0 -156 -28.5 -284t-87.5 -228.5t-158.5 -156.5t-232.5 -56q-134 0 -234 56t-159.5 156.5t-88 228.5t-28.5 284zM301 711q0 -592 320 -592q317 0 317 592q0 92 -8 172 t-30 159.5t-56.5 136t-91.5 91.5t-131 35q-75 0 -132.5 -35t-92 -91.5t-57 -136t-30.5 -159.5t-8 -172zM514 1516l143 280q56 34 118 34t75 -36l-234 -278h-102z" />
<glyph unicode="&#xd4;" horiz-adv-x="1239" d="M111 705q0 154 29 282t88 229t159.5 157.5t233.5 56.5t232.5 -56.5t158.5 -157.5t87.5 -229t28.5 -282q0 -156 -28.5 -284t-87.5 -228.5t-158.5 -156.5t-232.5 -56q-134 0 -234 56t-159.5 156.5t-88 228.5t-28.5 284zM301 711q0 -592 320 -592q317 0 317 592q0 92 -8 172 t-30 159.5t-56.5 136t-91.5 91.5t-131 35q-75 0 -132.5 -35t-92 -91.5t-57 -136t-30.5 -159.5t-8 -172zM350 1556l201 207q31 31 67 31q41 0 72 -31l201 -207l-51 -43l-219 162l-220 -162z" />
<glyph unicode="&#xd5;" horiz-adv-x="1239" d="M111 705q0 154 29 282t88 229t159.5 157.5t233.5 56.5t232.5 -56.5t158.5 -157.5t87.5 -229t28.5 -282q0 -156 -28.5 -284t-87.5 -228.5t-158.5 -156.5t-232.5 -56q-134 0 -234 56t-159.5 156.5t-88 228.5t-28.5 284zM301 711q0 -592 320 -592q317 0 317 592q0 92 -8 172 t-30 159.5t-56.5 136t-91.5 91.5t-131 35q-75 0 -132.5 -35t-92 -91.5t-57 -136t-30.5 -159.5t-8 -172zM326 1612q20 49 52.5 77.5t90.5 34.5q40 4 78.5 -9t64.5 -30.5t60 -30.5t67 -9q77 10 107 90l57 -84q-17 -44 -49 -71.5t-92 -35.5q-38 -5 -77 6.5t-66.5 29t-64 30.5 t-69.5 10q-78 -7 -106 -90z" />
<glyph unicode="&#xd6;" horiz-adv-x="1239" d="M111 705q0 154 29 282t88 229t159.5 157.5t233.5 56.5t232.5 -56.5t158.5 -157.5t87.5 -229t28.5 -282q0 -156 -28.5 -284t-87.5 -228.5t-158.5 -156.5t-232.5 -56q-134 0 -234 56t-159.5 156.5t-88 228.5t-28.5 284zM301 711q0 -592 320 -592q317 0 317 592q0 92 -8 172 t-30 159.5t-56.5 136t-91.5 91.5t-131 35q-75 0 -132.5 -35t-92 -91.5t-57 -136t-30.5 -159.5t-8 -172zM358 1638q0 37 27.5 62.5t65.5 25.5t66 -25.5t28 -62.5t-28 -62.5t-66 -25.5t-65.5 25.5t-27.5 62.5zM696 1638q0 37 27 62.5t65 25.5t65.5 -25.5t27.5 -62.5 t-27.5 -62.5t-65.5 -25.5t-65 25.5t-27 62.5z" />
<glyph unicode="&#xd7;" d="M137 1040l86 82l318 -352l315 352l86 -82l-319 -358l321 -358l-86 -82l-317 352l-316 -350l-86 82l320 356z" />
<glyph unicode="&#xd8;" horiz-adv-x="1249" d="M115 705q0 122 17.5 228.5t57 199t98 157.5t144.5 102.5t193 37.5q201 0 327 -136l109 172l61 -39l-121 -190q134 -194 134 -532q0 -156 -28.5 -284t-88 -228.5t-159.5 -156.5t-234 -56q-208 0 -334 139l-109 -168l-61 39l121 188q-127 189 -127 527zM293 711 q0 -225 57 -363l518 813q-84 154 -243 154q-93 0 -160.5 -51.5t-103.5 -141.5t-52 -191t-16 -220zM379 260q84 -151 246 -151q78 0 137.5 35t95.5 91.5t59 137.5t31 162t8 176q0 220 -59 360z" />
<glyph unicode="&#xd9;" horiz-adv-x="1193" d="M158 401v1008h188v-1006q0 -128 75.5 -203t184.5 -75q108 0 183 75t75 203v1006h172v-1008q0 -184 -120.5 -304t-319.5 -120q-198 0 -318 120.5t-120 303.5zM387 1794q13 36 75.5 36t117.5 -34l143 -280h-102z" />
<glyph unicode="&#xda;" horiz-adv-x="1193" d="M158 401v1008h188v-1006q0 -128 75.5 -203t184.5 -75q108 0 183 75t75 203v1006h172v-1008q0 -184 -120.5 -304t-319.5 -120q-198 0 -318 120.5t-120 303.5zM500 1516l143 280q55 34 117.5 34t75.5 -36l-236 -278h-100z" />
<glyph unicode="&#xdb;" horiz-adv-x="1193" d="M158 401v1008h188v-1006q0 -128 75.5 -203t184.5 -75q108 0 183 75t75 203v1006h172v-1008q0 -184 -120.5 -304t-319.5 -120q-198 0 -318 120.5t-120 303.5zM332 1556l200 207q31 31 68 31q41 0 72 -31l200 -207l-51 -43l-219 162l-219 -162z" />
<glyph unicode="&#xdc;" horiz-adv-x="1193" d="M158 401v1008h188v-1006q0 -128 75.5 -203t184.5 -75q108 0 183 75t75 203v1006h172v-1008q0 -184 -120.5 -304t-319.5 -120q-198 0 -318 120.5t-120 303.5zM346 1638q0 36 27.5 62t64.5 26q38 0 66 -25.5t28 -62.5t-28 -62.5t-66 -25.5q-37 0 -64.5 26t-27.5 62z M684 1638q0 37 27 62.5t65 25.5t66 -25.5t28 -62.5t-28 -62.5t-66 -25.5t-65 25.5t-27 62.5z" />
<glyph unicode="&#xdd;" horiz-adv-x="1024" d="M35 1409h205l280 -637h4l291 637h178l-387 -784v-625h-188v625zM432 1516l143 280q55 34 117.5 34t75.5 -36l-233 -278h-103z" />
<glyph unicode="&#xde;" d="M158 0v1409h186v-250q98 27 166 27q232 0 352.5 -119.5t120.5 -314.5q0 -95 -34.5 -173.5t-102.5 -137.5t-180.5 -88t-257.5 -19l-64 4v-338h-186zM344 455l57 -6q102 -11 180.5 7.5t125.5 60.5t70.5 99.5t23.5 126.5q0 162 -83 248t-222 86q-75 0 -152 -22v-600z" />
<glyph unicode="&#xdf;" horiz-adv-x="1126" d="M152 0v1087q0 80 11.5 152.5t41.5 144.5t75 124.5t118 85t165 32.5q126 0 216.5 -62.5t132.5 -163t42 -226.5q0 -99 -28 -193q-108 -14 -163.5 -59.5t-55.5 -130.5q0 -56 30.5 -97.5t116.5 -95.5q93 -59 137.5 -127.5t44.5 -165.5q0 -136 -100.5 -227.5t-249.5 -91.5 q-132 0 -205 49l39 117q60 -33 142 -33q85 0 139.5 52t54.5 136q0 68 -33 112.5t-114 96.5q-85 54 -126.5 117t-41.5 147q0 99 60 165t161 93q16 51 16 136q0 331 -215 331q-231 0 -231 -409v-1096h-180z" />
<glyph unicode="&#xe0;" horiz-adv-x="1021" d="M90 305q0 72 21.5 130t63 100t95 73.5t126 53t146.5 35t165 22.5v67q0 120 -64.5 170t-179.5 50q-128 0 -266 -70l-43 106q148 82 338 82q64 0 119 -11t105 -37.5t85 -66.5t55.5 -102t20.5 -141v-709q-138 -77 -367 -77q-210 0 -315 85t-105 240zM262 309 q0 -225 262 -225q116 0 183 37v506q-114 -14 -189 -33.5t-136.5 -54.5t-90.5 -91.5t-29 -138.5zM285 1503q13 36 74.5 36t117.5 -34l144 -280h-103z" />
<glyph unicode="&#xe1;" horiz-adv-x="1021" d="M90 305q0 72 21.5 130t63 100t95 73.5t126 53t146.5 35t165 22.5v67q0 120 -64.5 170t-179.5 50q-128 0 -266 -70l-43 106q148 82 338 82q64 0 119 -11t105 -37.5t85 -66.5t55.5 -102t20.5 -141v-709q-138 -77 -367 -77q-210 0 -315 85t-105 240zM262 309 q0 -225 262 -225q116 0 183 37v506q-114 -14 -189 -33.5t-136.5 -54.5t-90.5 -91.5t-29 -138.5zM444 1225l144 280q56 34 117.5 34t74.5 -36l-233 -278h-103z" />
<glyph unicode="&#xe2;" horiz-adv-x="1021" d="M90 305q0 72 21.5 130t63 100t95 73.5t126 53t146.5 35t165 22.5v67q0 120 -64.5 170t-179.5 50q-128 0 -266 -70l-43 106q148 82 338 82q64 0 119 -11t105 -37.5t85 -66.5t55.5 -102t20.5 -141v-709q-138 -77 -367 -77q-210 0 -315 85t-105 240zM242 1268l202 205 q30 30 68 30q43 0 70 -30l202 -205l-51 -45l-219 161l-219 -161zM262 309q0 -225 262 -225q116 0 183 37v506q-114 -14 -189 -33.5t-136.5 -54.5t-90.5 -91.5t-29 -138.5z" />
<glyph unicode="&#xe3;" horiz-adv-x="1021" d="M90 305q0 72 21.5 130t63 100t95 73.5t126 53t146.5 35t165 22.5v67q0 120 -64.5 170t-179.5 50q-128 0 -266 -70l-43 106q148 82 338 82q64 0 119 -11t105 -37.5t85 -66.5t55.5 -102t20.5 -141v-709q-138 -77 -367 -77q-210 0 -315 85t-105 240zM221 1323 q20 48 52.5 76.5t91.5 34.5q40 4 78.5 -9t64.5 -30.5t60.5 -30.5t66.5 -10q76 10 106 90l58 -82q-34 -94 -142 -109q-39 -5 -78 7t-66.5 29.5t-63.5 31t-68 10.5q-75 -9 -109 -90zM262 309q0 -225 262 -225q116 0 183 37v506q-114 -14 -189 -33.5t-136.5 -54.5t-90.5 -91.5 t-29 -138.5z" />
<glyph unicode="&#xe4;" horiz-adv-x="1021" d="M90 305q0 72 21.5 130t63 100t95 73.5t126 53t146.5 35t165 22.5v67q0 120 -64.5 170t-179.5 50q-128 0 -266 -70l-43 106q148 82 338 82q64 0 119 -11t105 -37.5t85 -66.5t55.5 -102t20.5 -141v-709q-138 -77 -367 -77q-210 0 -315 85t-105 240zM260 1350q0 37 28 62.5 t66 25.5q37 0 64.5 -26t27.5 -62t-27.5 -61t-64.5 -25q-38 0 -66 25.5t-28 60.5zM262 309q0 -225 262 -225q116 0 183 37v506q-114 -14 -189 -33.5t-136.5 -54.5t-90.5 -91.5t-29 -138.5zM598 1350q0 37 27 62.5t65 25.5t66 -25.5t28 -62.5q0 -36 -27.5 -61t-66.5 -25 q-38 0 -65 25.5t-27 60.5z" />
<glyph unicode="&#xe5;" horiz-adv-x="1021" d="M90 305q0 72 21.5 130t63 100t95 73.5t126 53t146.5 35t165 22.5v67q0 120 -64.5 170t-179.5 50q-128 0 -266 -70l-43 106q148 82 338 82q64 0 119 -11t105 -37.5t85 -66.5t55.5 -102t20.5 -141v-709q-138 -77 -367 -77q-210 0 -315 85t-105 240zM262 309 q0 -225 262 -225q116 0 183 37v506q-114 -14 -189 -33.5t-136.5 -54.5t-90.5 -91.5t-29 -138.5zM356 1386q0 68 48 116t116 48q69 0 117.5 -48t48.5 -116q0 -69 -48.5 -117t-117.5 -48q-68 0 -116 48t-48 117zM424 1386q0 -40 28 -68t68 -28t68 28t28 68t-28 68.5t-68 28.5 t-68 -28.5t-28 -68.5z" />
<glyph unicode="&#xe6;" horiz-adv-x="1646" d="M90 303q0 82 31.5 147.5t85.5 110t134 77t168 51t196 28.5v69q0 60 -20 104.5t-56 69.5t-80.5 36.5t-99.5 11.5q-125 0 -250 -68l-41 107q137 77 325 77q244 0 318 -198q51 100 139 149t186 49q202 0 310.5 -134.5t107.5 -405.5l-690 -103q9 -188 99.5 -280t234.5 -92 q165 0 270 59l47 -113q-124 -75 -334 -75q-119 0 -213 52.5t-153 149.5q-91 -202 -330 -202q-194 0 -289.5 85t-95.5 238zM254 305q0 -219 229 -219q93 0 157.5 57.5t64.5 155.5v322q-92 -11 -156.5 -25t-123.5 -37.5t-94.5 -56t-56 -82t-20.5 -115.5zM846 582l526 77 q-3 185 -67 267t-187 82q-124 0 -198.5 -106t-73.5 -320z" />
<glyph unicode="&#xe7;" horiz-adv-x="841" d="M102 553q0 266 117.5 418.5t306.5 152.5q162 0 244 -73l-43 -105q-70 53 -164 53q-144 0 -211 -117.5t-67 -322.5q0 -203 71 -324.5t201 -121.5q93 0 168 53l45 -113q-80 -73 -248 -73q-185 0 -302.5 155.5t-117.5 417.5zM172 -401l41 69q144 -11 246 7.5t102 68.5 q0 45 -62 60t-198 6l41 63q354 33 354 -127q0 -93 -138 -130.5t-386 -16.5z" />
<glyph unicode="&#xe8;" horiz-adv-x="1069" d="M102 555q0 274 122 421.5t323 147.5q203 0 313 -134.5t107 -405.5l-695 -101q30 -372 336 -372q164 0 273 63l47 -119q-124 -75 -334 -75q-226 0 -359 145t-133 430zM266 580l529 79q0 349 -254 349q-127 0 -202.5 -106.5t-72.5 -321.5zM299 1503q13 36 75 36t118 -34 l143 -280h-103z" />
<glyph unicode="&#xe9;" horiz-adv-x="1069" d="M102 555q0 274 122 421.5t323 147.5q203 0 313 -134.5t107 -405.5l-695 -101q30 -372 336 -372q164 0 273 63l47 -119q-124 -75 -334 -75q-226 0 -359 145t-133 430zM266 580l529 79q0 349 -254 349q-127 0 -202.5 -106.5t-72.5 -321.5zM463 1225l143 280q56 34 118 34 t75 -36l-234 -278h-102z" />
<glyph unicode="&#xea;" horiz-adv-x="1069" d="M102 555q0 274 122 421.5t323 147.5q203 0 313 -134.5t107 -405.5l-695 -101q30 -372 336 -372q164 0 273 63l47 -119q-124 -75 -334 -75q-226 0 -359 145t-133 430zM266 580l529 79q0 349 -254 349q-127 0 -202.5 -106.5t-72.5 -321.5zM272 1268l203 205q27 30 68 30 q39 0 69 -30l203 -205l-53 -45l-217 161l-221 -161z" />
<glyph unicode="&#xeb;" horiz-adv-x="1069" d="M102 555q0 274 122 421.5t323 147.5q203 0 313 -134.5t107 -405.5l-695 -101q30 -372 336 -372q164 0 273 63l47 -119q-124 -75 -334 -75q-226 0 -359 145t-133 430zM266 580l529 79q0 349 -254 349q-127 0 -202.5 -106.5t-72.5 -321.5zM287 1350q0 37 27 62.5t65 25.5 t66 -25.5t28 -62.5q0 -36 -27.5 -61t-66.5 -25q-38 0 -65 25.5t-27 60.5zM625 1350q0 37 27 62.5t65 25.5t65 -25.5t27 -62.5t-27 -61.5t-65 -24.5t-65 25.5t-27 60.5z" />
<glyph unicode="&#xec;" horiz-adv-x="493" d="M16 1503q13 36 75 36t118 -34l143 -280h-102zM158 0v1104h180v-1104h-180z" />
<glyph unicode="&#xed;" horiz-adv-x="493" d="M141 1225l144 280q56 34 118 34t74 -36l-233 -278h-103zM158 0v1104h180v-1104h-180z" />
<glyph unicode="&#xee;" horiz-adv-x="493" d="M-25 1268l203 205q30 30 68 30q39 0 69 -30l203 -205l-51 -45l-219 161l-219 -161zM158 0v1104h180v-1104h-180z" />
<glyph unicode="&#xef;" horiz-adv-x="493" d="M-14 1350q0 37 28 62.5t66 25.5q37 0 64.5 -26t27.5 -62t-27.5 -61t-64.5 -25q-38 0 -66 25.5t-28 60.5zM158 0v1104h180v-1104h-180zM322 1350q0 36 27.5 62t64.5 26q38 0 66 -25.5t28 -62.5q0 -36 -27.5 -61t-66.5 -25q-37 0 -64.5 25.5t-27.5 60.5z" />
<glyph unicode="&#xf0;" horiz-adv-x="1067" d="M102 543q0 87 14.5 167t47 154t81 128t122 86t163.5 32q74 0 146 -20q-67 163 -146 292l-184 -55q-3 8 -21.5 36.5t-25.5 35.5l182 57q-48 70 -96 121l150 47q53 -58 96 -119l160 49q4 -5 24.5 -35.5t24.5 -35.5l-162 -51q129 -206 204.5 -433t75.5 -454 q0 -126 -24.5 -228t-74 -179.5t-131.5 -120t-191 -42.5q-205 0 -320 153t-115 415zM283 545q0 -445 256 -445q72 0 121 37t73.5 104.5t34.5 141t10 168.5q0 109 -20.5 230t-52.5 204q-71 21 -144 21q-80 0 -136 -35.5t-86 -101.5t-43 -144.5t-13 -179.5z" />
<glyph unicode="&#xf1;" horiz-adv-x="1091" d="M145 0v1047q161 77 408 77q393 0 393 -319v-805h-180v803q0 205 -231 205q-120 0 -209 -39v-969h-181zM250 1323q20 48 52.5 76.5t90.5 34.5q40 4 79 -9t64.5 -30.5t60.5 -30.5t67 -10q76 10 106 90l57 -82q-17 -46 -49 -73.5t-92 -35.5q-38 -5 -77 7t-66 29.5t-63.5 31 t-69.5 10.5q-78 -9 -107 -90z" />
<glyph unicode="&#xf2;" horiz-adv-x="1067" d="M102 551q0 169 44.5 295.5t143 202t242.5 75.5q111 0 195 -42.5t135.5 -120.5t77 -181t25.5 -229q0 -124 -25.5 -226.5t-77 -180.5t-135 -121t-192.5 -43q-110 0 -194 43t-135.5 121t-77.5 180.5t-26 226.5zM281 1503q13 36 75 36t117 -34l143 -280h-100zM283 551 q0 -447 252 -447q61 0 106.5 26t72.5 67t43 102t21.5 120t5.5 132t-5.5 133.5t-21.5 123t-43 105.5t-72.5 70t-106.5 27q-252 0 -252 -459z" />
<glyph unicode="&#xf3;" horiz-adv-x="1067" d="M102 551q0 169 44.5 295.5t143 202t242.5 75.5q111 0 195 -42.5t135.5 -120.5t77 -181t25.5 -229q0 -124 -25.5 -226.5t-77 -180.5t-135 -121t-192.5 -43q-110 0 -194 43t-135.5 121t-77.5 180.5t-26 226.5zM283 551q0 -447 252 -447q61 0 106.5 26t72.5 67t43 102 t21.5 120t5.5 132t-5.5 133.5t-21.5 123t-43 105.5t-72.5 70t-106.5 27q-252 0 -252 -459zM451 1225l143 280q56 34 117.5 34t74.5 -36l-233 -278h-102z" />
<glyph unicode="&#xf4;" horiz-adv-x="1067" d="M102 551q0 169 44.5 295.5t143 202t242.5 75.5q111 0 195 -42.5t135.5 -120.5t77 -181t25.5 -229q0 -124 -25.5 -226.5t-77 -180.5t-135 -121t-192.5 -43q-110 0 -194 43t-135.5 121t-77.5 180.5t-26 226.5zM262 1268l203 205q27 30 67 30t70 -30l203 -205l-53 -45 l-217 161l-222 -161zM283 551q0 -447 252 -447q61 0 106.5 26t72.5 67t43 102t21.5 120t5.5 132t-5.5 133.5t-21.5 123t-43 105.5t-72.5 70t-106.5 27q-252 0 -252 -459z" />
<glyph unicode="&#xf5;" horiz-adv-x="1067" d="M102 551q0 169 44.5 295.5t143 202t242.5 75.5q111 0 195 -42.5t135.5 -120.5t77 -181t25.5 -229q0 -124 -25.5 -226.5t-77 -180.5t-135 -121t-192.5 -43q-110 0 -194 43t-135.5 121t-77.5 180.5t-26 226.5zM240 1323q22 49 54 77.5t91 33.5q39 4 77.5 -9t64.5 -30.5 t61 -30.5t67 -10q77 10 107 90l55 -82q-15 -45 -46.5 -73t-92.5 -36q-39 -5 -78 7t-66.5 29.5t-64 31t-68.5 10.5q-74 -9 -108 -90zM283 551q0 -447 252 -447q61 0 106.5 26t72.5 67t43 102t21.5 120t5.5 132t-5.5 133.5t-21.5 123t-43 105.5t-72.5 70t-106.5 27 q-252 0 -252 -459z" />
<glyph unicode="&#xf6;" horiz-adv-x="1067" d="M102 551q0 169 44.5 295.5t143 202t242.5 75.5q111 0 195 -42.5t135.5 -120.5t77 -181t25.5 -229q0 -124 -25.5 -226.5t-77 -180.5t-135 -121t-192.5 -43q-110 0 -194 43t-135.5 121t-77.5 180.5t-26 226.5zM270 1350q0 36 28 62t67 26q37 0 64.5 -26t27.5 -62t-27.5 -61 t-64.5 -25q-38 0 -66.5 25.5t-28.5 60.5zM283 551q0 -447 252 -447q61 0 106.5 26t72.5 67t43 102t21.5 120t5.5 132t-5.5 133.5t-21.5 123t-43 105.5t-72.5 70t-106.5 27q-252 0 -252 -459zM608 1350q0 36 27.5 62t64.5 26q39 0 67 -26t28 -62t-28 -61t-67 -25 q-37 0 -64.5 25.5t-27.5 60.5z" />
<glyph unicode="&#xf7;" d="M147 629v106h787v-106h-787zM438 356q0 41 30 71t73 30q41 0 70.5 -30t29.5 -71q0 -43 -29.5 -72.5t-70.5 -29.5q-43 0 -73 29.5t-30 72.5zM438 1008q0 41 30 70.5t73 29.5q41 0 70.5 -29.5t29.5 -70.5q0 -43 -29.5 -73t-70.5 -30q-43 0 -73 30t-30 73z" />
<glyph unicode="&#xf8;" horiz-adv-x="1071" d="M102 551q0 126 26 229t78 180.5t135.5 120.5t193.5 43q146 0 245 -80l90 156l54 -33l-95 -163q140 -152 140 -453q0 -124 -26 -226.5t-77.5 -180t-135.5 -121t-193 -43.5q-149 0 -252 83l-92 -159l-54 33l99 169q-136 151 -136 445zM270 553q0 -189 52 -301l395 680 q-68 94 -180 94q-62 0 -110 -28.5t-77 -73.5t-47.5 -108.5t-25.5 -127t-7 -135.5zM356 184q64 -90 181 -90q264 0 264 459q0 196 -51 311z" />
<glyph unicode="&#xf9;" horiz-adv-x="1071" d="M145 338v766h181v-772q0 -102 56 -165t165 -63q122 0 198 46v954h181v-1038q-155 -89 -389 -89q-201 0 -296.5 94.5t-95.5 266.5zM307 1503q13 36 75.5 36t117.5 -34l143 -280h-100z" />
<glyph unicode="&#xfa;" horiz-adv-x="1071" d="M145 338v766h181v-772q0 -102 56 -165t165 -63q122 0 198 46v954h181v-1038q-155 -89 -389 -89q-201 0 -296.5 94.5t-95.5 266.5zM457 1225l143 280q55 34 117.5 34t75.5 -36l-236 -278h-100z" />
<glyph unicode="&#xfb;" horiz-adv-x="1071" d="M145 338v766h181v-772q0 -102 56 -165t165 -63q122 0 198 46v954h181v-1038q-155 -89 -389 -89q-201 0 -296.5 94.5t-95.5 266.5zM266 1268l201 205q30 30 70 30q39 0 69 -30l201 -205l-51 -45l-219 161l-220 -161z" />
<glyph unicode="&#xfc;" horiz-adv-x="1071" d="M145 338v766h181v-772q0 -102 56 -165t165 -63q122 0 198 46v954h181v-1038q-155 -89 -389 -89q-201 0 -296.5 94.5t-95.5 266.5zM274 1350q0 37 27.5 62.5t65.5 25.5t65 -25.5t27 -62.5t-27 -61.5t-65 -24.5t-65.5 25.5t-27.5 60.5zM610 1350q0 36 28 62t67 26 q37 0 64.5 -26t27.5 -62t-27.5 -61t-64.5 -25q-38 0 -66.5 25.5t-28.5 60.5z" />
<glyph unicode="&#xfd;" horiz-adv-x="999" d="M59 1104h193l258 -893h2l266 893h168l-510 -1544h-190l182 440zM426 1225l143 280q55 34 117.5 34t75.5 -36l-236 -278h-100z" />
<glyph unicode="&#xfe;" d="M145 -440v2048h179v-537q93 49 196 49q218 0 338.5 -146.5t120.5 -400.5q0 -137 -37 -248.5t-102.5 -185t-154 -113.5t-191.5 -40q-82 0 -168 24v-450h-181zM326 115q82 -21 133 -21q93 0 161.5 38t106.5 105t56 146.5t18 173.5q0 214 -76.5 335.5t-239.5 121.5 q-91 0 -159 -39v-860z" />
<glyph unicode="&#xff;" horiz-adv-x="999" d="M59 1104h193l258 -893h2l266 893h168l-510 -1544h-190l182 440zM250 1350q0 37 27 62.5t65 25.5t66 -25.5t28 -62.5q0 -36 -27.5 -61t-66.5 -25q-38 0 -65 25.5t-27 60.5zM588 1350q0 37 27 62.5t65 25.5t65 -25.5t27 -62.5t-27 -61.5t-65 -24.5t-65 25.5t-27 60.5z" />
<glyph unicode="&#x152;" horiz-adv-x="1558" d="M111 705q0 158 34 288.5t101 229t175.5 153t250.5 54.5q84 0 170 -21h624v-127h-465v-491h420v-125h-420v-537h465v-129h-624q-66 -20 -168 -20q-142 0 -251 55t-176.5 153.5t-101.5 229t-34 287.5zM303 707q0 -59 4.5 -115t16 -117.5t29.5 -113.5t47 -100.5t67.5 -82.5 t92 -54t118.5 -20q93 0 147 15v1175q-66 19 -147 19q-75 0 -136 -26.5t-100.5 -74.5t-68 -106t-43 -129.5t-21 -136t-6.5 -133.5z" />
<glyph unicode="&#x153;" horiz-adv-x="1724" d="M102 551q0 169 45 295.5t143.5 202t241.5 75.5q115 0 193 -54t137 -173q56 116 145.5 171.5t196.5 55.5q418 0 418 -549l-686 -77q9 -100 35.5 -174t59.5 -114.5t78.5 -65t83 -31.5t81.5 -7q90 0 149 16.5t115 47.5l47 -115q-61 -36 -136 -55.5t-196 -19.5 q-127 0 -227.5 61.5t-159.5 189.5q-93 -251 -334 -251q-109 0 -192 43.5t-134.5 121t-77.5 180t-26 226.5zM279 553q0 -52 4 -98.5t13.5 -100.5t28 -97t45.5 -79t68.5 -56t93.5 -20q47 0 84.5 15.5t63.5 41t45 63.5t29.5 76t17 85.5t8.5 86t2 83.5q0 56 -3 101t-11 101.5 t-25.5 98.5t-44 79t-69 57t-97.5 20q-253 0 -253 -457zM928 594l520 59q0 185 -65 274t-185 89q-125 0 -199 -106t-71 -316z" />
<glyph unicode="&#x178;" horiz-adv-x="1024" d="M35 1409h205l280 -637h4l291 637h178l-387 -784v-625h-188v625zM258 1638q0 37 28 62.5t66 25.5q37 0 64.5 -26t27.5 -62t-27.5 -62t-64.5 -26q-38 0 -66 25.5t-28 62.5zM596 1638q0 37 27 62.5t65 25.5t66 -25.5t28 -62.5t-28 -62.5t-66 -25.5t-65 25.5t-27 62.5z" />
<glyph unicode="&#x2c6;" horiz-adv-x="401" d="M-70 1268l201 205q30 30 70 30q39 0 69 -30l201 -205l-51 -45l-219 161l-219 -161z" />
<glyph unicode="&#x2dc;" horiz-adv-x="401" d="M-88 1323q22 49 53.5 77.5t89.5 33.5q40 4 79 -9t64.5 -30.5t60.5 -30.5t67 -10q76 10 106 90l57 -82q-17 -45 -48.5 -73t-90.5 -36q-39 -5 -78 7.5t-66.5 30t-64 31t-69.5 9.5q-72 -7 -107 -90z" />
<glyph unicode="&#x2000;" horiz-adv-x="920" />
<glyph unicode="&#x2001;" horiz-adv-x="1841" />
<glyph unicode="&#x2002;" horiz-adv-x="920" />
<glyph unicode="&#x2003;" horiz-adv-x="1841" />
<glyph unicode="&#x2004;" horiz-adv-x="613" />
<glyph unicode="&#x2005;" horiz-adv-x="460" />
<glyph unicode="&#x2006;" horiz-adv-x="306" />
<glyph unicode="&#x2007;" horiz-adv-x="306" />
<glyph unicode="&#x2008;" horiz-adv-x="230" />
<glyph unicode="&#x2009;" horiz-adv-x="368" />
<glyph unicode="&#x200a;" horiz-adv-x="102" />
<glyph unicode="&#x2010;" horiz-adv-x="704" d="M121 618v144h463v-144h-463z" />
<glyph unicode="&#x2011;" horiz-adv-x="704" d="M121 618v144h463v-144h-463z" />
<glyph unicode="&#x2012;" horiz-adv-x="704" d="M121 618v144h463v-144h-463z" />
<glyph unicode="&#x2013;" horiz-adv-x="819" d="M0 625v125h819v-125h-819z" />
<glyph unicode="&#x2014;" horiz-adv-x="1638" d="M0 633v106h1638v-106h-1638z" />
<glyph unicode="&#x2018;" horiz-adv-x="540" d="M113 1102l252 506h94l-164 -506q-38 -51 -113 -51q-56 0 -69 51z" />
<glyph unicode="&#x2019;" horiz-adv-x="540" d="M82 1059l164 506q35 51 112 51q58 0 70 -51l-252 -506h-94z" />
<glyph unicode="&#x201a;" horiz-adv-x="540" d="M82 -346l164 506q38 51 112 51q57 0 70 -51l-252 -506h-94z" />
<glyph unicode="&#x201c;" horiz-adv-x="899" d="M113 1102l252 506h94l-164 -506q-38 -51 -113 -51q-56 0 -69 51zM471 1102l252 506h94l-164 -506q-38 -51 -112 -51q-31 0 -48.5 15.5t-21.5 35.5z" />
<glyph unicode="&#x201d;" horiz-adv-x="899" d="M82 1059l164 506q35 51 112 51q58 0 70 -51l-252 -506h-94zM440 1059l164 506q35 51 113 51q57 0 69 -51l-254 -506h-92z" />
<glyph unicode="&#x201e;" horiz-adv-x="899" d="M82 -346l164 506q38 51 112 51q57 0 70 -51l-252 -506h-94zM440 -346l164 506q38 51 113 51q56 0 69 -51l-254 -506h-92z" />
<glyph unicode="&#x2022;" horiz-adv-x="663" d="M139 729q0 79 56.5 136t136.5 57q79 0 135.5 -56.5t56.5 -136.5q0 -79 -56 -135.5t-136 -56.5t-136.5 56.5t-56.5 135.5z" />
<glyph unicode="&#x2026;" horiz-adv-x="1716" d="M168 109q0 49 34.5 83.5t84.5 34.5q48 0 82 -34.5t34 -83.5t-34 -83t-82 -34q-50 0 -84.5 34t-34.5 83zM739 109q0 49 34.5 83.5t84.5 34.5q49 0 83 -34t34 -84q0 -49 -33.5 -83t-83.5 -34t-84.5 34t-34.5 83zM1311 109q0 49 34.5 83.5t84.5 34.5t84 -34.5t34 -83.5 t-34 -83t-84 -34t-84.5 34t-34.5 83z" />
<glyph unicode="&#x202f;" horiz-adv-x="368" />
<glyph unicode="&#x2039;" horiz-adv-x="675" d="M123 684l309 446l96 -63l-262 -383l262 -383l-96 -63z" />
<glyph unicode="&#x203a;" horiz-adv-x="675" d="M147 301l261 383l-261 383l97 63l309 -446l-309 -446z" />
<glyph unicode="&#x205f;" horiz-adv-x="460" />
<glyph unicode="&#x2122;" horiz-adv-x="1601" d="M94 1331v78h498v-78h-197v-633h-102v633h-199zM641 698l92 711h144l174 -608l172 608h145l90 -711h-98l-74 621l-188 -621h-97l-190 621l-70 -621h-100z" />
<glyph unicode="&#x25fc;" horiz-adv-x="1105" d="M0 0v1106h1106v-1106h-1106z" />
<glyph unicode="&#xfb01;" horiz-adv-x="1079" d="M82 991v113h125v156q0 166 97.5 260.5t275.5 87.5v-115q-193 -11 -193 -213v-176h193v-113h-193v-991h-180v991h-125zM727 1415q0 40 30.5 68t73.5 28t73 -28t30 -68t-30 -68t-73 -28t-73.5 28t-30.5 68zM741 0v1104h181v-1104h-181z" />
<glyph unicode="&#xfb02;" horiz-adv-x="1091" d="M82 991v113h125v156q0 166 97.5 260.5t275.5 87.5v-115q-193 -11 -193 -213v-176h193v-113h-193v-991h-180v991h-125zM754 0v1608h180v-1608h-180z" />
</font>
</defs>
</svg>
