<?xml version="1.0" standalone="no"?>
<!DOCTYPE svg PUBLIC "-//W3C//DTD SVG 1.1//EN" "http://www.w3.org/Graphics/SVG/1.1/DTD/svg11.dtd" >
<svg xmlns="http://www.w3.org/2000/svg" xmlns:xlink="http://www.w3.org/1999/xlink" version="1.1">
<metadata></metadata>
<defs>
<font id="daxbold_italic" horiz-adv-x="1163" >
<font-face units-per-em="2048" ascent="1608" descent="-440" />
<missing-glyph horiz-adv-x="548" />
<glyph horiz-adv-x="0" />
<glyph horiz-adv-x="682" />
<glyph unicode=" "  horiz-adv-x="548" />
<glyph unicode="&#x09;" horiz-adv-x="548" />
<glyph unicode="&#xa0;" horiz-adv-x="548" />
<glyph unicode="!" horiz-adv-x="696" d="M98 133q0 82 66.5 147.5t152.5 65.5q66 0 108 -40.5t42 -102.5q0 -82 -66.5 -147.5t-152.5 -65.5q-65 0 -107.5 41t-42.5 102zM231 506l119 903h383l-258 -903h-244z" />
<glyph unicode="&#x22;" horiz-adv-x="919" d="M236 791l65 571q62 65 150 65t124 -65l-176 -571h-163zM633 791l63 571q65 65 154 65q84 0 123 -65l-176 -571h-164z" />
<glyph unicode="#" d="M113 440l18 154h188l56 258h-176l18 154h189l86 403h174l-84 -403h202l84 403h179l-86 -403h178l-21 -154h-188l-56 -258h177l-19 -154h-190l-90 -440h-179l95 440h-203l-94 -440h-176l94 440h-176zM496 594h202l56 258h-203z" />
<glyph unicode="$" d="M59 61l117 213q74 -51 201 -51q103 0 171 61.5t68 157.5q0 39 -19.5 72t-50 58.5t-68 50.5t-75 55t-68 64.5t-50 85t-19.5 112.5q0 74 27.5 151t80 147t142 120t201.5 63l28 246h179l-72 -244q157 -8 254 -75l-109 -193q-78 49 -190 49q-99 0 -157 -63t-58 -148 q0 -40 21 -73.5t54.5 -59t73.5 -51t80.5 -55.5t74 -65t54.5 -86.5t21 -113.5q0 -59 -15.5 -120t-51 -124.5t-87.5 -115t-132.5 -89.5t-178.5 -50l-29 -260h-182l72 254q-199 3 -308 77z" />
<glyph unicode="%" horiz-adv-x="1830" d="M186 752q0 96 28.5 216.5t70.5 211.5q115 250 331 250q66 0 114 -23.5t74.5 -66t38 -93t11.5 -112.5q0 -99 -27.5 -218.5t-70.5 -209.5q-120 -250 -330 -250q-67 0 -115 23.5t-74.5 66t-38.5 93t-12 112.5zM381 721q0 -109 65 -109q79 0 136 158q28 80 55 211t27 201 q0 112 -68 112q-83 0 -139 -178q-27 -83 -51.5 -205t-24.5 -190zM494 18l772 1412l149 -41l-772 -1409zM1057 272q0 96 29 216t71 212q116 252 332 252q235 0 235 -295q0 -100 -26.5 -220.5t-69.5 -209.5q-119 -247 -332 -247q-67 0 -115 23t-74 65t-38 92t-12 112z M1251 242q0 -109 68 -109q78 0 135 160q28 80 55 211t27 201q0 110 -68 110q-85 0 -141 -178q-27 -83 -51.5 -205t-24.5 -190z" />
<glyph unicode="&#x26;" horiz-adv-x="1339" d="M59 324q0 183 156 323q107 94 244 141v5q-170 72 -170 241q0 74 30.5 142.5t90 126t159.5 92.5t226 35q207 0 340 -82l-125 -177q-79 43 -181 43q-109 0 -167 -54.5t-58 -129.5q0 -61 49.5 -98t128.5 -37q216 0 566 160l53 -193q-105 -48 -236 -76l-149 -723 q-74 -38 -195 -60.5t-260 -22.5q-237 0 -369.5 91t-132.5 253zM399 352q0 -83 52.5 -127.5t154.5 -44.5q71 0 125 21l111 530q-250 -54 -346 -145q-46 -44 -71.5 -108t-25.5 -126z" />
<glyph unicode="'" horiz-adv-x="520" d="M236 791l63 571q62 65 152 65q88 0 124 -65l-176 -571h-163z" />
<glyph unicode="(" horiz-adv-x="827" d="M106 406q0 160 56 333t147 322q180 299 533 573l149 -84q-270 -293 -411 -606q-148 -330 -148 -655q0 -354 160 -674l-152 -84q-152 190 -243 422.5t-91 452.5z" />
<glyph unicode=")" horiz-adv-x="827" d="M-131 -383q274 297 412 604q147 328 147 656q0 353 -160 673l152 84q152 -190 243 -422t91 -452q0 -160 -56 -333.5t-147 -322.5q-180 -299 -533 -573z" />
<glyph unicode="*" horiz-adv-x="997" d="M244 1278q0 57 45 100t102 43q47 0 78 -29.5t31 -72.5q0 -58 -45 -100.5t-103 -42.5q-47 0 -77.5 29.5t-30.5 72.5zM289 944q0 56 44.5 98.5t102.5 42.5q47 0 78 -29.5t31 -72.5q0 -58 -45 -100.5t-103 -42.5q-47 0 -77.5 30.5t-30.5 73.5zM545 1188q0 46 36.5 81.5 t82.5 35.5q38 0 63 -24t25 -60q0 -46 -37 -80.5t-84 -34.5q-38 0 -62 23t-24 59zM569 1487q0 56 45 98.5t103 42.5q47 0 77.5 -29.5t30.5 -72.5q0 -58 -44.5 -101t-102.5 -43q-47 0 -78 31t-31 74zM664 944q0 56 44.5 98.5t102.5 42.5q47 0 78 -29.5t31 -72.5 q0 -58 -45 -100.5t-103 -42.5q-47 0 -77.5 30.5t-30.5 73.5zM829 1278q0 57 45.5 100t102.5 43q47 0 77.5 -29.5t30.5 -72.5q0 -58 -44.5 -100.5t-102.5 -42.5q-47 0 -78 29.5t-31 72.5z" />
<glyph unicode="+" d="M180 578l43 204h307l66 322h213l-66 -322h310l-43 -204h-310l-65 -324h-213l67 324h-309z" />
<glyph unicode="," horiz-adv-x="632" d="M-168 -346l309 590q86 96 207 96q60 0 89.5 -26t29.5 -70l-442 -590h-193z" />
<glyph unicode="-" horiz-adv-x="737" d="M113 569l49 234h536l-49 -234h-536z" />
<glyph unicode="." horiz-adv-x="583" d="M35 133q0 82 66.5 147.5t152.5 65.5q66 0 109 -40.5t43 -102.5q0 -82 -68 -147.5t-154 -65.5q-65 0 -107 41t-42 102z" />
<glyph unicode="/" horiz-adv-x="1052" d="M-205 -371l1170 2013l223 -102l-1170 -2013z" />
<glyph unicode="0" d="M109 440q0 157 47 339t123 319q184 332 485 332q82 0 147 -25t107 -67.5t69 -102t38.5 -125t11.5 -141.5q0 -157 -47.5 -340t-122.5 -320q-83 -150 -204.5 -239.5t-281.5 -89.5q-82 0 -147 25t-106.5 67.5t-68.5 102.5t-38.5 125t-11.5 140zM395 369q0 -181 113 -181 q126 0 215 230q48 125 88.5 320t40.5 315q0 182 -111 182q-126 0 -219 -244q-47 -123 -87 -313.5t-40 -308.5z" />
<glyph unicode="1" d="M279 999v199q189 23 322.5 83.5t186.5 127.5h234l-291 -1409h-325l223 1067q-52 -24 -149 -43t-201 -25z" />
<glyph unicode="2" d="M-53 0l624 694q83 91 138 179.5t55 175.5q0 71 -47 109t-142 38q-154 0 -270 -53l-37 205q81 37 190 59.5t220 22.5q216 0 322 -89.5t106 -230.5q0 -66 -23 -133t-66.5 -130t-84 -110t-96.5 -104l-363 -369h473l-53 -264h-946z" />
<glyph unicode="3" d="M-33 61l129 211q39 -23 107.5 -40t152.5 -17q72 0 131 23.5t95 62t55.5 84t19.5 92.5q0 94 -82.5 136.5t-222.5 39.5l35 170q165 15 265 87t100 175q0 56 -41.5 87.5t-122.5 31.5q-147 0 -279 -57l-37 201q175 82 410 82q188 0 293.5 -75.5t105.5 -203.5 q0 -67 -27.5 -129.5t-73 -109t-97.5 -80.5t-107 -54v-4q99 -32 162 -103t63 -179q0 -71 -23.5 -142t-74.5 -138t-123.5 -118.5t-179.5 -82.5t-233 -31q-117 0 -224.5 22.5t-175.5 58.5z" />
<glyph unicode="4" d="M45 279l39 188l743 942h316l-199 -958h107l-37 -172h-107l-55 -279h-303l59 279h-563zM287 451h356l94 448l49 209h-4q-53 -90 -141 -203z" />
<glyph unicode="5" d="M-14 61l127 211q42 -23 112 -40t148 -17q128 0 215.5 75.5t87.5 198.5q0 241 -483 195l223 725h737l-53 -262h-525l-83 -295q146 10 266.5 -30t191 -122.5t70.5 -191.5q0 -103 -44.5 -198t-124.5 -168.5t-202.5 -117.5t-267.5 -44q-117 0 -221.5 22t-173.5 59z" />
<glyph unicode="6" d="M94 375q0 152 67.5 311t172.5 295q81 104 185 188.5t203.5 135.5t183.5 80.5t151 39.5l37 -213q-49 -12 -97 -27.5t-114 -45.5t-123.5 -68.5t-118 -97.5t-106.5 -129q68 20 139 20q76 0 143.5 -18.5t123.5 -56t89 -103t33 -151.5q0 -68 -18 -140.5t-62 -147.5 t-107.5 -133.5t-164 -96t-222.5 -37.5q-103 0 -180.5 30.5t-123.5 85.5t-68.5 124.5t-22.5 154.5zM385 369q0 -183 137 -183q57 0 106 36t78.5 90.5t45.5 112.5t16 107q0 170 -195 170q-66 0 -120 -20q-31 -69 -49.5 -155t-18.5 -158z" />
<glyph unicode="7" d="M80 0l758 1147h-611l56 262h991l-266 -432q-178 -286 -321.5 -550.5t-211.5 -426.5h-395z" />
<glyph unicode="8" d="M57 283q0 66 22.5 126t56.5 105t87 89t100 74t109 64q-91 61 -136.5 126t-45.5 145q0 56 19 113t61 112t101 98t146 69t189 26q171 0 277 -81.5t106 -207.5q0 -71 -26.5 -134.5t-74.5 -113t-100.5 -86.5t-118.5 -72q103 -72 157 -147.5t54 -167.5q0 -62 -21 -123.5 t-66.5 -119t-110 -101t-159 -70t-206.5 -26.5q-115 0 -208.5 33t-152.5 103t-59 167zM342 324q0 -64 45 -106t117 -42q105 0 174.5 70.5t69.5 173.5q0 55 -31.5 103t-108.5 102q-57 -28 -100.5 -56.5t-83 -65.5t-61 -82.5t-21.5 -96.5zM524 1034q0 -50 29.5 -91t101.5 -95 q112 58 174 122t62 150q0 59 -38 95t-105 36q-97 0 -160.5 -64t-63.5 -153z" />
<glyph unicode="9" d="M147 195q47 10 96.5 26t114.5 46.5t123.5 69.5t119 98.5t106.5 129.5q-68 -20 -140 -20q-61 0 -117.5 12.5t-106 39.5t-86.5 65.5t-58 94t-21 122.5q0 71 20.5 145t66.5 147t111 130.5t163 93t213 35.5q104 0 181.5 -31t122.5 -86t67 -125t22 -154q0 -151 -64.5 -309.5 t-167.5 -290.5q-82 -106 -187 -192t-206 -138t-185 -82t-151 -40zM471 887q0 -80 48.5 -127t144.5 -47q66 0 120 20q30 64 50 155t20 165q0 178 -137 178q-61 0 -110.5 -37t-77.5 -92.5t-43 -111.5t-15 -103z" />
<glyph unicode=":" horiz-adv-x="583" d="M35 133q0 82 66.5 147.5t152.5 65.5q66 0 109 -40.5t43 -102.5q0 -82 -68 -147.5t-154 -65.5q-65 0 -107 41t-42 102zM168 772q0 82 67.5 148.5t153.5 66.5q66 0 108 -40.5t42 -102.5q0 -82 -68 -147.5t-154 -65.5q-65 0 -107 40t-42 101z" />
<glyph unicode=";" horiz-adv-x="632" d="M-168 -346l309 590q86 96 207 96q60 0 89.5 -26t29.5 -70l-442 -590h-193zM217 774q0 82 67.5 147.5t153.5 65.5q66 0 108 -40.5t42 -102.5q0 -82 -67.5 -147.5t-153.5 -65.5q-65 0 -107.5 41t-42.5 102z" />
<glyph unicode="&#x3c;" d="M172 588l39 188l903 350l-47 -231l-625 -219l535 -221l-45 -215z" />
<glyph unicode="=" d="M139 362l43 205h826l-41 -205h-828zM229 791l41 204h828l-43 -204h-826z" />
<glyph unicode="&#x3e;" d="M106 240l48 233l626 219l-534 221l43 213l760 -350l-39 -188z" />
<glyph unicode="?" horiz-adv-x="933" d="M190 133q0 82 67 147.5t153 65.5q66 0 108.5 -40.5t42.5 -102.5q0 -82 -67.5 -147.5t-153.5 -65.5q-65 0 -107.5 41t-42.5 102zM240 1348q171 82 370 82q194 0 300 -75.5t106 -211.5q0 -78 -32 -146t-88 -118t-121 -85.5t-140 -58.5l-70 -229h-241l32 325q42 9 81.5 22 t84 35t77 48.5t54 65.5t21.5 83q0 123 -172 123q-107 0 -217 -49z" />
<glyph unicode="@" horiz-adv-x="1794" d="M86 291q0 228 119 457t303 391q156 137 346 214t391 77q236 0 376 -121.5t140 -327.5q0 -138 -63.5 -300.5t-153.5 -285.5q-87 -119 -194 -190.5t-220 -71.5q-73 0 -108.5 41.5t-26.5 124.5q-80 -84 -159.5 -124t-169.5 -40q-107 0 -161 65.5t-54 170.5q0 123 68 263.5 t161 235.5q151 158 326 158q88 0 137.5 -43.5t64.5 -114.5l52 123h147l-215 -504q-47 -112 -47 -182q0 -22 11.5 -35.5t33.5 -13.5q57 0 128 60t136 157q74 111 123 243t49 249q0 168 -106 263t-291 95q-168 0 -330.5 -69.5t-300.5 -192.5q-165 -147 -271 -352t-106 -412 q0 -217 141.5 -337t385.5 -120q233 0 420 78t350 219l57 -92q-345 -313 -827 -313q-142 0 -262 36t-209.5 104.5t-140 175.5t-50.5 241zM614 395q0 -63 29.5 -98t83.5 -35q130 0 258 168q57 75 99 166.5t42 169.5q0 65 -32 101t-90 36q-116 0 -226 -129q-64 -74 -114 -182.5 t-50 -196.5z" />
<glyph unicode="A" horiz-adv-x="1265" d="M-90 0l749 1409h326l164 -1409h-328l-24 301h-422l-154 -301h-311zM463 492h330l-31 460q-3 42 -3.5 84.5t0.5 63.5l1 22h-4q-21 -76 -66 -170z" />
<glyph unicode="B" horiz-adv-x="1236" d="M43 61l266 1287q178 82 449 82q230 0 352.5 -85.5t122.5 -224.5q0 -135 -94 -240t-228 -137v-4q95 -25 160.5 -102t65.5 -182q0 -81 -36.5 -167.5t-94.5 -144.5q-163 -163 -523 -163q-294 0 -440 81zM387 199q54 -21 121 -21q161 0 237 98q31 40 49.5 98.5t18.5 112.5 q0 84 -60.5 124t-191.5 40q-2 0 -22.5 0.5t-38 0.5t-21.5 -1zM514 811q4 -1 21 -1t36 0.5t21 0.5q167 0 246 82q35 37 55 95t20 116q0 139 -184 139q-72 0 -131 -18z" />
<glyph unicode="C" horiz-adv-x="1009" d="M109 494q0 211 83.5 426t227.5 346q178 164 418 164q92 0 168.5 -22.5t119.5 -59.5l-114 -191q-55 35 -142 35q-140 0 -243 -131q-79 -98 -127.5 -254.5t-48.5 -292.5q0 -274 202 -274q51 0 101 13t80 30l28 -222q-53 -37 -135 -59t-176 -22q-111 0 -197 39.5t-139 110 t-79.5 162.5t-26.5 202z" />
<glyph unicode="D" horiz-adv-x="1271" d="M43 61l266 1287q188 82 422 82q134 0 234.5 -37t160.5 -105.5t89.5 -158t29.5 -201.5q0 -175 -64.5 -377.5t-168.5 -329.5q-200 -241 -561 -241q-125 0 -233 22t-175 59zM408 223q35 -14 92 -14q87 0 152 41.5t118 134.5q59 105 105.5 287.5t46.5 306.5 q0 120 -51.5 177.5t-159.5 57.5q-57 0 -103 -16z" />
<glyph unicode="E" horiz-adv-x="952" d="M33 0l291 1409h720l-45 -223h-389l-73 -359h340l-46 -217h-339l-80 -387h389l-47 -223h-721z" />
<glyph unicode="F" horiz-adv-x="937" d="M33 0l291 1409h720l-47 -223h-387l-73 -359h337l-45 -217h-337l-125 -610h-334z" />
<glyph unicode="G" horiz-adv-x="1257" d="M109 504q0 177 63.5 360t175.5 310q108 124 255.5 190t322.5 66q227 0 364 -82l-129 -193q-77 43 -207 43q-244 0 -381 -209q-62 -95 -98.5 -230.5t-36.5 -256.5q0 -141 58.5 -218t154.5 -77q75 0 115 20l82 402h-170l41 198h477l-158 -764q-160 -83 -407 -83 q-252 0 -387 139.5t-135 384.5z" />
<glyph unicode="H" horiz-adv-x="1296" d="M33 0l291 1409h333l-120 -582h356l121 582h332l-291 -1409h-332l125 610h-356l-125 -610h-334z" />
<glyph unicode="I" horiz-adv-x="616" d="M37 0l291 1409h334l-291 -1409h-334z" />
<glyph unicode="J" horiz-adv-x="616" d="M-270 -457l47 234q96 14 173.5 95t102.5 206l275 1331h334l-269 -1296q-28 -135 -90 -242t-149.5 -176t-194.5 -107.5t-229 -44.5z" />
<glyph unicode="K" horiz-adv-x="1228" d="M37 0l291 1409h331l-131 -635h4l486 635h346l-545 -659l273 -750h-363l-213 698h-4l-145 -698h-330z" />
<glyph unicode="L" horiz-adv-x="901" d="M37 0l291 1409h331l-243 -1186h358l-47 -223h-690z" />
<glyph unicode="M" horiz-adv-x="1650" d="M-18 0l440 1409h326l57 -807q3 -36 4 -74t-1 -58l-1 -19h4q22 69 63 151l404 807h324l-142 -1409h-305l100 821q4 39 11 83t12 68l4 25h-4q-29 -86 -74 -176l-411 -821h-166l-72 821q-4 40 -6 84t-2 68v24h-4q-10 -86 -37 -176l-242 -821h-282z" />
<glyph unicode="N" horiz-adv-x="1341" d="M33 0l291 1409h282l285 -721q13 -32 24.5 -66t16.5 -52l6 -19h4q7 67 23 141l147 717h279l-291 -1409h-244l-307 791q-13 33 -24.5 69.5t-16.5 57.5l-6 20h-4q-9 -76 -25 -154l-162 -784h-278z" />
<glyph unicode="O" horiz-adv-x="1290" d="M109 475q0 175 60.5 370.5t160.5 328.5q195 256 497 256q113 0 198 -36.5t136.5 -102.5t77 -153t25.5 -194q0 -176 -59 -377t-156 -334q-187 -253 -500 -253q-217 0 -328.5 133.5t-111.5 361.5zM434 428q0 -203 148 -203q136 0 231 215q49 110 89 283.5t40 284.5 q0 202 -141 202q-133 0 -232 -211q-51 -105 -93 -280t-42 -291z" />
<glyph unicode="P" horiz-adv-x="1185" d="M33 0l278 1348q189 82 443 82q235 0 350 -96t115 -255q0 -93 -36 -189t-96 -167q-168 -199 -512 -199q-55 0 -108 6l-109 -530h-325zM508 723q25 -4 78 -4q182 0 256 129q27 45 44 111.5t17 121.5q0 160 -180 160q-67 0 -113 -16z" />
<glyph unicode="Q" horiz-adv-x="1290" d="M109 475q0 175 60.5 370.5t160.5 328.5q193 256 497 256q113 0 198 -36.5t136.5 -102.5t77 -153t25.5 -194q0 -176 -59 -377t-156 -334q-73 -103 -185 -167l160 -267l-285 -211l-98 402q-48 -10 -92 -10q-217 0 -328.5 133.5t-111.5 361.5zM434 428q0 -203 148 -203 q136 0 231 215q49 110 89 283.5t40 284.5q0 202 -141 202q-74 0 -129.5 -55t-102.5 -156q-51 -105 -93 -280t-42 -291z" />
<glyph unicode="R" horiz-adv-x="1222" d="M37 0l278 1348q191 82 437 82q238 0 361.5 -93.5t123.5 -253.5q0 -167 -109 -295q-62 -71 -145.5 -116t-167.5 -54v-4l250 -614h-354l-213 629h-4l-132 -629h-325zM512 713q28 -8 74 -8q153 0 241 108q40 51 62 123t22 141q0 82 -46 122t-142 40q-57 0 -107 -16z" />
<glyph unicode="S" horiz-adv-x="995" d="M-27 61l121 220q31 -23 85.5 -39.5t117.5 -16.5q103 0 170.5 61t67.5 156q0 38 -19.5 70.5t-50.5 58t-68 50.5t-74.5 54.5t-68.5 64.5t-50.5 86.5t-19.5 113.5q0 64 19 130t61 131t102 115.5t150 82t197 31.5q197 0 319 -82l-110 -199q-80 53 -195 53q-97 0 -154 -62.5 t-57 -146.5q0 -39 21 -72.5t54.5 -59t73.5 -50.5t80.5 -55t74 -65t54.5 -87t21 -115q0 -65 -18 -132t-60.5 -135.5t-105 -121.5t-160 -86.5t-217.5 -33.5q-247 0 -361 81z" />
<glyph unicode="T" horiz-adv-x="954" d="M205 0l246 1186h-242l45 223h817l-45 -223h-244l-243 -1186h-334z" />
<glyph unicode="U" horiz-adv-x="1253" d="M106 326q0 33 11 94l205 989h331l-202 -987q-9 -52 -9 -64q0 -62 34.5 -93.5t96.5 -31.5q80 0 140 49.5t78 139.5l202 987h310l-207 -993q-42 -203 -198.5 -319.5t-373.5 -116.5q-186 0 -302 93t-116 253z" />
<glyph unicode="V" horiz-adv-x="1177" d="M203 1409h344l26 -844l-2 -162h4q27 86 62 162l383 844h326l-713 -1409h-295z" />
<glyph unicode="W" horiz-adv-x="1736" d="M233 1409h320l-27 -844q-1 -36 -4.5 -76.5t-6.5 -62.5l-3 -23h4q24 82 59 162l363 844h238l12 -844v-24q0 -25 -1 -51q-2 -40 -5 -64l-2 -23h4q20 84 51 162l330 844h309l-608 -1409h-295l-29 741v35v36q1 37 2 57l2 20h-4q-20 -70 -55 -148l-332 -741h-297z" />
<glyph unicode="X" horiz-adv-x="1150" d="M-88 0l528 727l-196 682h340l86 -430h4l289 430h329l-487 -653l223 -756h-354l-105 467h-4l-299 -467h-354z" />
<glyph unicode="Y" horiz-adv-x="1101" d="M197 1409h335l91 -532h4l323 532h328l-547 -817l-123 -592h-334l125 592z" />
<glyph unicode="Z" horiz-adv-x="974" d="M-63 0l679 1186h-389l47 223h805l-663 -1186h426l-45 -223h-860z" />
<glyph unicode="[" horiz-adv-x="759" d="M-61 -440l423 2048h545l-39 -181h-262l-348 -1685h262l-37 -182h-544z" />
<glyph unicode="\" horiz-adv-x="1218" d="M236 1538l225 96l553 -2013l-226 -96z" />
<glyph unicode="]" horiz-adv-x="759" d="M-115 -440l37 182h264l349 1685h-263l37 181h543l-424 -2048h-543z" />
<glyph unicode="^" horiz-adv-x="1263" d="M256 928l416 432q64 67 149 67q37 0 70 -17.5t51 -49.5l238 -432l-146 -123l-256 371l-411 -371z" />
<glyph unicode="_" d="M-211 -453l41 195h1192l-41 -195h-1192z" />
<glyph unicode="`" horiz-adv-x="524" d="M217 1503q36 51 141 51q99 0 148 -43l80 -292h-164z" />
<glyph unicode="a" horiz-adv-x="1181" d="M82 391q0 133 47 272.5t127 237.5q185 223 524 223q117 0 221 -23t166 -59l-202 -981q-172 -81 -428 -81q-217 0 -336 109t-119 302zM397 393q0 -211 172 -211q59 0 107 19l147 721q-36 18 -94 18q-144 0 -235 -164q-43 -78 -70 -185t-27 -198z" />
<glyph unicode="b" horiz-adv-x="1177" d="M31 61l321 1547h318l-111 -531q84 41 205 41q164 0 261 -105.5t97 -285.5q0 -129 -50 -276.5t-128 -245.5q-178 -225 -528 -225q-120 0 -225 21.5t-160 59.5zM377 188q37 -16 92 -16q148 0 236 158q42 76 73 198.5t31 212.5q0 195 -160 195q-70 0 -125 -25z" />
<glyph unicode="c" horiz-adv-x="876" d="M82 403q0 121 42.5 255.5t111.5 232.5q82 115 192.5 174t233.5 59q87 0 161 -25.5t105 -56.5l-103 -168q-46 37 -114 37q-133 0 -217 -147q-39 -68 -63.5 -164.5t-24.5 -177.5q0 -100 38 -153.5t105 -53.5q41 0 83 12.5t66 30.5l27 -197q-95 -81 -274 -81 q-163 0 -266 115t-103 308z" />
<glyph unicode="d" horiz-adv-x="1179" d="M80 393q0 126 45 263.5t119 234.5q83 111 200 169t256 58q97 0 160 -18l105 508h319l-321 -1547q-172 -81 -428 -81q-207 0 -331 107t-124 306zM395 393q0 -211 172 -211q67 0 107 19l151 727q-41 12 -84 12q-156 0 -247 -162q-43 -76 -71 -186t-28 -199z" />
<glyph unicode="e" horiz-adv-x="1128" d="M82 403q0 123 39.5 252t109.5 226q81 115 201 179t268 64q182 0 281.5 -102t99.5 -287q0 -93 -26 -200l-674 -93v-20q1 -100 47 -160q52 -66 168 -65q81 0 162 19t133 44l31 -199q-162 -81 -398 -81q-209 0 -325.5 111.5t-116.5 311.5zM385 596l399 59q15 61 15 113 q0 83 -35.5 126.5t-101.5 43.5q-68 0 -126 -45t-98 -127q-35 -72 -53 -170z" />
<glyph unicode="f" horiz-adv-x="733" d="M86 0l184 897h-118l41 207h122l23 113q21 104 67.5 182t111.5 123.5t140 67.5t162 22q57 0 88 -4l-41 -203q-8 1 -16 1q-63 0 -112 -35q-56 -39 -76 -132l-27 -135h168l-43 -207h-170l-184 -897h-320z" />
<glyph unicode="g" horiz-adv-x="1169" d="M-37 -379l121 199q45 -25 117.5 -41.5t148.5 -16.5q116 0 182.5 55t88.5 150l14 60q-72 -35 -191 -35q-168 0 -269 103.5t-101 283.5q0 124 47 263.5t121 238.5q182 243 528 243q120 0 220.5 -23.5t164.5 -58.5l-217 -1050q-48 -231 -197.5 -342t-378.5 -111 q-118 0 -226 23t-173 59zM387 365q0 -97 40 -144t128 -47q63 0 115 25l149 723q-41 18 -94 18q-158 0 -246 -184q-38 -77 -65 -191t-27 -200z" />
<glyph unicode="h" horiz-adv-x="1189" d="M18 0l334 1608h320l-113 -541q124 57 252 57q155 0 235 -72t80 -196q0 -38 -10 -90l-160 -766h-319l160 772q6 21 6 43q0 52 -32 83.5t-103 31.5q-72 0 -144 -35l-186 -895h-320z" />
<glyph unicode="i" horiz-adv-x="573" d="M23 0l229 1104h317l-227 -1104h-319zM303 1393q0 70 61.5 124t141.5 54q62 0 101.5 -35t39.5 -88q0 -71 -62 -125.5t-141 -54.5q-62 0 -101.5 36t-39.5 89z" />
<glyph unicode="j" horiz-adv-x="581" d="M-274 -457l47 219q218 60 274 330l211 1012h320l-203 -971q-55 -266 -224.5 -418t-424.5 -172zM309 1393q0 70 61.5 124t141.5 54q63 0 103 -35t40 -88q0 -71 -62.5 -125.5t-141.5 -54.5q-62 0 -102 36t-40 89z" />
<glyph unicode="k" horiz-adv-x="1130" d="M25 0l333 1608h316l-205 -990h4l410 486h327l-460 -506l270 -598h-352l-209 557h-4l-115 -557h-315z" />
<glyph unicode="l" horiz-adv-x="575" d="M25 0l333 1608h318l-334 -1608h-317z" />
<glyph unicode="m" horiz-adv-x="1808" d="M18 0l218 1042q203 82 464 82q105 0 190.5 -31t125.5 -79q61 47 164 78.5t231 31.5q163 0 248.5 -75.5t85.5 -202.5q0 -44 -8 -80l-158 -766h-319l161 776q4 28 4 41q0 50 -33 79.5t-100 29.5q-84 0 -153 -58l-181 -868h-319l162 778q4 28 4 39q0 52 -37.5 80.5 t-108.5 28.5q-68 0 -135 -23l-186 -903h-320z" />
<glyph unicode="n" horiz-adv-x="1189" d="M18 0l218 1042q199 82 475 82q214 0 314.5 -73.5t100.5 -204.5q0 -36 -10 -88l-158 -758h-317l158 772q6 24 6 45q0 49 -34 79t-105 30q-65 0 -140 -23l-188 -903h-320z" />
<glyph unicode="o" horiz-adv-x="1155" d="M80 387q0 122 41 259t108 235q79 117 197 180t268 63q192 0 296 -110t104 -295q0 -121 -42 -258t-108 -236q-164 -245 -467 -245q-192 0 -294.5 111t-102.5 296zM389 356q0 -159 119 -159q118 0 188 159q35 80 62.5 202.5t27.5 205.5q0 162 -118 162q-119 0 -191 -164 q-35 -78 -61.5 -199.5t-26.5 -206.5z" />
<glyph unicode="p" horiz-adv-x="1177" d="M-74 -440l307 1482q192 82 429 82q213 0 333.5 -106t120.5 -303q0 -123 -42.5 -257.5t-112.5 -232.5q-175 -241 -463 -241q-98 0 -160 20l-92 -444h-320zM375 188q27 -12 80 -12q171 0 260 180q38 76 64 186.5t26 196.5q0 197 -174 197q-53 0 -105 -18z" />
<glyph unicode="q" horiz-adv-x="1177" d="M74 375q0 124 47 265.5t121 240.5q185 243 538 243q228 0 385 -82l-307 -1482h-317l94 463q-83 -39 -199 -39q-176 0 -269 108.5t-93 282.5zM389 371q0 -195 162 -195q71 0 123 25l149 723q-36 16 -96 16q-145 0 -235 -166q-43 -78 -73 -195.5t-30 -207.5z" />
<glyph unicode="r" horiz-adv-x="741" d="M18 0l218 1042q192 82 473 82q67 0 131 -6l-105 -223q-56 21 -114 23q-5 0 -9 1q-52 0 -88 -16l-186 -903h-320z" />
<glyph unicode="s" horiz-adv-x="876" d="M-37 61l119 193q66 -51 184 -51q74 0 121 45.5t47 107.5q0 31 -16 56t-42 42.5t-57 35t-62.5 39t-57.5 47.5t-42 67.5t-16 93.5q0 73 29.5 142t84 124t140 88t187.5 33q177 0 299 -82l-109 -170q-63 48 -160 48q-66 0 -111.5 -41.5t-45.5 -102.5q0 -31 17.5 -56t45 -43.5 t61 -37t66.5 -40.5t60.5 -48.5t45 -67.5t17.5 -92q0 -81 -32 -154t-92.5 -131t-157 -92t-216.5 -34q-91 0 -175.5 23t-131.5 58z" />
<glyph unicode="t" horiz-adv-x="753" d="M141 227q0 31 11 84l118 586h-118l41 207h122l47 235l338 82l-67 -317h170l-43 -207h-170l-119 -573q-6 -24 -6 -48q0 -36 21 -56.5t61 -20.5q37 0 69 14l-38 -199q-62 -30 -164 -30q-138 0 -205.5 67t-67.5 176z" />
<glyph unicode="u" horiz-adv-x="1171" d="M84 262q0 62 10 111l154 731h319l-155 -754q-9 -40 -9 -53q0 -102 129 -102q81 0 136 22l184 887h319l-217 -1043q-172 -81 -462 -81q-205 0 -306.5 69t-101.5 213z" />
<glyph unicode="v" horiz-adv-x="1079" d="M158 1104h329l25 -635q1 -25 1 -48q-1 -17 -1 -33q-2 -38 -4 -62l-2 -25h4q18 80 59 168l295 635h307l-577 -1104h-311z" />
<glyph unicode="w" horiz-adv-x="1656" d="M172 1104h311v-635q0 -41 -3 -82t-6 -61l-3 -21h4q17 72 60 164l299 635h262l26 -635q1 -24 1 -46q-1 -17 -1 -33q-2 -36 -4 -60l-2 -25h4q21 84 54 162l272 637h289l-531 -1104h-297l-33 598q-1 15 -1 30q-1 20 1 42q2 38 6 60l3 22h-4q-19 -80 -54 -154l-286 -598h-293 z" />
<glyph unicode="x" horiz-adv-x="1075" d="M-84 0l467 571l-201 533h318l96 -322h4l240 322h307l-430 -518l233 -586h-336l-108 354h-4l-250 -354h-336z" />
<glyph unicode="y" horiz-adv-x="1081" d="M20 -440l269 440l-131 1104h331l19 -641v-25q0 -30 -2 -60q-2 -43 -5 -64l-3 -21h4q18 76 63 170l301 641h310l-818 -1544h-338z" />
<glyph unicode="z" horiz-adv-x="905" d="M-49 0l555 897h-332l41 207h733l-540 -897h362l-43 -207h-776z" />
<glyph unicode="{" horiz-adv-x="837" d="M94 600l35 164q79 2 136.5 41t76.5 125l70 338q18 85 58.5 147.5t91.5 99t121.5 58t136 28.5t147.5 7l-31 -156q-109 0 -169.5 -42.5t-80.5 -139.5l-70 -340q-26 -122 -87.5 -176.5t-157.5 -71.5v-4q149 -30 149 -186q0 -20 -8 -66l-68 -328q-8 -50 -8 -65 q0 -127 178 -127l-34 -162q-86 0 -157 15t-130.5 47t-93 90.5t-33.5 138.5q0 41 10 96l62 295q6 30 6 59q0 58 -42.5 85.5t-107.5 29.5z" />
<glyph unicode="|" horiz-adv-x="503" d="M-70 -440l424 2048h250l-424 -2048h-250z" />
<glyph unicode="}" horiz-adv-x="837" d="M-61 -256l32 162q112 0 170 42t78 138l70 340q25 120 87.5 178t160.5 74q-2 4 0 4q-65 13 -107.5 60.5t-42.5 123.5q0 30 6 64l70 334q8 46 8 61q0 65 -42 95t-138 30l33 158q82 0 151.5 -13.5t131 -44.5t97 -90t35.5 -141q0 -35 -10 -90l-61 -299q-6 -30 -6 -56 q0 -106 149 -110l-33 -164q-79 -2 -137.5 -43t-77.5 -131l-69 -332q-15 -74 -45 -131t-72 -94.5t-89.5 -63t-108 -38.5t-116.5 -18t-124 -5z" />
<glyph unicode="~" horiz-adv-x="1261" d="M201 735q113 176 291 176q54 0 107 -20t88.5 -44.5t84 -44.5t94.5 -20q142 0 234 148l51 -203q-43 -81 -117 -124.5t-168 -43.5q-54 0 -106 20t-87.5 43.5t-84.5 43.5t-96 20q-148 0 -242 -151z" />
<glyph unicode="&#xa1;" horiz-adv-x="696" d="M-29 -440l256 903h244l-119 -903h-381zM236 764q0 82 66.5 148.5t152.5 66.5q66 0 108.5 -40.5t42.5 -102.5q0 -82 -67.5 -147.5t-153.5 -65.5q-65 0 -107 40t-42 101z" />
<glyph unicode="&#xa2;" d="M244 582q0 124 47.5 250t130.5 212q119 122 283 150l22 215h188l-61 -209q61 -5 115.5 -22t83.5 -41l-95 -156q-47 35 -122 35q-109 0 -183 -96q-46 -59 -73 -151.5t-27 -174.5q0 -174 156 -174q87 0 137 37l31 -174q-86 -58 -232 -66l-22 -217h-193l74 229 q-120 25 -190 117.5t-70 235.5z" />
<glyph unicode="&#xa3;" d="M37 0q119 109 209 242t114 250q17 78 11 153h-201l37 184h149q-7 111 15 224q17 78 57 145t103 119.5t156 82.5t206 30q101 0 194.5 -24t145.5 -56l-109 -191q-31 17 -85 31t-115 14q-110 0 -178 -61t-91 -168q-14 -64 -8 -146h279l-39 -184h-248q0 -49 -16 -135 q-12 -62 -51.5 -138t-67.5 -108h518l-55 -264h-930z" />
<glyph unicode="&#xa4;" d="M70 324l168 143q-43 81 -43 176q0 82 33.5 161.5t90.5 143.5l-120 148l116 98l121 -145q115 70 244 73q132 3 231 -73l168 143l99 -111l-168 -145q41 -74 41 -168q0 -168 -125 -309l121 -150l-119 -96l-121 147q-119 -72 -242 -75q-135 -3 -231 71l-168 -143zM406 666 q0 -76 51 -127t129 -50q100 2 176 78t76 176q0 78 -50.5 129t-128.5 50q-100 -2 -176.5 -79t-76.5 -177z" />
<glyph unicode="&#xa5;" d="M90 504l27 135l327 -14l-47 168l-252 -17l29 135l199 -16l-135 514h317l96 -545l4 -2l336 547h301l-350 -514l205 16l-29 -135l-244 17l-114 -168l330 14l-27 -135l-332 16l-106 -520h-303l106 520z" />
<glyph unicode="&#xa6;" horiz-adv-x="503" d="M-70 -440l168 817h250l-168 -817h-250zM184 788l170 820h250l-170 -820h-250z" />
<glyph unicode="&#xa7;" d="M41 -377l109 187q27 -24 76.5 -41t105.5 -17q74 0 123 41.5t49 110.5q0 57 -55 112l-187 187q-121 121 -121 264q0 76 22.5 141t66 117t95.5 92.5t121 79.5q-59 68 -59 170q0 149 115 256t303 107q90 0 167 -24t128 -60l-101 -164q-79 51 -168 51q-69 0 -115 -42 t-46 -110q0 -59 71 -133l166 -168q121 -124 121 -252q0 -72 -25 -135.5t-71 -114t-97.5 -89.5t-117.5 -76q78 -93 78 -199q0 -160 -124.5 -267.5t-322.5 -107.5q-193 0 -307 84zM385 543q0 -84 64 -148l149 -149q82 47 127 99.5t45 131.5q0 80 -61 141l-154 158 q-170 -94 -170 -233z" />
<glyph unicode="&#xa8;" horiz-adv-x="524" d="M96 1335q0 60 50.5 106t115.5 46q50 0 83.5 -31t33.5 -76q0 -57 -50 -103t-118 -46q-49 0 -82 30t-33 74zM498 1335q0 60 49.5 106t114.5 46q50 0 83 -31t33 -76q0 -57 -50 -103t-118 -46q-49 0 -80.5 29.5t-31.5 74.5z" />
<glyph unicode="&#xa9;" horiz-adv-x="1656" d="M125 590q0 109 33 216.5t91.5 199.5t140 171t176 134.5t202.5 87t217 31.5q133 0 250 -47.5t199 -130t129 -196t47 -241.5q0 -131 -46.5 -257.5t-129.5 -229.5t-190 -182t-235.5 -122.5t-258.5 -43.5q-178 0 -321.5 80t-223.5 219.5t-80 310.5zM258 602 q0 -215 141.5 -357.5t364.5 -142.5q109 0 216 37t195.5 104t157 154t106.5 193.5t38 216.5q0 215 -140.5 358.5t-363.5 143.5q-137 0 -268.5 -58.5t-229.5 -154.5t-157.5 -226.5t-59.5 -267.5zM444 641q0 126 70.5 240.5t186 183t241.5 68.5q193 0 297 -150l-106 -82 q-82 105 -201 105q-134 0 -240 -107.5t-106 -241.5q0 -103 66 -171t171 -68q63 0 125 28.5t111 77.5l98 -86q-163 -151 -352 -151q-158 0 -259.5 101t-101.5 253z" />
<glyph unicode="&#xaa;" horiz-adv-x="808" d="M172 944q0 87 30 178t83 156q119 147 348 147q165 0 258 -57l-131 -643q-117 -55 -285 -55q-144 0 -223.5 73t-79.5 201zM391 944q0 -131 105 -131q35 0 63 12l94 457q-20 8 -55 8q-86 0 -145 -102q-28 -51 -45 -118.5t-17 -125.5z" />
<glyph unicode="&#xab;" horiz-adv-x="1112" d="M123 692l387 469l168 -100l-324 -389l152 -369l-184 -94zM569 692l387 469l168 -100l-321 -389l151 -369l-184 -94z" />
<glyph unicode="&#xac;" d="M162 578l43 204h831l-106 -512h-211l63 308h-620z" />
<glyph unicode="&#xad;" horiz-adv-x="737" d="M113 569l49 234h536l-49 -234h-536z" />
<glyph unicode="&#xae;" horiz-adv-x="1656" d="M125 590q0 109 33 216.5t91.5 199.5t140 171t176 134.5t202.5 87t217 31.5q133 0 250 -47.5t199 -130t129 -196t47 -241.5q0 -131 -46.5 -257.5t-129.5 -229.5t-190 -182t-235.5 -122.5t-258.5 -43.5q-178 0 -321.5 80t-223.5 219.5t-80 310.5zM258 602 q0 -215 141.5 -357.5t364.5 -142.5q109 0 216 37t195.5 104t157 154t106.5 193.5t38 216.5q0 215 -140.5 358.5t-363.5 143.5q-137 0 -268.5 -58.5t-229.5 -154.5t-157.5 -226.5t-59.5 -267.5zM537 303l165 799q106 49 228 49q121 0 188.5 -57.5t67.5 -143.5 q0 -101 -75.5 -179t-201.5 -99l187 -369h-160l-168 356h-18l-74 -356h-139zM768 750h66q102 0 157.5 56t55.5 136q0 98 -140 98q-42 0 -82 -12z" />
<glyph unicode="&#xaf;" horiz-adv-x="524" d="M90 1280l35 164h663l-34 -164h-664z" />
<glyph unicode="&#xb0;" horiz-adv-x="864" d="M225 1049q0 94 53 182.5t145.5 144.5t197.5 56q118 0 193 -73.5t75 -184.5q0 -67 -28.5 -135t-78 -123.5t-124.5 -90t-160 -34.5q-118 0 -195.5 73.5t-77.5 184.5zM383 1075q0 -58 37.5 -96.5t97.5 -38.5q82 0 147.5 64t65.5 145q0 60 -36.5 99.5t-98.5 39.5 q-83 0 -148 -65t-65 -148z" />
<glyph unicode="&#xb1;" d="M92 137l39 189h827l-38 -189h-828zM215 739l41 189h307l64 305h211l-64 -305h309l-39 -189h-307l-65 -305h-211l63 305h-309z" />
<glyph unicode="&#xb2;" horiz-adv-x="806" d="M70 543l407 450q96 108 96 183q0 81 -112 81q-78 0 -158 -32l-24 145q115 53 258 53q133 0 201.5 -55t68.5 -145q0 -43 -14 -84t-43.5 -82t-52.5 -67t-64 -68l-195 -197h285l-37 -182h-616z" />
<glyph unicode="&#xb3;" horiz-adv-x="806" d="M100 586l88 147q61 -37 164 -37q78 0 122 42.5t44 101.5q0 101 -184 94l24 125q99 6 159.5 43.5t60.5 95.5q0 32 -26.5 51t-78.5 19q-74 0 -156 -35l-26 137q112 53 262 53q115 0 181.5 -48t66.5 -132q0 -141 -166 -211q55 -23 88 -68t33 -106q0 -62 -23.5 -118.5 t-70 -104.5t-127 -76.5t-183.5 -28.5q-158 0 -252 56z" />
<glyph unicode="&#xb4;" horiz-adv-x="524" d="M211 1219l201 292q73 43 180 43q112 0 129 -51l-326 -284h-184z" />
<glyph unicode="&#xb5;" horiz-adv-x="1177" d="M-72 -440l320 1544h319l-184 -893q19 -13 59.5 -25t77.5 -12q95 0 150 25l188 905h320l-217 -1043q-166 -81 -381 -81q-62 0 -128.5 17.5t-105.5 39.5l-98 -477h-320z" />
<glyph unicode="&#xb6;" d="M182 938q0 64 16.5 126.5t58 126t104 111t162.5 77.5t225 30h530l-29 -141h-73l-355 -1708h-194l354 1708h-205l-356 -1708h-193l217 1048q-124 27 -193 116.5t-69 213.5z" />
<glyph unicode="&#xb7;" horiz-adv-x="577" d="M145 670q0 82 67 147.5t153 65.5q66 0 108.5 -41t42.5 -103q0 -82 -67.5 -147.5t-153.5 -65.5q-65 0 -107.5 41.5t-42.5 102.5z" />
<glyph unicode="&#xb8;" horiz-adv-x="524" d="M-219 -420l76 98q50 -4 108 -4q111 0 165 21t54 57q0 47 -129 47q-40 0 -106 -4l71 88q105 6 121 6q250 0 250 -118q0 -90 -104 -144.5t-310 -54.5q-94 0 -196 8z" />
<glyph unicode="&#xb9;" horiz-adv-x="806" d="M266 1145v133q116 13 202.5 50.5t121.5 80.5h158l-179 -866h-223l131 633q-83 -25 -211 -31z" />
<glyph unicode="&#xba;" horiz-adv-x="808" d="M172 948q0 94 36.5 193.5t98.5 165.5q109 118 281 118q135 0 207.5 -75t72.5 -201q0 -93 -35.5 -190.5t-95.5 -163.5q-112 -125 -284 -125q-135 0 -208 76t-73 202zM385 922q0 -103 82 -103q71 0 117 78q29 52 51 141t22 150q0 102 -82 102q-68 0 -116 -78 q-30 -49 -52 -138.5t-22 -151.5z" />
<glyph unicode="&#xbb;" horiz-adv-x="1112" d="M61 309l324 387l-154 369l185 96l198 -485l-387 -467zM508 309l323 387l-153 369l186 96l199 -485l-387 -467z" />
<glyph unicode="&#xbc;" horiz-adv-x="1751" d="M207 1145v133q116 13 202 50.5t121 80.5h158l-178 -866h-223l131 633q-83 -25 -211 -31zM332 12l934 1456l157 -69l-936 -1456zM922 170l26 131l455 565h215l-119 -571h66l-27 -125h-65l-35 -170h-209l35 170h-342zM1079 295h209l51 248l29 125h-4q-41 -66 -90 -127z" />
<glyph unicode="&#xbd;" horiz-adv-x="1751" d="M209 1145v133q115 13 200.5 50t120.5 81h158l-178 -866h-221l129 633q-83 -25 -209 -31zM299 12l934 1456l158 -69l-936 -1456zM895 0l408 451q96 108 96 182q0 82 -113 82q-74 0 -141 -29l-25 145q109 50 244 50q133 0 200.5 -55t67.5 -146q0 -43 -14 -84t-43.5 -82 t-52.5 -67t-64 -68l-194 -197h284l-37 -182h-616z" />
<glyph unicode="&#xbe;" horiz-adv-x="1751" d="M92 586l88 147q61 -37 164 -37q78 0 122 42.5t44 101.5q0 101 -184 94l24 125q99 6 159 43.5t60 95.5q0 32 -26 51t-78 19q-74 0 -156 -35l-26 137q112 53 262 53q115 0 181.5 -48t66.5 -132q0 -141 -166 -211q55 -23 88 -68t33 -106q0 -62 -23.5 -118.5t-70 -104.5 t-127 -76.5t-183.5 -28.5q-158 0 -252 56zM414 12l934 1456l159 -69l-936 -1456zM942 170l27 131l454 565h213l-118 -571h65l-24 -125h-66l-35 -170h-211l37 170h-342zM1100 295h207l53 248l29 125h-5q-41 -66 -90 -127z" />
<glyph unicode="&#xbf;" horiz-adv-x="933" d="M-68 -170q0 78 32 146t88 118t121 85.5t140 58.5l70 229h242l-35 -326q-42 -9 -81.5 -22t-83.5 -35t-76 -48.5t-53.5 -65.5t-21.5 -83q0 -125 172 -125q101 0 218 52l45 -189q-171 -82 -371 -82q-194 0 -300 75.5t-106 211.5zM387 772q0 82 66.5 147.5t152.5 65.5 q66 0 109 -40.5t43 -102.5q0 -82 -67.5 -147.5t-153.5 -65.5q-65 0 -107.5 41t-42.5 102z" />
<glyph unicode="&#xc0;" horiz-adv-x="1265" d="M-90 0l749 1409h326l164 -1409h-328l-24 301h-422l-154 -301h-311zM463 492h330l-31 460q-3 42 -3.5 84.5t0.5 63.5l1 22h-4q-21 -76 -66 -170zM569 1800q18 25 57 38t85 13q98 0 147 -43l80 -292h-164z" />
<glyph unicode="&#xc1;" horiz-adv-x="1265" d="M-90 0l749 1409h326l164 -1409h-328l-24 301h-422l-154 -301h-311zM463 492h330l-31 460q-3 42 -3.5 84.5t0.5 63.5l1 22h-4q-21 -76 -66 -170zM723 1516l201 292q73 43 180 43q112 0 129 -51l-326 -284h-184z" />
<glyph unicode="&#xc2;" horiz-adv-x="1265" d="M-90 0l749 1409h326l164 -1409h-328l-24 301h-422l-154 -301h-311zM463 492h330l-31 460q-3 42 -3.5 84.5t0.5 63.5l1 22h-4q-21 -76 -66 -170zM549 1575l260 217q48 39 98 39q51 0 82 -39l170 -217l-96 -80l-184 156l-250 -156z" />
<glyph unicode="&#xc3;" horiz-adv-x="1265" d="M-90 0l749 1409h326l164 -1409h-328l-24 301h-422l-154 -301h-311zM463 492h330l-31 460q-3 42 -3.5 84.5t0.5 63.5l1 22h-4q-21 -76 -66 -170zM539 1653q72 121 198 121q46 0 89.5 -21t83 -42t75.5 -21q43 0 80 23.5t61 62.5l60 -136q-26 -50 -79 -82t-110 -32 q-48 0 -91 21t-83 42t-80 21q-86 0 -145 -94z" />
<glyph unicode="&#xc4;" horiz-adv-x="1265" d="M-90 0l749 1409h326l164 -1409h-328l-24 301h-422l-154 -301h-311zM463 492h330l-31 460q-3 42 -3.5 84.5t0.5 63.5l1 22h-4q-21 -76 -66 -170zM530 1626q0 60 50.5 106t115.5 46q50 0 83.5 -31t33.5 -76q0 -57 -50 -103t-118 -46q-49 0 -82 30.5t-33 73.5zM932 1626 q0 60 49.5 106t114.5 46q50 0 83 -31t33 -76q0 -57 -50 -103t-118 -46q-49 0 -80.5 30t-31.5 74z" />
<glyph unicode="&#xc5;" horiz-adv-x="1265" d="M-90 0l749 1409h326l164 -1409h-328l-24 301h-422l-154 -301h-311zM463 492h330l-31 460q-3 42 -3.5 84.5t0.5 63.5l1 22h-4q-21 -76 -66 -170zM692 1651q0 81 63 148t154 67q65 0 108.5 -43t43.5 -107q0 -80 -59 -146.5t-156 -66.5q-66 0 -110 43t-44 105zM793 1665 q0 -30 18 -50t47 -20q44 0 73.5 35t29.5 76q0 30 -17 49t-47 19q-42 0 -73 -35t-31 -74z" />
<glyph unicode="&#xc6;" horiz-adv-x="1542" d="M-102 0l776 1409h823l-45 -223h-453l39 -359h348l-45 -217h-282l43 -387h330l-48 -223h-571l-22 301h-429l-155 -301h-309zM463 498h325l-30 477q-2 32 -2 66.5t1 53.5l1 19h-4q-17 -67 -54 -141z" />
<glyph unicode="&#xc7;" horiz-adv-x="1009" d="M80 -420l76 98q50 -4 108 -4q111 0 165 21t54 57q0 47 -129 47q-40 0 -106 -4l71 88q105 6 121 6q250 0 250 -118q0 -90 -104 -144.5t-310 -54.5q-94 0 -196 8zM109 494q0 211 83.5 426t227.5 346q178 164 418 164q92 0 168.5 -22.5t119.5 -59.5l-114 -191 q-55 35 -142 35q-140 0 -243 -131q-79 -98 -127.5 -254.5t-48.5 -292.5q0 -274 202 -274q51 0 101 13t80 30l28 -222q-53 -37 -135 -59t-176 -22q-111 0 -197 39.5t-139 110t-79.5 162.5t-26.5 202z" />
<glyph unicode="&#xc8;" horiz-adv-x="952" d="M33 0l291 1409h720l-45 -223h-389l-73 -359h340l-46 -217h-339l-80 -387h389l-47 -223h-721zM469 1800q36 51 141 51q99 0 148 -43l80 -292h-164z" />
<glyph unicode="&#xc9;" horiz-adv-x="952" d="M33 0l291 1409h720l-45 -223h-389l-73 -359h340l-46 -217h-339l-80 -387h389l-47 -223h-721zM565 1516l201 292q73 43 180 43q112 0 129 -51l-325 -284h-185z" />
<glyph unicode="&#xca;" horiz-adv-x="952" d="M33 0l291 1409h720l-45 -223h-389l-73 -359h340l-46 -217h-339l-80 -387h389l-47 -223h-721zM397 1575l260 217q48 39 99 39q54 0 82 -39l170 -217l-97 -80l-184 156l-250 -156z" />
<glyph unicode="&#xcb;" horiz-adv-x="952" d="M33 0l291 1409h720l-45 -223h-389l-73 -359h340l-46 -217h-339l-80 -387h389l-47 -223h-721zM387 1626q0 60 50.5 106t115.5 46q50 0 83.5 -31t33.5 -76q0 -57 -50 -103t-118 -46q-49 0 -82 30.5t-33 73.5zM788 1626q0 60 49.5 106t114.5 46q50 0 83.5 -31t33.5 -76 q0 -57 -50 -103t-118 -46q-49 0 -81 30.5t-32 73.5z" />
<glyph unicode="&#xcc;" horiz-adv-x="616" d="M37 0l291 1409h334l-291 -1409h-334zM289 1800q36 51 141 51q99 0 148 -43l79 -292h-163z" />
<glyph unicode="&#xcd;" horiz-adv-x="616" d="M37 0l291 1409h334l-291 -1409h-334zM367 1516l200 292q73 43 181 43q112 0 129 -51l-326 -284h-184z" />
<glyph unicode="&#xce;" horiz-adv-x="616" d="M37 0l291 1409h334l-291 -1409h-334zM219 1575l260 217q48 39 99 39q50 0 81 -39l170 -217l-96 -80l-184 156l-250 -156z" />
<glyph unicode="&#xcf;" horiz-adv-x="616" d="M37 0l291 1409h334l-291 -1409h-334zM203 1626q0 60 50.5 106t115.5 46q50 0 83 -31t33 -76q0 -57 -50 -103t-118 -46q-49 0 -81.5 30t-32.5 74zM604 1626q0 60 49.5 106t114.5 46q50 0 83.5 -31t33.5 -76q0 -57 -50 -103t-118 -46q-49 0 -81 29.5t-32 74.5z" />
<glyph unicode="&#xd0;" horiz-adv-x="1320" d="M86 63l123 592h-103l39 193h103l104 500q199 82 428 82q135 0 235.5 -38t160.5 -108t89 -160.5t29 -201.5q0 -179 -67.5 -385t-177.5 -332q-198 -225 -553 -225q-125 0 -235.5 23t-174.5 60zM440 219q40 -14 99 -14q89 0 157 40.5t123 129.5q62 104 108 283t46 307 q0 129 -53.5 190.5t-167.5 61.5q-56 0 -109 -17l-72 -352h164l-39 -193h-166z" />
<glyph unicode="&#xd1;" horiz-adv-x="1341" d="M33 0l291 1409h282l285 -721q13 -32 24.5 -66t16.5 -52l6 -19h4q7 67 23 141l147 717h279l-291 -1409h-244l-307 791q-13 33 -24.5 69.5t-16.5 57.5l-6 20h-4q-9 -76 -25 -154l-162 -784h-278zM569 1653q72 121 199 121q46 0 89.5 -21t83 -42t75.5 -21q43 0 80 23.5 t61 62.5l60 -136q-26 -50 -79 -82t-110 -32q-48 0 -91 21t-83 42t-80 21q-86 0 -145 -94z" />
<glyph unicode="&#xd2;" horiz-adv-x="1290" d="M109 475q0 175 60.5 370.5t160.5 328.5q195 256 497 256q113 0 198 -36.5t136.5 -102.5t77 -153t25.5 -194q0 -176 -59 -377t-156 -334q-187 -253 -500 -253q-217 0 -328.5 133.5t-111.5 361.5zM434 428q0 -203 148 -203q136 0 231 215q49 110 89 283.5t40 284.5 q0 202 -141 202q-133 0 -232 -211q-51 -105 -93 -280t-42 -291zM623 1800q36 51 141 51q98 0 147 -43l80 -292h-164z" />
<glyph unicode="&#xd3;" horiz-adv-x="1290" d="M109 475q0 175 60.5 370.5t160.5 328.5q195 256 497 256q113 0 198 -36.5t136.5 -102.5t77 -153t25.5 -194q0 -176 -59 -377t-156 -334q-187 -253 -500 -253q-217 0 -328.5 133.5t-111.5 361.5zM434 428q0 -203 148 -203q136 0 231 215q49 110 89 283.5t40 284.5 q0 202 -141 202q-133 0 -232 -211q-51 -105 -93 -280t-42 -291zM707 1516l200 292q73 43 180 43q113 0 130 -51l-326 -284h-184z" />
<glyph unicode="&#xd4;" horiz-adv-x="1290" d="M109 475q0 175 60.5 370.5t160.5 328.5q195 256 497 256q113 0 198 -36.5t136.5 -102.5t77 -153t25.5 -194q0 -176 -59 -377t-156 -334q-187 -253 -500 -253q-217 0 -328.5 133.5t-111.5 361.5zM434 428q0 -203 148 -203q136 0 231 215q49 110 89 283.5t40 284.5 q0 202 -141 202q-133 0 -232 -211q-51 -105 -93 -280t-42 -291zM555 1575l260 217q48 39 98 39q51 0 82 -39l170 -217l-96 -80l-184 156l-250 -156z" />
<glyph unicode="&#xd5;" horiz-adv-x="1290" d="M109 475q0 175 60.5 370.5t160.5 328.5q195 256 497 256q113 0 198 -36.5t136.5 -102.5t77 -153t25.5 -194q0 -176 -59 -377t-156 -334q-187 -253 -500 -253q-217 0 -328.5 133.5t-111.5 361.5zM434 428q0 -203 148 -203q136 0 231 215q49 110 89 283.5t40 284.5 q0 202 -141 202q-133 0 -232 -211q-51 -105 -93 -280t-42 -291zM561 1653q72 121 199 121q46 0 89.5 -21t83 -42t75.5 -21q43 0 80 23.5t61 62.5l59 -136q-26 -50 -78.5 -82t-109.5 -32q-48 0 -91 21t-83 42t-80 21q-86 0 -145 -94z" />
<glyph unicode="&#xd6;" horiz-adv-x="1290" d="M109 475q0 175 60.5 370.5t160.5 328.5q195 256 497 256q113 0 198 -36.5t136.5 -102.5t77 -153t25.5 -194q0 -176 -59 -377t-156 -334q-187 -253 -500 -253q-217 0 -328.5 133.5t-111.5 361.5zM434 428q0 -203 148 -203q136 0 231 215q49 110 89 283.5t40 284.5 q0 202 -141 202q-133 0 -232 -211q-51 -105 -93 -280t-42 -291zM539 1626q0 60 50.5 106t115.5 46q50 0 83 -31t33 -76q0 -57 -50 -103t-118 -46q-49 0 -81.5 30t-32.5 74zM940 1626q0 60 49.5 106t114.5 46q50 0 83.5 -31t33.5 -76q0 -57 -50 -103t-118 -46q-49 0 -81 29.5 t-32 74.5z" />
<glyph unicode="&#xd7;" d="M88 166l37 174h831l-36 -174h-832zM147 451l41 196l621 189l-543 186l37 182l770 -295l-33 -161z" />
<glyph unicode="&#xd8;" horiz-adv-x="1290" d="M4 -20l172 202q-65 121 -65 293q0 175 60.5 370.5t160.5 328.5q195 256 499 256q194 0 306 -109l149 176l76 -67l-162 -191q66 -117 66 -295q0 -176 -59 -377t-156 -334q-187 -253 -500 -253q-201 0 -313 118l-156 -184zM422 475l534 631q-27 131 -145 131 q-151 0 -254 -225q-117 -252 -135 -537zM428 326q30 -127 152 -127q151 0 254 229q52 116 86.5 258.5t42.5 269.5z" />
<glyph unicode="&#xd9;" horiz-adv-x="1253" d="M106 326q0 33 11 94l205 989h331l-202 -987q-9 -52 -9 -64q0 -62 34.5 -93.5t96.5 -31.5q80 0 140 49.5t78 139.5l202 987h310l-207 -993q-42 -203 -198.5 -319.5t-373.5 -116.5q-186 0 -302 93t-116 253zM629 1800q36 51 141 51q99 0 148 -43l79 -292h-163z" />
<glyph unicode="&#xda;" horiz-adv-x="1253" d="M106 326q0 33 11 94l205 989h331l-202 -987q-9 -52 -9 -64q0 -62 34.5 -93.5t96.5 -31.5q80 0 140 49.5t78 139.5l202 987h310l-207 -993q-42 -203 -198.5 -319.5t-373.5 -116.5q-186 0 -302 93t-116 253zM694 1516l201 292q73 43 180 43q112 0 129 -51l-325 -284h-185z " />
<glyph unicode="&#xdb;" horiz-adv-x="1253" d="M106 326q0 33 11 94l205 989h331l-202 -987q-9 -52 -9 -64q0 -62 34.5 -93.5t96.5 -31.5q80 0 140 49.5t78 139.5l202 987h310l-207 -993q-42 -203 -198.5 -319.5t-373.5 -116.5q-186 0 -302 93t-116 253zM549 1575l260 217q48 39 98 39q51 0 82 -39l170 -217l-96 -80 l-184 156l-250 -156z" />
<glyph unicode="&#xdc;" horiz-adv-x="1253" d="M106 326q0 33 11 94l205 989h331l-202 -987q-9 -52 -9 -64q0 -62 34.5 -93.5t96.5 -31.5q80 0 140 49.5t78 139.5l202 987h310l-207 -993q-42 -203 -198.5 -319.5t-373.5 -116.5q-186 0 -302 93t-116 253zM532 1626q0 60 50.5 106t115.5 46q50 0 83.5 -31t33.5 -76 q0 -57 -50 -103t-118 -46q-49 0 -82 30t-33 74zM934 1626q0 60 49.5 106t114.5 46q50 0 83 -31t33 -76q0 -57 -50 -103t-117 -46q-49 0 -81 29.5t-32 74.5z" />
<glyph unicode="&#xdd;" horiz-adv-x="1101" d="M197 1409h335l91 -532h4l323 532h328l-547 -817l-123 -592h-334l125 592zM643 1516l201 292q73 43 180 43q112 0 129 -51l-326 -284h-184z" />
<glyph unicode="&#xde;" horiz-adv-x="1185" d="M33 0l291 1409h325l-49 -229q74 16 131 16q202 0 318 -88t116 -254q0 -95 -35.5 -192.5t-95.5 -169.5q-165 -199 -508 -199q-62 0 -106 6l-64 -299h-323zM459 494q25 -5 69 -5q167 0 248 113q33 45 52.5 109.5t19.5 124.5q0 170 -189 170q-53 0 -96 -11z" />
<glyph unicode="&#xdf;" horiz-adv-x="1247" d="M25 0l213 1034q26 125 77 230.5t125 187.5t178 128t226 46q183 0 287 -104.5t104 -270.5q0 -154 -80 -311q-42 -7 -76.5 -19t-65.5 -33t-49 -54t-18 -76q0 -36 19.5 -69.5t48 -62t56.5 -60.5t47.5 -79t19.5 -104q0 -76 -30.5 -146.5t-86.5 -127.5t-144.5 -91t-195.5 -34 q-69 0 -128 17t-91 44l92 201q41 -29 111 -29t116.5 44t46.5 112q0 36 -18 69t-44 59.5t-52 56t-44 72t-18 93.5q0 100 66 176.5t166 116.5q25 49 39 119t14 131q0 147 -117 147q-90 0 -158 -88t-104 -264l-219 -1061h-313z" />
<glyph unicode="&#xe0;" horiz-adv-x="1181" d="M82 391q0 133 47 272.5t127 237.5q185 223 524 223q117 0 221 -23t166 -59l-202 -981q-172 -81 -428 -81q-217 0 -336 109t-119 302zM397 393q0 -211 172 -211q59 0 107 19l147 721q-36 18 -94 18q-144 0 -235 -164q-43 -78 -70 -185t-27 -198zM557 1503q36 51 141 51 q99 0 148 -43l80 -292h-164z" />
<glyph unicode="&#xe1;" horiz-adv-x="1181" d="M82 391q0 133 47 272.5t127 237.5q185 223 524 223q117 0 221 -23t166 -59l-202 -981q-172 -81 -428 -81q-217 0 -336 109t-119 302zM397 393q0 -211 172 -211q59 0 107 19l147 721q-36 18 -94 18q-144 0 -235 -164q-43 -78 -70 -185t-27 -198zM678 1219l201 292 q73 43 180 43q112 0 129 -51l-326 -284h-184z" />
<glyph unicode="&#xe2;" horiz-adv-x="1181" d="M82 391q0 133 47 272.5t127 237.5q185 223 524 223q117 0 221 -23t166 -59l-202 -981q-172 -81 -428 -81q-217 0 -336 109t-119 302zM397 393q0 -211 172 -211q59 0 107 19l147 721q-36 18 -94 18q-144 0 -235 -164q-43 -78 -70 -185t-27 -198zM494 1278l260 217 q48 39 98 39q51 0 82 -39l170 -217l-96 -80l-185 156l-250 -156z" />
<glyph unicode="&#xe3;" horiz-adv-x="1181" d="M82 391q0 133 47 272.5t127 237.5q185 223 524 223q117 0 221 -23t166 -59l-202 -981q-172 -81 -428 -81q-217 0 -336 109t-119 302zM397 393q0 -211 172 -211q59 0 107 19l147 721q-36 18 -94 18q-144 0 -235 -164q-43 -78 -70 -185t-27 -198zM475 1356q72 121 199 121 q46 0 89.5 -21t83 -42t75.5 -21q43 0 80 23.5t61 62.5l59 -136q-26 -50 -78.5 -82t-109.5 -32q-48 0 -91 21t-83 42t-80 21q-86 0 -145 -94z" />
<glyph unicode="&#xe4;" horiz-adv-x="1181" d="M82 391q0 133 47 272.5t127 237.5q185 223 524 223q117 0 221 -23t166 -59l-202 -981q-172 -81 -428 -81q-217 0 -336 109t-119 302zM397 393q0 -211 172 -211q59 0 107 19l147 721q-36 18 -94 18q-144 0 -235 -164q-43 -78 -70 -185t-27 -198zM477 1335q0 60 50.5 106 t115.5 46q50 0 83.5 -31t33.5 -76q0 -57 -50 -103t-118 -46q-49 0 -82 30t-33 74zM879 1335q0 60 49.5 106t113.5 46q50 0 83.5 -31t33.5 -76q0 -57 -50 -103t-118 -46q-49 0 -80.5 29.5t-31.5 74.5z" />
<glyph unicode="&#xe5;" horiz-adv-x="1181" d="M82 391q0 133 47 272.5t127 237.5q185 223 524 223q117 0 221 -23t166 -59l-202 -981q-172 -81 -428 -81q-217 0 -336 109t-119 302zM397 393q0 -211 172 -211q59 0 107 19l147 721q-36 18 -94 18q-144 0 -235 -164q-43 -78 -70 -185t-27 -198zM627 1356q0 81 63 148 t154 67q65 0 108 -43t43 -107q0 -80 -59 -146.5t-156 -66.5q-66 0 -109.5 42.5t-43.5 105.5zM727 1370q0 -30 18 -50t48 -20q43 0 72.5 35t29.5 76q0 30 -17.5 49t-46.5 19q-43 0 -73.5 -35t-30.5 -74z" />
<glyph unicode="&#xe6;" horiz-adv-x="1710" d="M43 248q0 127 71 224t193 155q159 74 430 100q15 63 15 90q0 111 -160 111q-134 0 -301 -68l-31 182q197 82 414 82q102 0 173 -39t97 -114q57 71 151.5 112t190.5 41q184 0 281.5 -99.5t97.5 -283.5q0 -97 -27 -211l-671 -92q-24 -243 207 -243q82 0 162 18.5t130 42.5 l35 -197q-146 -79 -389 -79q-112 0 -196.5 45t-124.5 118q-130 -163 -375 -163q-166 0 -269.5 68t-103.5 200zM330 281q0 -61 35 -92t96 -31q70 0 123.5 41.5t66.5 109.5l54 269q-160 -17 -250 -74q-59 -37 -92 -95t-33 -128zM975 600l391 55q16 72 16 119q0 162 -139 162 q-93 0 -165 -85.5t-103 -250.5z" />
<glyph unicode="&#xe7;" horiz-adv-x="876" d="M-25 -420l76 98q50 -4 109 -4q111 0 165 21t54 57q0 47 -129 47q-41 0 -107 -4l72 88q105 6 121 6q250 0 250 -118q0 -90 -104 -144.5t-310 -54.5q-95 0 -197 8zM82 403q0 121 42.5 255.5t111.5 232.5q82 115 192.5 174t233.5 59q87 0 161 -25.5t105 -56.5l-103 -168 q-46 37 -114 37q-133 0 -217 -147q-39 -68 -63.5 -164.5t-24.5 -177.5q0 -100 38 -153.5t105 -53.5q41 0 83 12.5t66 30.5l27 -197q-95 -81 -274 -81q-163 0 -266 115t-103 308z" />
<glyph unicode="&#xe8;" horiz-adv-x="1128" d="M82 403q0 123 39.5 252t109.5 226q81 115 201 179t268 64q182 0 281.5 -102t99.5 -287q0 -93 -26 -200l-674 -93q-5 -114 46.5 -179.5t168.5 -65.5q81 0 162 19t133 44l31 -199q-162 -81 -398 -81q-209 0 -325.5 111.5t-116.5 311.5zM385 596l399 59q15 61 15 113 q0 83 -35.5 126.5t-101.5 43.5q-68 0 -126 -45t-98 -127q-35 -72 -53 -170zM485 1503q18 25 57 38t85 13q98 0 147 -43l80 -292h-164z" />
<glyph unicode="&#xe9;" horiz-adv-x="1128" d="M82 403q0 123 39.5 252t109.5 226q81 115 201 179t268 64q182 0 281.5 -102t99.5 -287q0 -93 -26 -200l-674 -93q-5 -114 46.5 -179.5t168.5 -65.5q81 0 162 19t133 44l31 -199q-162 -81 -398 -81q-209 0 -325.5 111.5t-116.5 311.5zM385 596l399 59q15 61 15 113 q0 83 -35.5 126.5t-101.5 43.5q-68 0 -126 -45t-98 -127q-35 -72 -53 -170zM614 1219l201 292q73 43 180 43q112 0 129 -51l-325 -284h-185z" />
<glyph unicode="&#xea;" horiz-adv-x="1128" d="M82 403q0 123 39.5 252t109.5 226q81 115 201 179t268 64q182 0 281.5 -102t99.5 -287q0 -93 -26 -200l-674 -93q-5 -114 46.5 -179.5t168.5 -65.5q81 0 162 19t133 44l31 -199q-162 -81 -398 -81q-209 0 -325.5 111.5t-116.5 311.5zM385 596l399 59q15 61 15 113 q0 83 -35.5 126.5t-101.5 43.5q-68 0 -126 -45t-98 -127q-35 -72 -53 -170zM434 1278l260 217q48 39 99 39q50 0 81 -39l170 -217l-96 -80l-184 156l-250 -156z" />
<glyph unicode="&#xeb;" horiz-adv-x="1128" d="M82 403q0 123 39.5 252t109.5 226q81 115 201 179t268 64q182 0 281.5 -102t99.5 -287q0 -93 -26 -200l-674 -93q-5 -114 46.5 -179.5t168.5 -65.5q81 0 162 19t133 44l31 -199q-162 -81 -398 -81q-209 0 -325.5 111.5t-116.5 311.5zM385 596l399 59q15 61 15 113 q0 83 -35.5 126.5t-101.5 43.5q-68 0 -126 -45t-98 -127q-35 -72 -53 -170zM424 1335q0 60 50.5 106t115.5 46q50 0 83.5 -31t33.5 -76q0 -57 -50 -103t-118 -46q-49 0 -82 30t-33 74zM825 1335q0 60 49.5 106t114.5 46q50 0 83.5 -31t33.5 -76q0 -57 -50 -103t-118 -46 q-49 0 -81 29.5t-32 74.5z" />
<glyph unicode="&#xec;" horiz-adv-x="573" d="M23 0l229 1104h319l-229 -1104h-319zM207 1503q36 51 141 51q99 0 148 -43l79 -292h-163z" />
<glyph unicode="&#xed;" horiz-adv-x="573" d="M23 0l229 1104h319l-229 -1104h-319zM285 1219l200 292q73 43 181 43q112 0 129 -51l-326 -284h-184z" />
<glyph unicode="&#xee;" horiz-adv-x="573" d="M23 0l229 1104h319l-229 -1104h-319zM135 1278l260 217q48 39 99 39q50 0 81 -39l170 -217l-96 -80l-184 156l-250 -156z" />
<glyph unicode="&#xef;" horiz-adv-x="573" d="M23 0l229 1104h319l-229 -1104h-319zM121 1335q0 60 50.5 106t115.5 46q50 0 83 -31t33 -76q0 -57 -50 -103t-117 -46q-49 0 -82 30t-33 74zM522 1335q0 60 49.5 106t114.5 46q50 0 83.5 -31t33.5 -76q0 -57 -50 -103t-118 -46q-49 0 -81 29.5t-32 74.5z" />
<glyph unicode="&#xf0;" horiz-adv-x="1161" d="M80 399q0 124 43 259t115 233q79 109 191 169t245 60q58 0 98 -12q-22 114 -63 211l-197 -59q-9 27 -29 69t-30 55l190 58q-46 80 -65 104l268 82q35 -47 67 -102l191 57q13 -13 35 -54.5t30 -66.5l-188 -57q125 -281 125 -590q0 -163 -42.5 -327.5t-125.5 -282.5 q-160 -228 -455 -228q-184 0 -293.5 115t-109.5 307zM393 375q0 -176 131 -176q112 0 176 143q43 96 67 225.5t24 243.5q0 44 -9 109q-44 14 -88 14q-131 0 -205 -156q-39 -79 -67.5 -197.5t-28.5 -205.5z" />
<glyph unicode="&#xf1;" horiz-adv-x="1189" d="M18 0l218 1042q199 82 475 82q214 0 314.5 -73.5t100.5 -204.5q0 -36 -10 -88l-158 -758h-317l158 772q6 24 6 45q0 49 -34 79t-105 30q-65 0 -140 -23l-188 -903h-320zM428 1356q72 121 199 121q46 0 89.5 -21t82.5 -42t75 -21q43 0 80.5 24t61.5 62l59 -136 q-26 -50 -78.5 -82t-109.5 -32q-48 0 -91 21t-83 42t-80 21q-87 0 -146 -94z" />
<glyph unicode="&#xf2;" horiz-adv-x="1155" d="M80 387q0 122 41 259t108 235q79 117 197 180t268 63q192 0 296 -110t104 -295q0 -121 -42 -258t-108 -236q-164 -245 -467 -245q-192 0 -294.5 111t-102.5 296zM389 356q0 -159 119 -159q118 0 188 159q35 80 62.5 202.5t27.5 205.5q0 162 -118 162q-119 0 -191 -164 q-35 -78 -61.5 -199.5t-26.5 -206.5zM477 1503q36 51 141 51q99 0 148 -43l80 -292h-164z" />
<glyph unicode="&#xf3;" horiz-adv-x="1155" d="M80 387q0 122 41 259t108 235q79 117 197 180t268 63q192 0 296 -110t104 -295q0 -121 -42 -258t-108 -236q-164 -245 -467 -245q-192 0 -294.5 111t-102.5 296zM389 356q0 -159 119 -159q118 0 188 159q35 80 62.5 202.5t27.5 205.5q0 162 -118 162q-119 0 -191 -164 q-35 -78 -61.5 -199.5t-26.5 -206.5zM602 1219l201 292q73 43 180 43q112 0 129 -51l-326 -284h-184z" />
<glyph unicode="&#xf4;" horiz-adv-x="1155" d="M80 387q0 122 41 259t108 235q79 117 197 180t268 63q192 0 296 -110t104 -295q0 -121 -42 -258t-108 -236q-164 -245 -467 -245q-192 0 -294.5 111t-102.5 296zM389 356q0 -159 119 -159q118 0 188 159q35 80 62.5 202.5t27.5 205.5q0 162 -118 162q-119 0 -191 -164 q-35 -78 -61.5 -199.5t-26.5 -206.5zM426 1278l260 217q48 39 98 39q51 0 82 -39l170 -217l-96 -80l-184 156l-250 -156z" />
<glyph unicode="&#xf5;" horiz-adv-x="1155" d="M80 387q0 122 41 259t108 235q79 117 197 180t268 63q192 0 296 -110t104 -295q0 -121 -42 -258t-108 -236q-164 -245 -467 -245q-192 0 -294.5 111t-102.5 296zM389 356q0 -159 119 -159q118 0 188 159q35 80 62.5 202.5t27.5 205.5q0 162 -118 162q-119 0 -191 -164 q-35 -78 -61.5 -199.5t-26.5 -206.5zM424 1356q72 121 199 121q46 0 89.5 -21t82.5 -42t75 -21q43 0 80.5 24t61.5 62l59 -136q-26 -50 -78.5 -82t-109.5 -32q-48 0 -91 21t-83 42t-80 21q-87 0 -146 -94z" />
<glyph unicode="&#xf6;" horiz-adv-x="1155" d="M80 387q0 122 41 259t108 235q79 117 197 180t268 63q192 0 296 -110t104 -295q0 -121 -42 -258t-108 -236q-164 -245 -467 -245q-192 0 -294.5 111t-102.5 296zM389 356q0 -159 119 -159q118 0 188 159q35 80 62.5 202.5t27.5 205.5q0 162 -118 162q-119 0 -191 -164 q-35 -78 -61.5 -199.5t-26.5 -206.5zM410 1335q0 60 50 106t115 46q50 0 83.5 -31t33.5 -76q0 -57 -50 -103t-118 -46q-49 0 -81.5 30t-32.5 74zM811 1335q0 60 49.5 106t114.5 46q50 0 83.5 -31t33.5 -76q0 -57 -50 -103t-118 -46q-49 0 -81 29.5t-32 74.5z" />
<glyph unicode="&#xf7;" d="M188 602l31 152h828l-31 -152h-828zM412 317q0 63 49.5 112.5t113.5 49.5q47 0 78 -30t31 -76q0 -62 -50.5 -112t-113.5 -50q-47 0 -77.5 30.5t-30.5 75.5zM547 981q0 63 50.5 112.5t115.5 49.5q47 0 77.5 -30.5t30.5 -76.5q0 -62 -50.5 -112t-113.5 -50q-47 0 -78.5 31 t-31.5 76z" />
<glyph unicode="&#xf8;" horiz-adv-x="1155" d="M37 -72l135 172q-94 111 -94 287q0 122 42 259t109 235q79 117 197 180t268 63q141 0 236 -61l129 164l63 -51l-131 -166q101 -110 101 -291q0 -121 -42 -258t-108 -236q-164 -245 -465 -245q-146 0 -244 67l-133 -170zM365 344l421 537q-31 69 -112 69q-132 0 -215 -174 q-42 -90 -69.5 -213t-24.5 -219zM387 242q37 -72 115 -72q127 0 213 172q43 90 70 212.5t24 221.5z" />
<glyph unicode="&#xf9;" horiz-adv-x="1171" d="M84 262q0 62 10 111l154 731h319l-155 -754q-9 -40 -9 -53q0 -102 129 -102q81 0 136 22l184 887h319l-217 -1043q-172 -81 -462 -81q-205 0 -306.5 69t-101.5 213zM506 1503q36 51 141 51q99 0 148 -43l79 -292h-163z" />
<glyph unicode="&#xfa;" horiz-adv-x="1171" d="M84 262q0 62 10 111l154 731h319l-155 -754q-9 -40 -9 -53q0 -102 129 -102q81 0 136 22l184 887h319l-217 -1043q-172 -81 -462 -81q-205 0 -306.5 69t-101.5 213zM614 1219l201 292q73 43 180 43q112 0 129 -51l-325 -284h-185z" />
<glyph unicode="&#xfb;" horiz-adv-x="1171" d="M84 262q0 62 10 111l154 731h319l-155 -754q-9 -40 -9 -53q0 -102 129 -102q81 0 136 22l184 887h319l-217 -1043q-172 -81 -462 -81q-205 0 -306.5 69t-101.5 213zM436 1278l260 217q48 39 99 39t82 -39l170 -217l-97 -80l-184 156l-250 -156z" />
<glyph unicode="&#xfc;" horiz-adv-x="1171" d="M84 262q0 62 10 111l154 731h319l-155 -754q-9 -40 -9 -53q0 -102 129 -102q81 0 136 22l184 887h319l-217 -1043q-172 -81 -462 -81q-205 0 -306.5 69t-101.5 213zM416 1335q0 60 50.5 106t115.5 46q50 0 83 -31t33 -76q0 -57 -50 -103t-118 -46q-49 0 -81.5 30 t-32.5 74zM817 1335q0 60 49.5 106t114.5 46q50 0 83.5 -31t33.5 -76q0 -57 -50 -103t-118 -46q-49 0 -81 29.5t-32 74.5z" />
<glyph unicode="&#xfd;" horiz-adv-x="1081" d="M20 -440l269 440l-131 1104h331l19 -641q1 -43 -1.5 -85.5t-5.5 -63.5l-3 -21h4q18 76 63 170l301 641h310l-818 -1544h-338zM578 1219l200 292q73 43 180 43q112 0 129 -51l-325 -284h-184z" />
<glyph unicode="&#xfe;" horiz-adv-x="1179" d="M-76 -440l424 2048h318l-109 -527q76 39 186 39q170 0 273.5 -97.5t103.5 -283.5q0 -136 -51 -283t-135 -251q-89 -109 -205 -166t-248 -57q-88 0 -147 18l-92 -440h-318zM373 188q54 -14 82 -14q148 0 241 150q48 75 78.5 195t30.5 218t-43 146.5t-135 48.5 q-55 0 -105 -21z" />
<glyph unicode="&#xff;" horiz-adv-x="1081" d="M20 -440l269 440l-131 1104h331l19 -641q1 -43 -1.5 -85.5t-5.5 -63.5l-3 -21h4q18 76 63 170l301 641h310l-818 -1544h-338zM387 1335q0 60 50.5 106t115.5 46q50 0 83.5 -31t33.5 -76q0 -57 -50 -103t-118 -46q-49 0 -82 30t-33 74zM788 1335q0 60 49.5 106t114.5 46 q50 0 83.5 -31t33.5 -76q0 -57 -50 -103t-118 -46q-49 0 -81 29.5t-32 74.5z" />
<glyph unicode="&#x152;" horiz-adv-x="1589" d="M109 481q0 186 65.5 388t177.5 331q199 230 518 230q83 0 170 -21h643l-47 -223h-385l-75 -359h337l-45 -217h-338l-79 -387h387l-45 -223h-650q-74 -20 -172 -20q-210 0 -336 130t-126 371zM440 457q0 -254 189 -254q78 0 112 12l205 995q-32 11 -98 11 q-152 0 -252 -164q-65 -106 -110.5 -286t-45.5 -314z" />
<glyph unicode="&#x153;" horiz-adv-x="1753" d="M80 389q0 150 58 308.5t155 260.5q160 166 393 166q105 0 177 -44.5t106 -127.5q64 82 161 127t197 45q181 0 281 -96.5t100 -284.5q0 -85 -29 -211l-667 -92q-17 -245 211 -245q153 0 286 63l37 -197q-154 -81 -389 -81q-118 0 -206 50.5t-120 137.5 q-61 -87 -155.5 -137.5t-202.5 -50.5q-192 0 -292.5 113t-100.5 296zM379 360q0 -165 119 -165q114 0 182 143q38 76 69 210.5t31 219.5q0 158 -118 158q-97 0 -162 -105q-49 -75 -85 -218t-36 -243zM1020 600l393 55q14 63 14 121q0 81 -35 122.5t-102 41.5 q-94 0 -166.5 -87.5t-103.5 -252.5z" />
<glyph unicode="&#x178;" horiz-adv-x="1101" d="M197 1409h335l91 -532h4l323 532h328l-547 -817l-123 -592h-334l125 592zM453 1626q0 60 50 106t115 46q50 0 83.5 -31t33.5 -76q0 -57 -50 -103t-118 -46q-49 0 -81.5 30t-32.5 74zM854 1626q0 60 49.5 106t114.5 46q50 0 83.5 -31t33.5 -76q0 -57 -50 -103t-118 -46 q-49 0 -81 29.5t-32 74.5z" />
<glyph unicode="&#x2c6;" horiz-adv-x="524" d="M115 1278l260 217q48 39 98 39q51 0 82 -39l170 -217l-96 -80l-185 156l-249 -156z" />
<glyph unicode="&#x2dc;" horiz-adv-x="524" d="M111 1356q72 121 198 121q46 0 89.5 -21t83 -42t75.5 -21q43 0 80 23.5t61 62.5l60 -136q-26 -50 -79 -82t-110 -32q-48 0 -91 21t-83 42t-80 21q-86 0 -145 -94z" />
<glyph unicode="&#x2000;" horiz-adv-x="933" />
<glyph unicode="&#x2001;" horiz-adv-x="1866" />
<glyph unicode="&#x2002;" horiz-adv-x="933" />
<glyph unicode="&#x2003;" horiz-adv-x="1866" />
<glyph unicode="&#x2004;" horiz-adv-x="622" />
<glyph unicode="&#x2005;" horiz-adv-x="466" />
<glyph unicode="&#x2006;" horiz-adv-x="311" />
<glyph unicode="&#x2007;" horiz-adv-x="311" />
<glyph unicode="&#x2008;" horiz-adv-x="233" />
<glyph unicode="&#x2009;" horiz-adv-x="373" />
<glyph unicode="&#x200a;" horiz-adv-x="103" />
<glyph unicode="&#x2010;" horiz-adv-x="737" d="M113 569l49 234h536l-49 -234h-536z" />
<glyph unicode="&#x2011;" horiz-adv-x="737" d="M113 569l49 234h536l-49 -234h-536z" />
<glyph unicode="&#x2012;" horiz-adv-x="737" d="M113 569l49 234h536l-49 -234h-536z" />
<glyph unicode="&#x2013;" horiz-adv-x="851" d="M12 592l41 188h860l-41 -188h-860z" />
<glyph unicode="&#x2014;" horiz-adv-x="1703" d="M12 606l35 160h1718l-34 -160h-1719z" />
<glyph unicode="&#x2018;" horiz-adv-x="638" d="M193 1018l438 590h170l-303 -590q-82 -94 -197 -94q-58 0 -83 26.5t-25 67.5z" />
<glyph unicode="&#x2019;" horiz-adv-x="638" d="M152 936l303 590q84 96 196 96q58 0 82.5 -27.5t24.5 -68.5l-436 -590h-170z" />
<glyph unicode="&#x201a;" horiz-adv-x="638" d="M-113 -346l303 590q84 96 199 96q58 0 82.5 -27.5t24.5 -68.5l-437 -590h-172z" />
<glyph unicode="&#x201c;" horiz-adv-x="1089" d="M193 1018l438 590h170l-303 -590q-82 -94 -197 -94q-58 0 -83 26.5t-25 67.5zM643 1018l436 590h172l-303 -590q-82 -94 -198 -94q-58 0 -82.5 26.5t-24.5 67.5z" />
<glyph unicode="&#x201d;" horiz-adv-x="1089" d="M152 936l303 590q84 96 196 96q58 0 82.5 -27.5t24.5 -68.5l-436 -590h-170zM600 936l305 590q84 96 197 96q58 0 82 -27.5t24 -68.5l-436 -590h-172z" />
<glyph unicode="&#x201e;" horiz-adv-x="1089" d="M-113 -346l303 590q84 96 197 96q58 0 83.5 -27.5t25.5 -68.5l-439 -590h-170zM336 -346l305 590q84 96 197 96q58 0 82 -27.5t24 -68.5l-436 -590h-172z" />
<glyph unicode="&#x2022;" horiz-adv-x="827" d="M156 686q0 137 110.5 245.5t249.5 108.5q111 0 180.5 -69.5t69.5 -173.5q0 -91 -51.5 -173.5t-135 -132t-173.5 -49.5q-111 0 -180.5 70t-69.5 174z" />
<glyph unicode="&#x2026;" horiz-adv-x="1734" d="M35 133q0 82 66.5 147.5t152.5 65.5q66 0 109 -40.5t43 -102.5q0 -82 -68 -147.5t-154 -65.5q-65 0 -107 41t-42 102zM614 133q0 82 67 147.5t153 65.5q66 0 107.5 -40.5t41.5 -102.5q0 -82 -66.5 -147.5t-152.5 -65.5q-65 0 -107.5 41t-42.5 102zM1192 133 q0 82 66.5 147.5t152.5 65.5q66 0 109 -40.5t43 -102.5q0 -82 -68 -147.5t-154 -65.5q-65 0 -107 41t-42 102z" />
<glyph unicode="&#x202f;" horiz-adv-x="373" />
<glyph unicode="&#x2039;" horiz-adv-x="663" d="M123 692l387 469l168 -100l-324 -389l152 -369l-184 -94z" />
<glyph unicode="&#x203a;" horiz-adv-x="663" d="M61 309l324 387l-154 369l185 96l198 -485l-387 -467z" />
<glyph unicode="&#x205f;" horiz-adv-x="466" />
<glyph unicode="&#x2122;" horiz-adv-x="1609" d="M244 1294l22 115h529l-25 -115h-186l-121 -585h-152l123 585h-190zM666 709l247 700h191l37 -526l248 526h194l-41 -700h-149l47 534l-269 -534h-135l-51 530l-170 -530h-149z" />
<glyph unicode="&#x25fc;" horiz-adv-x="1105" d="M0 0v1106h1106v-1106h-1106z" />
<glyph unicode="&#xfb01;" horiz-adv-x="1243" d="M86 0l184 897h-118l41 207h122l23 113q21 104 67.5 182t111.5 123.5t140 67.5t162 22q57 0 88 -4l-41 -203q-74 5 -129.5 -34t-74.5 -132l-27 -135h168l-43 -207h-170l-184 -897h-320zM694 0l230 1104h319l-229 -1104h-320zM975 1393q0 70 61.5 124t141.5 54 q62 0 101.5 -35t39.5 -88q0 -71 -62 -125.5t-141 -54.5q-62 0 -101.5 36t-39.5 89z" />
<glyph unicode="&#xfb02;" horiz-adv-x="1257" d="M86 0l184 897h-118l41 207h122l23 113q21 104 67.5 182t111.5 123.5t140 67.5t162 22q57 0 88 -4l-41 -203q-74 5 -129.5 -34t-74.5 -132l-27 -135h168l-43 -207h-170l-184 -897h-320zM702 0l334 1608h320l-334 -1608h-320z" />
</font>
</defs>
</svg>
