<?xml version="1.0" standalone="no"?>
<!DOCTYPE svg PUBLIC "-//W3C//DTD SVG 1.1//EN" "http://www.w3.org/Graphics/SVG/1.1/DTD/svg11.dtd" >
<svg xmlns="http://www.w3.org/2000/svg" xmlns:xlink="http://www.w3.org/1999/xlink" version="1.1">
<metadata></metadata>
<defs>
<font id="daxitalic" horiz-adv-x="1089" >
<font-face units-per-em="2048" ascent="1608" descent="-440" />
<missing-glyph horiz-adv-x="565" />
<glyph horiz-adv-x="0" />
<glyph horiz-adv-x="682" />
<glyph unicode=" "  horiz-adv-x="565" />
<glyph unicode="&#x09;" horiz-adv-x="565" />
<glyph unicode="&#xa0;" horiz-adv-x="565" />
<glyph unicode="!" horiz-adv-x="612" d="M117 86q0 53 44.5 97t100.5 44q42 0 69 -26t27 -66q0 -53 -44.5 -97t-100.5 -44q-42 0 -69 26t-27 66zM242 463l157 946h213l-233 -946h-137z" />
<glyph unicode="&#x22;" horiz-adv-x="798" d="M258 870l70 514q41 41 96 41q59 0 80 -41l-150 -514h-96zM588 870l69 514q41 41 97 41q53 0 77 -41l-147 -514h-96z" />
<glyph unicode="#" d="M98 471l11 92h217l67 320h-209l13 92h215l90 434h104l-88 -434h240l90 434h106l-90 -434h211l-12 -92h-217l-70 -320h211l-10 -92h-219l-96 -471h-107l98 471h-241l-101 -471h-102l98 471h-209zM430 563h242l67 320h-241z" />
<glyph unicode="$" d="M61 57l72 121q87 -59 223 -59q148 0 242 95t94 228q0 50 -23 91t-59.5 69t-81 54.5t-89 55.5t-81 63t-59.5 86.5t-23 117.5q0 77 29.5 152t83 137.5t136 105t180.5 51.5l30 234h113l-64 -232q151 -5 242 -75l-63 -109q-79 57 -207 57q-73 0 -131.5 -27.5t-93.5 -72 t-53.5 -96t-18.5 -103.5q0 -44 18.5 -81t48.5 -62t69 -50.5t79 -46.5t79 -50t69 -61t48.5 -80.5t18.5 -106.5q0 -78 -29 -156.5t-83.5 -147.5t-143.5 -117t-199 -58l-31 -244h-118l67 242q-193 3 -291 75z" />
<glyph unicode="%" horiz-adv-x="1763" d="M213 733q0 96 26.5 219.5t65.5 216.5q108 261 307 261q203 0 203 -269q0 -96 -26.5 -217.5t-65.5 -214.5q-108 -262 -307 -262q-203 0 -203 266zM330 711q0 -150 98 -150q115 0 188 207q32 90 59 219t27 209q0 154 -100 154q-117 0 -192 -215q-30 -86 -55 -214.5 t-25 -209.5zM487 12l773 1411l92 -26l-770 -1411zM1030 246q0 96 26.5 219.5t65.5 216.5q107 260 308 260q202 0 202 -266q0 -96 -26.5 -218.5t-65.5 -215.5q-108 -262 -307 -262q-203 0 -203 266zM1147 223q0 -149 98 -149q118 0 191 207q31 89 57.5 218t26.5 210 q0 153 -101 153q-117 0 -192 -215q-30 -86 -55 -214.5t-25 -209.5z" />
<glyph unicode="&#x26;" horiz-adv-x="1282" d="M82 313q0 210 192 357q108 82 271 131v4q-219 65 -219 256q0 68 28.5 133t83 118t143 85.5t197.5 32.5q89 0 164.5 -22t120.5 -56l-72 -101q-30 22 -85.5 39t-114.5 17q-74 0 -131.5 -22.5t-90 -59t-49 -79.5t-16.5 -89q0 -84 62 -134.5t161 -50.5q225 0 569 164l29 -118 q-126 -54 -244 -80l-161 -779q-62 -35 -166.5 -57t-223.5 -22q-210 0 -329 89.5t-119 243.5zM274 322q0 -106 74.5 -166t210.5 -60q110 0 199 35l139 668q-184 -41 -301 -84t-188 -103q-64 -53 -99 -130t-35 -160z" />
<glyph unicode="'" horiz-adv-x="468" d="M258 870l70 514q41 41 96 41q59 0 80 -41l-150 -514h-96z" />
<glyph unicode="(" horiz-adv-x="753" d="M133 367q0 348 199 692q154 270 479 573l88 -55q-276 -299 -412 -586q-165 -347 -165 -706q0 -363 165 -695l-90 -55q-264 422 -264 832z" />
<glyph unicode=")" horiz-adv-x="753" d="M-113 -410q276 299 412 586q166 350 166 707q0 360 -166 694l90 55q264 -422 264 -833q0 -348 -198 -690q-154 -270 -480 -574z" />
<glyph unicode="*" horiz-adv-x="913" d="M279 1337q0 42 33.5 74.5t76.5 32.5q35 0 57.5 -22.5t22.5 -55.5q0 -42 -34 -74t-77 -32q-35 0 -57 22t-22 55zM307 1040q0 42 34 73.5t77 31.5q35 0 57.5 -21.5t22.5 -54.5q0 -42 -34 -75t-77 -33q-35 0 -57.5 23t-22.5 56zM535 1255q0 37 28.5 65t65.5 28 q30 0 49.5 -20t19.5 -48q0 -36 -28.5 -63t-65.5 -27q-30 0 -49.5 18.5t-19.5 46.5zM571 1522q0 42 34 74t77 32q35 0 58.5 -22t23.5 -54q0 -42 -34 -75t-77 -33q-35 0 -58.5 22.5t-23.5 55.5zM649 1040q0 42 34 73.5t77 31.5q35 0 57.5 -21.5t22.5 -54.5q0 -42 -34 -75 t-77 -33q-35 0 -57.5 23t-22.5 56zM795 1337q0 42 33.5 74.5t76.5 32.5q35 0 58.5 -22.5t23.5 -55.5q0 -42 -33.5 -74t-76.5 -32q-35 0 -58.5 22.5t-23.5 54.5z" />
<glyph unicode="+" d="M174 625l27 123h327l74 356h129l-72 -356h328l-24 -123h-330l-74 -361h-131l76 361h-330z" />
<glyph unicode="," horiz-adv-x="540" d="M-154 -346l277 506q55 55 129 55q37 0 55.5 -15.5t18.5 -39.5l-369 -506h-111z" />
<glyph unicode="-" horiz-adv-x="710" d="M143 616l31 144h465l-29 -144h-467z" />
<glyph unicode="." horiz-adv-x="524" d="M57 86q0 53 45 97t101 44q42 0 69 -26t27 -66q0 -53 -44.5 -97t-100.5 -44q-43 0 -70 26t-27 66z" />
<glyph unicode="/" horiz-adv-x="1011" d="M-182 -406l1175 2038l131 -57l-1175 -2038z" />
<glyph unicode="0" d="M123 401q0 158 45.5 348t116.5 334q77 158 189 252.5t259 94.5q88 0 151 -34t98 -95t51 -134t16 -163q0 -158 -45 -345.5t-115 -330.5q-77 -158 -189.5 -253t-261.5 -95q-87 0 -150 33.5t-98 93.5t-51 132.5t-16 161.5zM287 358q0 -258 166 -258q174 0 292 287 q57 137 99.5 335.5t42.5 338.5q0 258 -164 258q-174 0 -297 -297q-56 -136 -97.5 -331t-41.5 -333z" />
<glyph unicode="1" d="M293 1079v113q177 23 299 82.5t186 134.5h127l-291 -1409h-182l244 1178q-65 -35 -176 -63t-207 -36z" />
<glyph unicode="2" d="M-27 0l645 707q45 50 76 89.5t64.5 92.5t51 109t17.5 112q0 184 -235 184q-143 0 -275 -59l-24 117q163 78 350 78q183 0 282 -81t99 -219q0 -63 -22.5 -128t-63.5 -127.5t-81 -111t-93 -104.5l-485 -509h565l-31 -150h-840z" />
<glyph unicode="3" d="M-8 57l74 119q38 -24 109 -42.5t151 -18.5q87 0 160.5 31t121.5 83t74.5 117t26.5 135q0 64 -28 111t-78 72.5t-111.5 36t-133.5 6.5l21 102q191 15 305.5 109.5t114.5 226.5q0 74 -51 114.5t-146 40.5q-154 0 -283 -61l-24 113q149 78 348 78q154 0 248 -67.5t94 -188.5 q0 -73 -32 -141t-83 -116.5t-108.5 -82.5t-114.5 -50v-4q50 -13 93 -35.5t80.5 -57t59 -85.5t21.5 -113q0 -73 -22.5 -144.5t-70.5 -137.5t-114.5 -116.5t-161 -80.5t-204.5 -30q-96 0 -187 21.5t-149 55.5z" />
<glyph unicode="4" d="M70 322l24 116l770 971h174l-202 -981h114l-22 -106h-115l-65 -322h-168l67 322h-577zM221 428h449l123 592l49 209h-4q-62 -92 -148 -201z" />
<glyph unicode="5" d="M12 57l72 119q42 -25 113 -43t149 -18q71 0 139 26t122 73t87 120.5t33 161.5q0 295 -508 225l201 688h657l-28 -149h-533l-121 -431q245 29 385 -63t140 -262q0 -142 -73 -261.5t-205 -191t-294 -71.5q-99 0 -189 20.5t-147 56.5z" />
<glyph unicode="6" d="M109 344q0 128 46 269t119 264q62 104 146 193t163 146.5t164.5 102.5t146.5 67.5t112 34.5l22 -121q-424 -127 -631 -495q98 37 201 37q167 0 270 -82.5t103 -239.5q0 -71 -19.5 -144.5t-61.5 -144.5t-101.5 -127t-147 -90t-190.5 -34q-168 0 -255 97t-87 267zM274 338 q0 -113 47.5 -174.5t145.5 -61.5q77 0 142.5 40t106.5 102.5t64 136.5t23 145q0 111 -63.5 163t-190.5 52q-109 0 -197 -36q-35 -83 -56.5 -183.5t-21.5 -183.5z" />
<glyph unicode="7" d="M102 0l811 1260h-651l31 149h872l-278 -438q-166 -260 -323.5 -539t-229.5 -432h-232z" />
<glyph unicode="8" d="M74 264q0 69 25 132.5t62.5 111t94.5 94t107.5 77t115.5 64.5q-107 69 -155 133.5t-48 145.5q0 105 59 198.5t165.5 151.5t234.5 58q141 0 231.5 -75.5t90.5 -195.5q0 -76 -28.5 -142.5t-81.5 -117.5t-108 -88.5t-128 -73.5q123 -83 178 -159.5t55 -167.5 q0 -180 -145.5 -305t-360.5 -125q-154 0 -259 75t-105 209zM238 285q0 -85 59 -136t152 -51q85 0 159 36.5t122 110t48 169.5q0 71 -43 132t-151 130q-57 -29 -99.5 -53.5t-92 -62t-81 -75.5t-52.5 -90.5t-21 -109.5zM432 1032q0 -65 39 -114.5t135 -112.5q53 26 91 48.5 t80 55t68 66t43 79t17 97.5q0 77 -47 123.5t-133 46.5q-123 0 -208 -84.5t-85 -204.5z" />
<glyph unicode="9" d="M133 106q421 127 631 498q-98 -37 -201 -37q-169 0 -269.5 88t-100.5 240q0 68 19.5 140t62 143t101.5 127t146.5 90.5t188.5 34.5q169 0 255.5 -96t86.5 -265q0 -128 -46 -270t-118 -264q-62 -104 -146.5 -194t-164 -148.5t-164.5 -104.5t-146 -69t-112 -35zM358 895 q0 -107 63.5 -165t190.5 -58q110 0 195 35q34 76 58 181t24 191q0 111 -48.5 172.5t-146.5 61.5q-82 0 -149 -43t-106 -108.5t-60 -135t-21 -131.5z" />
<glyph unicode=":" horiz-adv-x="524" d="M57 86q0 53 45 97t101 44q42 0 69 -26t27 -66q0 -53 -44.5 -97t-100.5 -44q-43 0 -70 26t-27 66zM190 715q0 53 44 97t100 44q42 0 69 -27t27 -67q0 -53 -43.5 -96t-99.5 -43q-43 0 -70 26t-27 66z" />
<glyph unicode=";" horiz-adv-x="540" d="M-154 -346l277 506q55 55 129 55q37 0 55.5 -15.5t18.5 -39.5l-369 -506h-111zM207 715q0 53 43.5 97t99.5 44q42 0 69 -26t27 -66q0 -53 -43.5 -97t-99.5 -44q-42 0 -69 26t-27 66z" />
<glyph unicode="&#x3c;" d="M154 631l22 119l862 346l-30 -142l-695 -270l584 -268l-27 -129z" />
<glyph unicode="=" d="M139 440l25 123h784l-24 -123h-785zM215 805l25 123h784l-25 -123h-784z" />
<glyph unicode="&#x3e;" d="M98 287l29 143l696 268l-583 271l26 127l717 -346l-25 -119z" />
<glyph unicode="?" horiz-adv-x="821" d="M193 86q0 53 43.5 97t99.5 44q42 0 69 -26t27 -66q0 -53 -43.5 -97t-99.5 -44q-42 0 -69 26t-27 66zM260 1352q145 78 311 78q160 0 249 -69t89 -196q0 -77 -31 -145t-85 -118t-119 -86t-139 -58l-82 -295h-136l45 356q67 16 126 41.5t114 64t87 95t32 123.5 q0 76 -47 116.5t-158 40.5t-223 -57z" />
<glyph unicode="@" horiz-adv-x="1796" d="M111 264q0 236 118.5 470t305.5 401q157 139 339.5 217t372.5 78q223 0 356.5 -117.5t133.5 -321.5q0 -137 -57.5 -288t-143.5 -281q-89 -132 -193.5 -211.5t-214.5 -79.5q-65 0 -97 48.5t-13 142.5q-81 -98 -166 -142.5t-186 -44.5q-94 0 -142.5 61t-48.5 160 q0 120 65 256.5t156 235.5q152 166 312 166q99 0 146 -54t52 -141l66 160h100l-211 -500q-49 -114 -49 -203q0 -61 59 -61q65 0 146.5 71t155.5 183q78 118 127 252t49 260q0 178 -107.5 278.5t-298.5 100.5q-173 0 -341.5 -74.5t-311.5 -204.5q-174 -160 -282.5 -376 t-108.5 -437q0 -229 143.5 -351t398.5 -122q224 0 399 73t349 226l39 -57q-172 -160 -358.5 -236.5t-426.5 -76.5q-292 0 -462 140t-170 400zM588 371q0 -69 31 -110.5t98 -41.5q77 0 151 52t136 137q59 79 102 179.5t43 184.5q0 77 -37 118.5t-96 41.5q-129 0 -252 -148 q-71 -84 -123.5 -199.5t-52.5 -213.5z" />
<glyph unicode="A" horiz-adv-x="1200" d="M-66 0l768 1409h172l183 -1409h-189l-45 422h-483l-223 -422h-183zM395 535h422l-53 534q-4 44 -6.5 86.5t-3.5 62.5v21h-4q-23 -72 -74 -170z" />
<glyph unicode="B" horiz-adv-x="1155" d="M61 57l267 1295q163 78 387 78q195 0 302 -78t107 -209q0 -145 -103 -256.5t-247 -138.5v-5q109 -20 183.5 -101t74.5 -196q0 -77 -35 -161t-88 -142q-152 -163 -473 -163q-244 0 -375 77zM254 131q84 -33 188 -33q206 0 314 117q44 48 68 116t24 138q0 117 -92 171 t-283 54h-102zM389 788h103q238 0 344 97q50 45 77 113t27 139q0 182 -244 182q-103 0 -202 -31z" />
<glyph unicode="C" horiz-adv-x="983" d="M127 473q0 217 83 436.5t228 356.5q175 164 391 164q85 0 151 -22t105 -56l-71 -105q-71 49 -170 49q-163 0 -289 -139q-106 -118 -169.5 -312t-63.5 -366q0 -356 260 -356q57 0 115.5 18t93.5 41l28 -125q-44 -33 -121.5 -55t-162.5 -22q-199 0 -303.5 134.5 t-104.5 358.5z" />
<glyph unicode="D" horiz-adv-x="1216" d="M61 57l269 1295q162 78 379 78q229 0 345.5 -129.5t116.5 -358.5q0 -181 -67 -391t-176 -340q-190 -231 -525 -231q-101 0 -195 22t-147 55zM266 139q65 -26 162 -26q225 0 360 188q85 117 141 318t56 360q0 330 -297 330q-100 0 -188 -31z" />
<glyph unicode="E" horiz-adv-x="913" d="M57 0l291 1409h653l-26 -127h-465l-100 -491h415l-24 -125h-418l-111 -539h465l-26 -127h-654z" />
<glyph unicode="F" horiz-adv-x="897" d="M57 0l291 1409h649l-26 -127h-461l-100 -491h413l-24 -125h-416l-137 -666h-189z" />
<glyph unicode="G" horiz-adv-x="1208" d="M127 498q0 175 62.5 360.5t172.5 315.5q108 126 244 191t285 65q194 0 315 -78l-73 -109q-86 55 -230 55q-124 0 -231 -57t-185 -170q-77 -111 -123.5 -272t-46.5 -305q0 -183 81 -284t210 -101q125 0 195 34l108 529h-239l24 119h420l-151 -734q-148 -77 -371 -77 q-101 0 -186 33.5t-148 97t-98 163t-35 224.5z" />
<glyph unicode="H" horiz-adv-x="1228" d="M57 0l291 1409h189l-127 -618h528l127 618h188l-290 -1409h-189l137 666h-528l-137 -666h-189z" />
<glyph unicode="I" horiz-adv-x="528" d="M63 0l291 1409h191l-291 -1409h-191z" />
<glyph unicode="J" horiz-adv-x="528" d="M-285 -453l31 140q113 30 208 137t126 256l274 1329h191l-273 -1319q-24 -117 -80 -215.5t-132 -165t-164 -108t-181 -54.5z" />
<glyph unicode="K" horiz-adv-x="1083" d="M63 0l293 1409h187l-135 -653h4l592 653h202l-631 -666l363 -743h-207l-328 729h-4l-149 -729h-187z" />
<glyph unicode="L" horiz-adv-x="851" d="M63 0l291 1409h189l-264 -1282h423l-26 -127h-613z" />
<glyph unicode="M" horiz-adv-x="1609" d="M8 0l459 1409h201l71 -1026q3 -40 4 -79t1 -58l-1 -19h5q20 66 65 156l504 1026h201l-125 -1409h-174l112 1059l21 166h-4q-27 -78 -70 -166l-520 -1059h-125l-78 1061l-6 164h-4q-14 -80 -41 -164l-332 -1061h-164z" />
<glyph unicode="N" horiz-adv-x="1331" d="M57 0l291 1409h193l374 -989q15 -37 27.5 -74.5t17.5 -56.5l5 -19h4q8 68 26 156l203 983h158l-291 -1409h-158l-389 1026q-15 39 -29 82t-21 66l-7 24h-4q-11 -84 -29 -174l-213 -1024h-158z" />
<glyph unicode="O" horiz-adv-x="1249" d="M127 444q0 181 59.5 386.5t157.5 343.5q182 256 469 256q201 0 296 -123t95 -336q0 -183 -59 -393t-156 -347q-175 -251 -467 -251q-201 0 -298 124t-97 340zM309 418q0 -297 230 -297q194 0 321 229q67 122 114.5 317t47.5 339q0 297 -221 297q-190 0 -320 -224 q-73 -125 -122.5 -317.5t-49.5 -343.5z" />
<glyph unicode="P" d="M57 0l281 1352q156 78 369 78q199 0 301 -88t102 -238q0 -89 -33 -179.5t-90 -158.5q-163 -191 -479 -191q-64 0 -146 11l-120 -586h-185zM387 700q52 -8 123 -8q233 0 340 152q38 55 59 127t21 141q0 205 -248 205q-94 0 -174 -29z" />
<glyph unicode="Q" horiz-adv-x="1249" d="M127 444q0 181 59.5 386.5t157.5 343.5q183 256 469 256q201 0 296 -123t95 -336q0 -183 -59 -393t-156 -347q-90 -129 -217 -192l176 -303l-168 -125l-127 387q-61 -18 -131 -18q-201 0 -298 124t-97 340zM309 418q0 -297 230 -297q194 0 321 229q67 122 114.5 317 t47.5 339q0 297 -221 297q-106 0 -182 -58t-138 -166q-73 -125 -122.5 -317.5t-49.5 -343.5z" />
<glyph unicode="R" horiz-adv-x="1126" d="M63 0l281 1352q159 78 365 78q197 0 304 -87t107 -237q0 -93 -37.5 -182.5t-103.5 -155.5q-147 -147 -387 -147v-5l338 -616h-205l-336 659h-4l-137 -659h-185zM395 702q40 -12 115 -12q210 0 321 123q50 55 76.5 134.5t26.5 160.5q0 211 -250 211q-92 0 -168 -31z" />
<glyph unicode="S" horiz-adv-x="948" d="M-8 57l71 123q87 -59 226 -59q148 0 241 94t93 227q0 50 -23 90.5t-59.5 69t-81 54.5t-89 55t-81 63t-59.5 86.5t-23 118.5q0 81 33 160.5t92 144.5t152 105.5t202 40.5q175 0 275 -78l-66 -111q-79 57 -207 57q-72 0 -130.5 -27.5t-94 -71.5t-54 -95t-18.5 -103 q0 -50 24 -90.5t62 -68.5t84 -54t92 -55t84 -63.5t62 -87.5t24 -119q0 -83 -32.5 -166.5t-94 -155t-163 -116.5t-226.5 -45q-207 0 -315 77z" />
<glyph unicode="T" horiz-adv-x="874" d="M225 1282l27 127h743l-24 -127h-281l-264 -1282h-188l266 1282h-279z" />
<glyph unicode="U" horiz-adv-x="1198" d="M129 307q0 41 10 96l209 1006h189l-209 -1006q-11 -53 -11 -79q0 -94 54 -145.5t145 -51.5q117 0 209.5 75t118.5 201l207 1006h172l-207 -1008q-37 -186 -179.5 -303.5t-342.5 -117.5q-171 0 -268 89.5t-97 237.5z" />
<glyph unicode="V" horiz-adv-x="1093" d="M233 1409h197l55 -999l7 -185h4q36 99 77 185l474 999h182l-701 -1409h-166z" />
<glyph unicode="W" horiz-adv-x="1681" d="M260 1409h189l-9 -1026q0 -36 -2 -76t-4 -62l-2 -22h4q27 78 64 160l456 1026h144l28 -1026v-35.5v-38.5q-1 -40 -2 -63l-2 -23h4q29 84 60 160l424 1026h178l-621 -1409h-165l-35 983l2 158h-4q-21 -72 -60 -158l-444 -983h-166z" />
<glyph unicode="X" horiz-adv-x="1067" d="M-57 0l536 729l-200 680h196l127 -535h4l379 535h186l-491 -664l231 -745h-202l-154 586h-4l-408 -586h-200z" />
<glyph unicode="Y" horiz-adv-x="1050" d="M231 1409h195l145 -637h4l424 637h189l-549 -784l-129 -625h-188l129 625z" />
<glyph unicode="Z" horiz-adv-x="894" d="M-49 0l778 1282h-483l26 127h723l-770 -1282h520l-26 -127h-768z" />
<glyph unicode="[" horiz-adv-x="712" d="M-31 -440l424 2048h443l-23 -107h-281l-378 -1833h278l-20 -108h-443z" />
<glyph unicode="\" horiz-adv-x="1179" d="M258 1571l135 61l557 -2038l-135 -59z" />
<glyph unicode="]" horiz-adv-x="712" d="M-90 -440l22 108h281l377 1833h-279l23 107h442l-424 -2048h-442z" />
<glyph unicode="^" horiz-adv-x="1191" d="M295 979l383 395q48 51 106 51q57 0 86 -51l220 -395l-78 -66l-252 373l-404 -373z" />
<glyph unicode="_" d="M-205 -403l25 116h1122l-24 -116h-1123z" />
<glyph unicode="`" horiz-adv-x="434" d="M211 1503q24 37 84 37q64 0 102 -35l88 -280h-94z" />
<glyph unicode="a" horiz-adv-x="1093" d="M100 375q0 133 48.5 278.5t127.5 247.5q175 223 461 223q97 0 185.5 -23t134.5 -54l-205 -990q-135 -77 -354 -77q-194 0 -296 106t-102 289zM281 371q0 -273 237 -273q107 0 172 35l176 852q-55 31 -147 31q-193 0 -313 -191q-57 -90 -91 -216t-34 -238z" />
<glyph unicode="b" horiz-adv-x="1085" d="M53 57l322 1551h178l-111 -541q89 49 230 49q159 0 248.5 -101t89.5 -282q0 -132 -47.5 -279t-124.5 -249q-172 -225 -465 -225q-95 0 -185.5 21.5t-134.5 55.5zM248 121q49 -25 141 -25q199 0 316 185q56 89 91 220.5t35 241.5q0 124 -52 196.5t-163 72.5 q-115 0 -196 -43z" />
<glyph unicode="c" horiz-adv-x="860" d="M104 389q0 126 41 264t109 238q76 114 179.5 173.5t223.5 59.5q79 0 145.5 -24t94.5 -53l-68 -97q-68 49 -149 49q-174 0 -281 -178q-51 -86 -82.5 -208.5t-31.5 -229.5q0 -127 49.5 -197.5t146.5 -70.5q51 0 101 17.5t82 41.5l24 -117q-39 -33 -108.5 -55t-147.5 -22 q-151 0 -239.5 111.5t-88.5 297.5z" />
<glyph unicode="d" d="M98 375q0 130 46 273t122 243q84 110 199 168.5t250 58.5q95 0 172 -24l104 514h180l-321 -1551q-135 -77 -354 -77q-190 0 -294 105t-104 290zM276 371q0 -130 58.5 -201.5t181.5 -71.5q105 0 170 35l180 862q-65 19 -131 19q-209 0 -334 -195q-57 -89 -91 -213.5 t-34 -234.5z" />
<glyph unicode="e" horiz-adv-x="1073" d="M100 375q0 125 41.5 264t108.5 242q79 119 190 181t238 62q160 0 248 -90t88 -264q0 -87 -23 -188l-715 -101q-7 -51 -7 -95q0 -277 263 -277q155 0 287 67l23 -119q-143 -77 -342 -77q-186 0 -293 99t-107 296zM289 580l547 82q16 82 16 133q0 215 -193 215 q-83 0 -157.5 -49t-130.5 -146q-56 -102 -82 -235z" />
<glyph unicode="f" horiz-adv-x="643" d="M104 0l205 993h-125l23 111h127l31 156q18 92 59.5 162t97.5 109.5t117 59t127 19.5q31 0 45 -2l-25 -115h-5q-43 0 -86 -17q-45 -18 -88 -69t-58 -129l-35 -174h193l-23 -111h-195l-204 -993h-181z" />
<glyph unicode="g" horiz-adv-x="1085" d="M-14 -383l73 111q40 -25 109.5 -41.5t142.5 -16.5q140 0 224 79.5t112 207.5l19 76q-89 -47 -224 -47q-163 0 -255.5 101t-92.5 278q0 128 45.5 270.5t118.5 245.5q174 243 473 243q99 0 186 -22.5t132 -52.5l-222 -1072q-43 -209 -176 -323.5t-334 -114.5 q-96 0 -185 21.5t-146 56.5zM270 346q0 -252 230 -252q108 0 186 45l176 848q-52 29 -147 29q-200 0 -324 -211q-53 -91 -87 -220.5t-34 -238.5z" />
<glyph unicode="h" horiz-adv-x="1093" d="M41 0l334 1608h180l-115 -555q53 30 128 50.5t143 20.5q146 0 222.5 -68.5t76.5 -189.5q0 -40 -9 -86l-161 -780h-181l164 791q6 30 6 59q0 72 -42 116t-138 44q-108 0 -229 -62l-199 -948h-180z" />
<glyph unicode="i" horiz-adv-x="485" d="M49 0l230 1104h178l-228 -1104h-180zM324 1395q0 45 38.5 81.5t88.5 36.5q38 0 63 -23t25 -56q0 -46 -39 -82.5t-90 -36.5q-38 0 -62 23t-24 57z" />
<glyph unicode="j" horiz-adv-x="497" d="M-285 -453l27 129q124 42 213 145.5t119 248.5l215 1034h180l-211 -1020q-44 -214 -187.5 -355.5t-355.5 -181.5zM336 1395q0 45 39.5 81.5t89.5 36.5q38 0 62 -23t24 -56q0 -46 -38 -82.5t-89 -36.5q-38 0 -63 23t-25 57z" />
<glyph unicode="k" horiz-adv-x="976" d="M51 0l334 1608h176l-209 -1016h4l498 512h195l-535 -522l352 -582h-202l-314 569h-4l-119 -569h-176z" />
<glyph unicode="l" horiz-adv-x="491" d="M51 0l334 1608h178l-334 -1608h-178z" />
<glyph unicode="m" horiz-adv-x="1712" d="M41 0l217 1047q174 77 399 77q220 0 304 -133q63 57 162 95t208 38q155 0 227 -69.5t72 -184.5q0 -25 -8 -75l-164 -795h-180l166 795q6 35 6 65q0 148 -176 148q-67 0 -134.5 -30t-113.5 -77l-186 -901h-181l168 803q4 18 4 53q0 152 -202 152q-112 0 -205 -37 l-203 -971h-180z" />
<glyph unicode="n" horiz-adv-x="1093" d="M41 0l217 1047q170 77 408 77q179 0 262.5 -71t83.5 -187q0 -46 -8 -82l-164 -784h-181l166 795q6 34 6 63q0 67 -46.5 108.5t-147.5 41.5q-115 0 -213 -37l-203 -971h-180z" />
<glyph unicode="o" horiz-adv-x="1083" d="M98 352q0 129 40.5 276.5t105.5 252.5q150 243 422 243q171 0 255.5 -98.5t84.5 -271.5q0 -128 -40.5 -276.5t-105.5 -252.5q-154 -245 -422 -245q-171 0 -255.5 99.5t-84.5 272.5zM272 336q0 -232 183 -232q169 0 268 199q46 92 78.5 233.5t32.5 245.5q0 228 -181 228 q-173 0 -272 -203q-45 -92 -77 -230t-32 -241z" />
<glyph unicode="p" horiz-adv-x="1085" d="M-49 -440l309 1487q150 77 354 77q190 0 292 -103.5t102 -287.5q0 -126 -44 -266.5t-116 -241.5q-171 -241 -455 -241q-101 0 -170 26l-94 -450h-178zM246 117q47 -21 125 -21q217 0 342 207q54 88 86 215t32 238q0 126 -57 192t-182 66q-88 0 -166 -33z" />
<glyph unicode="q" horiz-adv-x="1085" d="M96 365q0 128 44.5 271t117.5 245q174 243 477 243q97 0 183.5 -22.5t134.5 -54.5l-310 -1487h-176l99 473q-93 -49 -228 -49q-164 0 -253 102t-89 279zM272 350q0 -254 228 -254q111 0 188 43l174 848q-52 29 -145 29q-100 0 -182 -53.5t-140 -151.5 q-54 -92 -88.5 -222.5t-34.5 -238.5z" />
<glyph unicode="r" horiz-adv-x="665" d="M41 0l217 1047q158 77 412 77q24 0 78 -4l-70 -137q-62 15 -120 15q-14 0 -26 -1q-70 -4 -110 -28l-201 -969h-180z" />
<glyph unicode="s" horiz-adv-x="829" d="M-18 57l69 113q30 -25 83.5 -42t121.5 -17q109 0 181.5 72t72.5 167q0 42 -19 74t-49 52.5t-66.5 39t-73 39t-66.5 46.5t-49 68.5t-19 98.5q0 68 28 132t78 113.5t125 80t162 30.5q153 0 246 -77l-64 -99q-28 24 -74.5 40t-99.5 16q-96 0 -161.5 -63.5t-65.5 -149.5 q0 -41 19.5 -72.5t50.5 -52t69 -39t76 -39.5t69 -47t50.5 -69t19.5 -99q0 -76 -31 -147t-87 -125.5t-141 -87.5t-185 -33q-80 0 -153 21.5t-117 55.5z" />
<glyph unicode="t" horiz-adv-x="661" d="M154 197q0 42 8 75l147 721h-125l23 111h127l51 254l195 55l-66 -309h191l-25 -111h-191l-147 -721q-6 -27 -6 -55q0 -106 106 -106q23 0 58 10l-23 -117q-46 -16 -102 -16q-114 0 -167.5 58t-53.5 151z" />
<glyph unicode="u" horiz-adv-x="1073" d="M102 244q0 50 11 98l157 762h181l-160 -768q-8 -33 -8 -76q0 -154 186 -154q125 0 203 35l198 963h181l-217 -1047q-63 -35 -166.5 -56t-223.5 -21q-342 0 -342 264z" />
<glyph unicode="v" horiz-adv-x="1019" d="M193 1104h186l70 -793q3 -33 3.5 -66t-0.5 -50l-1 -17h4q14 59 51 133l399 793h174l-585 -1104h-164z" />
<glyph unicode="w" horiz-adv-x="1601" d="M205 1104h178l29 -793v-34.5v-32.5q-1 -32 -2 -48l-2 -16h4q14 53 53 131l389 793h154l53 -793q2 -28 2 -61t-1 -52l-1 -18h4q20 70 49 133l363 791h170l-543 -1104h-158l-57 788q-2 29 -2 61.5t1 50.5l1 18h-4q-16 -62 -49 -130l-390 -788h-157z" />
<glyph unicode="x" horiz-adv-x="978" d="M-49 0l463 575l-197 529h178l133 -402h4l304 402h178l-422 -524l225 -580h-188l-150 446h-4l-332 -446h-192z" />
<glyph unicode="y" horiz-adv-x="1021" d="M59 -440l273 442l-139 1102h188l63 -795q3 -34 3 -68t-1 -51l-2 -18h5q16 61 55 137l401 795h174l-825 -1544h-195z" />
<glyph unicode="z" horiz-adv-x="862" d="M-39 0l666 993h-426l24 111h660l-658 -991h467l-22 -113h-711z" />
<glyph unicode="{" horiz-adv-x="770" d="M133 625l21 100q158 9 198 201l82 393q17 82 56 139.5t98.5 89.5t129.5 46t159 14l-21 -99q-111 0 -176.5 -42t-87.5 -150l-80 -391q-14 -68 -37 -115t-54 -73.5t-60.5 -39.5t-69.5 -22v-4q57 -14 91 -59t34 -115q0 -40 -8 -76l-76 -363q-8 -36 -8 -73q0 -148 186 -148 l-23 -100q-154 0 -237.5 62.5t-83.5 187.5q0 41 8 80l74 354q8 39 8 82q0 115 -123 121z" />
<glyph unicode="|" horiz-adv-x="452" d="M-45 -440l424 2048h149l-424 -2048h-149z" />
<glyph unicode="}" horiz-adv-x="770" d="M-43 -262l20 100q112 0 178 47.5t87 149.5l82 387q26 121 80.5 177.5t138.5 72.5v4q-57 13 -91 56.5t-34 115.5q0 30 10 78l78 372q8 33 8 70q0 74 -45 107.5t-143 33.5l20 99q148 0 236 -59.5t88 -186.5q0 -42 -8 -78l-74 -358q-10 -52 -10 -82q0 -60 32 -88t92 -31 l-20 -100q-81 -4 -130 -54.5t-69 -148.5l-82 -385q-18 -87 -57 -146.5t-98.5 -92.5t-128.5 -46.5t-160 -13.5z" />
<glyph unicode="~" horiz-adv-x="1193" d="M207 657q99 164 258 164q53 0 102 -20.5t80 -45t74 -45t86 -20.5q69 0 113.5 36.5t87.5 107.5l51 -113q-37 -76 -101 -120t-151 -44q-49 0 -95.5 20.5t-77.5 45t-76.5 45t-92.5 20.5q-70 0 -120.5 -36t-92.5 -103z" />
<glyph unicode="&#xa1;" horiz-adv-x="612" d="M23 -440l235 946h135l-157 -946h-213zM279 836q0 53 43.5 97t99.5 44q42 0 69 -27t27 -67q0 -53 -43.5 -96.5t-99.5 -43.5q-42 0 -69 26.5t-27 66.5z" />
<glyph unicode="&#xa2;" d="M225 563q0 128 49 260t134 221q124 130 286 148l27 215h125l-60 -213q61 -2 117 -17.5t86 -41.5l-57 -95q-53 43 -156 43q-147 0 -244 -114q-61 -72 -96 -184.5t-35 -215.5q0 -233 211 -233q113 0 179 49l22 -109q-85 -58 -233 -61l-29 -215h-125l66 219 q-123 18 -195 107t-72 237z" />
<glyph unicode="&#xa3;" d="M59 0q112 109 194 237t107 250q18 91 15 189h-199l23 106h168q-15 154 10 277q33 164 163 267.5t328 103.5q87 0 166 -21.5t119 -50.5l-66 -109q-32 20 -89.5 35.5t-123.5 15.5q-134 0 -221.5 -80t-113.5 -208q-20 -107 -9 -230h279l-23 -106h-256q2 -77 -20 -189 q-19 -90 -76.5 -191.5t-97.5 -145.5h590l-31 -150h-836z" />
<glyph unicode="&#xa4;" d="M63 328l175 145q-41 68 -41 160q0 82 36 160t97 139l-119 149l78 66l121 -150q121 80 243 80q130 0 215 -76l172 144l66 -78l-172 -145q37 -67 37 -152q0 -84 -35.5 -163.5t-97.5 -141.5l120 -150l-81 -63l-117 147q-118 -80 -244 -80q-124 0 -213 76l-174 -143zM322 643 q0 -91 56 -149t148 -58q124 0 223 97t99 221q0 92 -56.5 151.5t-150.5 59.5q-124 0 -221.5 -98.5t-97.5 -223.5z" />
<glyph unicode="&#xa5;" d="M100 555l19 94l352 -14l-59 205l-256 -17l20 92l219 -14l-143 508h184l148 -653h4l430 653h178l-356 -508l225 14l-18 -92l-248 17l-144 -205l355 14l-19 -94l-352 20l-119 -575h-176l119 575z" />
<glyph unicode="&#xa6;" horiz-adv-x="452" d="M-45 -440l166 809h151l-168 -809h-149zM211 799l168 809h149l-166 -809h-151z" />
<glyph unicode="&#xa7;" d="M49 -383l68 107q27 -24 75.5 -42t104.5 -18q102 0 170 62t68 155q0 72 -78 150l-176 178q-117 117 -117 262q0 79 24.5 145t72.5 118t100.5 90t127.5 79q-79 91 -79 199q0 136 102 232t262 96q76 0 140.5 -23.5t101.5 -54.5l-62 -95q-75 56 -170 56q-91 0 -153 -57 t-62 -148q0 -82 97 -182l137 -140q68 -70 98.5 -133t30.5 -133q0 -75 -26 -140t-75.5 -116t-102.5 -88.5t-124 -75.5q96 -104 96 -213q0 -64 -26 -125.5t-74.5 -111.5t-126 -80.5t-172.5 -30.5q-151 0 -252 78zM309 514q0 -113 90 -203l133 -133q57 32 95 59t75 65.5 t55.5 87t18.5 106.5q0 101 -82 186l-141 145q-55 -30 -93.5 -57.5t-75.5 -65t-56 -85.5t-19 -105z" />
<glyph unicode="&#xa8;" horiz-adv-x="434" d="M127 1333q0 41 35 74t78 33q33 0 54 -21.5t21 -52.5q0 -40 -33.5 -72t-78.5 -32q-34 0 -55 20t-21 51zM467 1333q0 41 34 74t77 33q33 0 55 -21.5t22 -52.5q0 -40 -33.5 -72t-78.5 -32q-34 0 -55 20t-21 51z" />
<glyph unicode="&#xa9;" horiz-adv-x="1703" d="M152 567q0 166 74.5 325.5t195 276.5t281.5 189t327 72q130 0 243 -45.5t191.5 -124.5t123 -188t44.5 -234q0 -166 -75 -324.5t-196 -275t-282.5 -187.5t-326.5 -71q-174 0 -311.5 77t-213 210.5t-75.5 299.5zM244 573q0 -221 143 -365.5t371 -144.5q147 0 290 64.5 t250 170t173.5 247.5t66.5 289q0 223 -142.5 368.5t-371.5 145.5q-147 0 -290.5 -65.5t-250.5 -171.5t-173 -248.5t-66 -289.5zM463 627q0 95 44 189t115 164t165.5 113.5t189.5 43.5q101 0 178.5 -43.5t118.5 -112.5l-70 -55q-86 125 -233 125q-103 0 -199 -59.5 t-154.5 -156.5t-58.5 -200q0 -116 74.5 -190t191.5 -74q76 0 151 34t130 91l65 -60q-161 -155 -358 -155q-156 0 -253 98.5t-97 247.5z" />
<glyph unicode="&#xaa;" horiz-adv-x="765" d="M180 934q0 87 31.5 181t83.5 161q117 149 307 149q66 0 125 -15.5t92 -39.5l-135 -647q-93 -53 -235 -53q-130 0 -199.5 71t-69.5 193zM315 930q0 -168 146 -168q66 0 104 20l111 539q-32 16 -88 16q-119 0 -195 -118q-36 -57 -57 -137.5t-21 -151.5z" />
<glyph unicode="&#xab;" horiz-adv-x="1032" d="M147 686l392 444l92 -69l-344 -387l176 -373l-107 -61zM526 686l392 444l90 -69l-342 -387l176 -373l-107 -61z" />
<glyph unicode="&#xac;" d="M152 625l26 123h787l-93 -451h-131l68 328h-657z" />
<glyph unicode="&#xad;" horiz-adv-x="710" d="M143 616l31 144h465l-29 -144h-467z" />
<glyph unicode="&#xae;" horiz-adv-x="1703" d="M152 567q0 166 74.5 325.5t195.5 276.5t282 189t326 72q130 0 243 -45.5t191.5 -124.5t123 -188t44.5 -234q0 -166 -75 -324.5t-196 -275t-282.5 -187.5t-326.5 -71q-174 0 -311.5 77t-213 210.5t-75.5 299.5zM244 573q0 -221 143 -365.5t371 -144.5q147 0 290 64.5 t250 170t173.5 247.5t66.5 289q0 223 -142.5 368.5t-371.5 145.5q-147 0 -290.5 -65.5t-250.5 -171.5t-173 -248.5t-66 -289.5zM575 289l173 827q91 43 213 43q103 0 171 -50.5t68 -139.5q0 -122 -89.5 -198.5t-223.5 -84.5l209 -397h-109l-201 393h-32l-82 -393h-97z M766 748h84q109 0 180.5 58t71.5 157q0 116 -166 116q-51 0 -105 -16z" />
<glyph unicode="&#xaf;" horiz-adv-x="434" d="M90 1290l23 103h579l-22 -103h-580z" />
<glyph unicode="&#xb0;" horiz-adv-x="878" d="M250 1061q0 143 115 256t262 113q112 0 183 -69.5t71 -176.5q0 -140 -113.5 -253.5t-263.5 -113.5q-112 0 -183 69.5t-71 174.5zM354 1077q0 -71 44.5 -117.5t117.5 -46.5q102 0 182 78.5t80 179.5q0 72 -45 120t-119 48q-101 0 -180.5 -80.5t-79.5 -181.5z" />
<glyph unicode="&#xb1;" d="M78 147l22 117h787l-25 -117h-784zM201 745l24 119h328l72 350h129l-72 -350h330l-25 -119h-330l-73 -354h-129l73 354h-327z" />
<glyph unicode="&#xb2;" horiz-adv-x="765" d="M88 543l408 446q120 134 120 225q0 49 -34.5 78t-102.5 29q-77 0 -157 -37l-17 92q103 47 217 47t175 -51.5t61 -134.5q0 -75 -44 -146t-120 -151l-272 -287h329l-22 -110h-541z" />
<glyph unicode="&#xb3;" horiz-adv-x="765" d="M127 580l55 90q58 -37 160 -37q96 0 153.5 61.5t57.5 147.5q0 73 -58.5 103.5t-150.5 23.5l16 84q105 6 176.5 54.5t71.5 129.5q0 42 -30 66t-86 24q-76 0 -156 -39l-19 86q96 49 218 49q90 0 148 -45t58 -121t-49.5 -136.5t-132.5 -90.5q60 -22 96.5 -66.5t36.5 -111.5 q0 -60 -22 -116.5t-64 -103t-110.5 -74.5t-153.5 -28q-138 0 -215 50z" />
<glyph unicode="&#xb4;" horiz-adv-x="434" d="M238 1225l200 280q56 35 123 35q71 0 80 -37l-297 -278h-106z" />
<glyph unicode="&#xb5;" horiz-adv-x="1075" d="M-49 -440l319 1544h181l-195 -944q27 -22 89 -42t116 -20q135 0 211 37l200 969h181l-217 -1047q-148 -77 -357 -77q-67 0 -138 23.5t-108 51.5l-102 -495h-180z" />
<glyph unicode="&#xb6;" d="M209 971q0 55 15 112t51 116.5t88 105.5t135 75t184 29h504l-21 -92h-69l-365 -1757h-129l365 1757h-260l-365 -1757h-129l227 1106q-110 24 -170.5 108.5t-60.5 196.5z" />
<glyph unicode="&#xb7;" horiz-adv-x="501" d="M172 680q0 53 43.5 97t99.5 44q43 0 70 -26t27 -66q0 -53 -44 -97t-100 -44q-42 0 -69 26t-27 66z" />
<glyph unicode="&#xb8;" horiz-adv-x="434" d="M-233 -401l55 69q54 -4 104 -4q128 0 194 25t66 69q0 30 -34 43t-107 13q-36 0 -106 -4l53 63q99 6 108 6q116 0 170 -30t54 -80q0 -83 -95 -131t-286 -48q-66 0 -176 9z" />
<glyph unicode="&#xb9;" horiz-adv-x="765" d="M281 1200v76q101 13 183 50t120 83h92l-178 -866h-133l143 696q-88 -29 -227 -39z" />
<glyph unicode="&#xba;" horiz-adv-x="765" d="M180 928q0 95 34 199t91 173q106 125 270 125q124 0 185 -68t61 -186q0 -99 -35 -204.5t-96 -175.5q-103 -121 -264 -121q-124 0 -185 69.5t-61 188.5zM311 911q0 -70 27.5 -108.5t95.5 -38.5q100 0 164 90q41 59 67.5 160t26.5 180q0 147 -123 147q-99 0 -163 -94 q-40 -58 -67.5 -158t-27.5 -178z" />
<glyph unicode="&#xbb;" horiz-adv-x="1032" d="M96 307l344 387l-176 373l105 63l211 -448l-392 -442zM475 307l342 387l-174 373l105 63l210 -448l-391 -442z" />
<glyph unicode="&#xbc;" horiz-adv-x="1646" d="M217 1200v76q101 13 183 50t120 83h92l-178 -866h-133l143 696q-88 -29 -227 -39zM272 10l967 1436l104 -45l-972 -1440zM842 193l18 86l471 587h125l-123 -590h70l-17 -83h-69l-41 -193h-123l41 193h-352zM958 276h250l74 347l25 106h-4q-33 -53 -76 -108z" />
<glyph unicode="&#xbd;" horiz-adv-x="1646" d="M225 1200v76q101 13 183 50t120 83h93l-179 -866h-133l144 696q-87 -29 -228 -39zM236 10l970 1436l101 -45l-971 -1440zM815 0l406 446q122 136 122 226q0 49 -34.5 77.5t-102.5 28.5q-69 0 -153 -37l-17 93q99 47 211 47q114 0 175 -52t61 -135q0 -75 -44 -146 t-120 -151l-270 -286h327l-22 -111h-539z" />
<glyph unicode="&#xbe;" horiz-adv-x="1646" d="M127 580l55 90q58 -37 160 -37q96 0 153.5 61.5t57.5 147.5q0 73 -58.5 103.5t-150.5 23.5l16 84q105 6 176.5 54.5t71.5 129.5q0 42 -30 66t-86 24q-76 0 -156 -39l-19 86q96 49 218 49q90 0 148 -45t58 -121t-49.5 -136.5t-132.5 -90.5q60 -22 96.5 -66.5t36.5 -111.5 q0 -60 -22 -116.5t-64 -103t-110.5 -74.5t-153.5 -28q-138 0 -215 50zM375 10l971 1436l102 -45l-973 -1440zM883 193l16 86l471 587h125l-123 -590h70l-17 -83h-69l-39 -193h-125l41 193h-350zM999 276h248l74 347l25 106h-5q-30 -53 -73 -108z" />
<glyph unicode="&#xbf;" horiz-adv-x="821" d="M-49 -195q0 77 31 144.5t84.5 117.5t118.5 86t139 58l84 297h135l-45 -356q-67 -16 -126 -41.5t-114 -64t-87 -95t-32 -123.5q0 -76 47 -117t158 -41q113 0 223 56l33 -107q-145 -78 -313 -78q-160 0 -248 68.5t-88 195.5zM426 840q0 53 44.5 97t100.5 44q43 0 70 -26 t27 -66q0 -53 -45 -97t-101 -44q-42 0 -69 26t-27 66z" />
<glyph unicode="&#xc0;" horiz-adv-x="1200" d="M-66 0l768 1409h172l183 -1409h-189l-45 422h-483l-223 -422h-183zM395 535h422l-53 534q-4 44 -6.5 86.5t-3.5 62.5v21h-4q-23 -72 -74 -170zM592 1794q24 37 84 37q64 0 102 -35l88 -280h-94z" />
<glyph unicode="&#xc1;" horiz-adv-x="1200" d="M-66 0l768 1409h172l183 -1409h-189l-45 422h-483l-223 -422h-183zM395 535h422l-53 534q-4 44 -6.5 86.5t-3.5 62.5v21h-4q-23 -72 -74 -170zM731 1516l201 280q56 35 123 35q71 0 80 -37l-297 -278h-107z" />
<glyph unicode="&#xc2;" horiz-adv-x="1200" d="M-66 0l768 1409h172l183 -1409h-189l-45 422h-483l-223 -422h-183zM395 535h422l-53 534q-4 44 -6.5 86.5t-3.5 62.5v21h-4q-23 -72 -74 -170zM551 1559l244 204q39 31 73 31q37 0 62 -31l160 -204l-58 -48l-182 164l-248 -164z" />
<glyph unicode="&#xc3;" horiz-adv-x="1200" d="M-66 0l768 1409h172l183 -1409h-189l-45 422h-483l-223 -422h-183zM395 535h422l-53 534q-4 44 -6.5 86.5t-3.5 62.5v21h-4q-23 -72 -74 -170zM541 1614q63 115 182 115q41 0 78.5 -21t72 -42t68.5 -21q41 0 76.5 24t56.5 62l51 -78q-27 -51 -73.5 -81t-102.5 -30 q-50 0 -117.5 40t-111.5 40q-77 0 -133 -88z" />
<glyph unicode="&#xc4;" horiz-adv-x="1200" d="M-66 0l768 1409h172l183 -1409h-189l-45 422h-483l-223 -422h-183zM395 535h422l-53 534q-4 44 -6.5 86.5t-3.5 62.5v21h-4q-23 -72 -74 -170zM571 1622q0 41 35 74t78 33q33 0 54.5 -22t21.5 -52q0 -40 -34 -72.5t-79 -32.5q-33 0 -54.5 20.5t-21.5 51.5zM911 1622 q0 41 34 74t77 33q33 0 55.5 -22t22.5 -52q0 -40 -34 -72.5t-79 -32.5q-33 0 -54.5 20.5t-21.5 51.5z" />
<glyph unicode="&#xc5;" horiz-adv-x="1200" d="M-66 0l768 1409h172l183 -1409h-189l-45 422h-483l-223 -422h-183zM395 535h422l-53 534q-4 44 -6.5 86.5t-3.5 62.5v21h-4q-23 -72 -74 -170zM676 1642q0 77 59 138t139 61q59 0 98.5 -38.5t39.5 -94.5q0 -76 -58.5 -136.5t-140.5 -60.5q-60 0 -98.5 37.5t-38.5 93.5z M748 1653q0 -33 20 -55.5t53 -22.5q48 0 83.5 39t35.5 86q0 33 -19.5 55.5t-52.5 22.5q-46 0 -83 -40t-37 -85z" />
<glyph unicode="&#xc6;" horiz-adv-x="1523" d="M-78 0l778 1409h754l-24 -127h-541l57 -491h393l-24 -125h-354l65 -539h383l-27 -127h-520l-41 422h-493l-226 -422h-180zM387 537h428l-55 583q-3 31 -4 64t0 50v17h-4q-19 -61 -58 -133z" />
<glyph unicode="&#xc7;" horiz-adv-x="983" d="M96 -401l56 69q54 -4 104 -4q128 0 194 25t66 69q0 30 -34 43t-107 13q-37 0 -107 -4l54 63q99 6 108 6q115 0 169 -29.5t54 -80.5q0 -83 -95 -131t-286 -48q-66 0 -176 9zM127 473q0 217 83 436.5t228 356.5q175 164 391 164q85 0 151 -22t105 -56l-71 -105 q-71 49 -170 49q-163 0 -289 -139q-106 -118 -169.5 -312t-63.5 -366q0 -356 260 -356q57 0 115.5 18t93.5 41l28 -125q-44 -33 -121.5 -55t-162.5 -22q-199 0 -303.5 134.5t-104.5 358.5z" />
<glyph unicode="&#xc8;" horiz-adv-x="913" d="M57 0l291 1409h653l-26 -127h-465l-100 -491h415l-24 -125h-418l-111 -539h465l-26 -127h-654zM510 1794q21 37 84 37q64 0 102 -35l88 -280h-94z" />
<glyph unicode="&#xc9;" horiz-adv-x="913" d="M57 0l291 1409h653l-26 -127h-465l-100 -491h415l-24 -125h-418l-111 -539h465l-26 -127h-654zM604 1516l201 280q56 35 123 35q71 0 80 -37l-297 -278h-107z" />
<glyph unicode="&#xca;" horiz-adv-x="913" d="M57 0l291 1409h653l-26 -127h-465l-100 -491h415l-24 -125h-418l-111 -539h465l-26 -127h-654zM426 1559l244 204q39 31 73 31q37 0 62 -31l160 -204l-58 -48l-182 164l-248 -164z" />
<glyph unicode="&#xcb;" horiz-adv-x="913" d="M57 0l291 1409h653l-26 -127h-465l-100 -491h415l-24 -125h-418l-111 -539h465l-26 -127h-654zM451 1622q0 41 34.5 74t77.5 33q33 0 54.5 -22t21.5 -52q0 -40 -34 -72.5t-79 -32.5q-33 0 -54 20.5t-21 51.5zM791 1622q0 41 33.5 74t76.5 33q33 0 55.5 -22t22.5 -52 q0 -40 -34 -72.5t-79 -32.5q-33 0 -54 20.5t-21 51.5z" />
<glyph unicode="&#xcc;" horiz-adv-x="528" d="M63 0l291 1409h191l-291 -1409h-191zM303 1794q24 37 84 37q64 0 102 -35l89 -280h-95z" />
<glyph unicode="&#xcd;" horiz-adv-x="528" d="M63 0l291 1409h191l-291 -1409h-191zM362 1516l201 280q56 35 123 35q71 0 80 -37l-297 -278h-107z" />
<glyph unicode="&#xce;" horiz-adv-x="528" d="M63 0l291 1409h191l-291 -1409h-191zM211 1559l244 204q39 31 73 31q37 0 62 -31l160 -204l-58 -48l-182 164l-248 -164z" />
<glyph unicode="&#xcf;" horiz-adv-x="528" d="M63 0l291 1409h191l-291 -1409h-191zM233 1622q0 41 35 74t78 33q33 0 54.5 -21.5t21.5 -52.5q0 -40 -34 -72.5t-79 -32.5q-33 0 -54.5 20.5t-21.5 51.5zM573 1622q0 41 34 74t77 33q33 0 55.5 -21.5t22.5 -52.5q0 -40 -34 -72.5t-79 -32.5q-33 0 -54.5 20.5t-21.5 51.5z " />
<glyph unicode="&#xd0;" horiz-adv-x="1271" d="M113 57l135 654h-123l22 102h123l113 539q162 78 379 78q229 0 347 -131t118 -359q0 -181 -69 -393t-181 -342q-193 -225 -520 -225q-102 0 -197.5 22t-146.5 55zM315 137q69 -26 164 -26q228 0 363 188q86 117 142 316t56 360q0 334 -301 334q-106 0 -188 -29l-96 -467 h237l-22 -102h-236z" />
<glyph unicode="&#xd1;" horiz-adv-x="1331" d="M57 0l291 1409h193l374 -989q15 -37 27.5 -74.5t17.5 -56.5l5 -19h4q8 68 26 156l203 983h158l-291 -1409h-158l-389 1026q-15 39 -29 82t-21 66l-7 24h-4q-11 -84 -29 -174l-213 -1024h-158zM604 1614q63 115 182 115q41 0 79 -21t72.5 -42t68.5 -21q41 0 76.5 24 t56.5 62l51 -78q-27 -51 -73.5 -81t-102.5 -30q-50 0 -118 40t-112 40q-77 0 -133 -88z" />
<glyph unicode="&#xd2;" horiz-adv-x="1249" d="M127 444q0 181 59.5 386.5t157.5 343.5q182 256 469 256q201 0 296 -123t95 -336q0 -183 -59 -393t-156 -347q-175 -251 -467 -251q-201 0 -298 124t-97 340zM309 418q0 -297 230 -297q194 0 321 229q67 122 114.5 317t47.5 339q0 297 -221 297q-190 0 -320 -224 q-73 -125 -122.5 -317.5t-49.5 -343.5zM651 1794q24 37 84 37q65 0 103 -35l88 -280h-95z" />
<glyph unicode="&#xd3;" horiz-adv-x="1249" d="M127 444q0 181 59.5 386.5t157.5 343.5q182 256 469 256q201 0 296 -123t95 -336q0 -183 -59 -393t-156 -347q-175 -251 -467 -251q-201 0 -298 124t-97 340zM309 418q0 -297 230 -297q194 0 321 229q67 122 114.5 317t47.5 339q0 297 -221 297q-190 0 -320 -224 q-73 -125 -122.5 -317.5t-49.5 -343.5zM727 1516l201 280q56 35 123 35q70 0 79 -37l-296 -278h-107z" />
<glyph unicode="&#xd4;" horiz-adv-x="1249" d="M127 444q0 181 59.5 386.5t157.5 343.5q182 256 469 256q201 0 296 -123t95 -336q0 -183 -59 -393t-156 -347q-175 -251 -467 -251q-201 0 -298 124t-97 340zM309 418q0 -297 230 -297q194 0 321 229q67 122 114.5 317t47.5 339q0 297 -221 297q-190 0 -320 -224 q-73 -125 -122.5 -317.5t-49.5 -343.5zM571 1559l244 204q39 31 74 31q36 0 61 -31l160 -204l-57 -48l-183 164l-247 -164z" />
<glyph unicode="&#xd5;" horiz-adv-x="1249" d="M127 444q0 181 59.5 386.5t157.5 343.5q182 256 469 256q201 0 296 -123t95 -336q0 -183 -59 -393t-156 -347q-175 -251 -467 -251q-201 0 -298 124t-97 340zM309 418q0 -297 230 -297q194 0 321 229q67 122 114.5 317t47.5 339q0 297 -221 297q-190 0 -320 -224 q-73 -125 -122.5 -317.5t-49.5 -343.5zM573 1614q61 115 183 115q41 0 78.5 -21t72 -42t68.5 -21q41 0 76 24.5t57 61.5l51 -78q-27 -51 -73.5 -81t-102.5 -30q-50 0 -117.5 40t-111.5 40q-77 0 -133 -88z" />
<glyph unicode="&#xd6;" horiz-adv-x="1249" d="M127 444q0 181 59.5 386.5t157.5 343.5q182 256 469 256q201 0 296 -123t95 -336q0 -183 -59 -393t-156 -347q-175 -251 -467 -251q-201 0 -298 124t-97 340zM309 418q0 -297 230 -297q194 0 321 229q67 122 114.5 317t47.5 339q0 297 -221 297q-190 0 -320 -224 q-73 -125 -122.5 -317.5t-49.5 -343.5zM594 1620q0 41 35 73.5t78 32.5q33 0 54 -21t21 -52q0 -40 -33.5 -72.5t-78.5 -32.5q-33 0 -54.5 20.5t-21.5 51.5zM934 1620q0 41 33.5 73.5t76.5 32.5q34 0 56 -21t22 -52q0 -40 -33.5 -72.5t-78.5 -32.5q-33 0 -54.5 20.5 t-21.5 51.5z" />
<glyph unicode="&#xd7;" d="M78 217l24 113h791l-25 -113h-790zM129 465l29 131l690 231l-594 232l22 117l730 -302l-23 -108z" />
<glyph unicode="&#xd8;" horiz-adv-x="1249" d="M20 -6l160 188q-49 107 -49 262q0 180 60.5 385.5t158.5 344.5q182 256 467 256q203 0 303 -134l148 174l51 -47l-160 -190q51 -108 51 -262q0 -182 -60 -392.5t-157 -347.5q-175 -251 -465 -251q-209 0 -309 139l-143 -170zM303 412q0 -40 6 -78l707 837 q-53 146 -207 146q-197 0 -330 -230q-79 -136 -127.5 -326.5t-48.5 -348.5zM328 248q51 -139 213 -139q203 0 333 235q71 131 118.5 323t47.5 343q0 25 -4 75z" />
<glyph unicode="&#xd9;" horiz-adv-x="1198" d="M129 307q0 41 10 96l209 1006h189l-209 -1006q-11 -53 -11 -79q0 -94 54 -145.5t145 -51.5q117 0 209.5 75t118.5 201l207 1006h172l-207 -1008q-37 -186 -179.5 -303.5t-342.5 -117.5q-171 0 -268 89.5t-97 237.5zM657 1794q24 37 84 37q65 0 103 -35l88 -280h-94z" />
<glyph unicode="&#xda;" horiz-adv-x="1198" d="M129 307q0 41 10 96l209 1006h189l-209 -1006q-11 -53 -11 -79q0 -94 54 -145.5t145 -51.5q117 0 209.5 75t118.5 201l207 1006h172l-207 -1008q-37 -186 -179.5 -303.5t-342.5 -117.5q-171 0 -268 89.5t-97 237.5zM707 1516l200 280q56 35 123 35q71 0 80 -37l-297 -278 h-106z" />
<glyph unicode="&#xdb;" horiz-adv-x="1198" d="M129 307q0 41 10 96l209 1006h189l-209 -1006q-11 -53 -11 -79q0 -94 54 -145.5t145 -51.5q117 0 209.5 75t118.5 201l207 1006h172l-207 -1008q-37 -186 -179.5 -303.5t-342.5 -117.5q-171 0 -268 89.5t-97 237.5zM551 1559l244 204q39 31 73 31q37 0 62 -31l160 -204 l-58 -48l-182 164l-248 -164z" />
<glyph unicode="&#xdc;" horiz-adv-x="1198" d="M129 307q0 41 10 96l209 1006h189l-209 -1006q-11 -53 -11 -79q0 -94 54 -145.5t145 -51.5q117 0 209.5 75t118.5 201l207 1006h172l-207 -1008q-37 -186 -179.5 -303.5t-342.5 -117.5q-171 0 -268 89.5t-97 237.5zM578 1622q0 41 34.5 74t77.5 33q33 0 54.5 -21.5 t21.5 -52.5q0 -40 -34 -72.5t-79 -32.5q-33 0 -54 20.5t-21 51.5zM918 1622q0 41 33.5 74t76.5 33q33 0 55.5 -21.5t22.5 -52.5q0 -40 -34 -72.5t-79 -32.5q-33 0 -54 20.5t-21 51.5z" />
<glyph unicode="&#xdd;" horiz-adv-x="1050" d="M231 1409h195l145 -637h4l424 637h189l-549 -784l-129 -625h-188l129 625zM645 1516l201 280q56 35 123 35q71 0 80 -37l-297 -278h-107z" />
<glyph unicode="&#xde;" d="M57 0l291 1409h187l-52 -248q98 25 176 25q188 0 289 -87t101 -239q0 -101 -39 -199.5t-109 -168.5q-160 -160 -459 -160q-40 0 -127 10l-71 -342h-187zM338 455q74 -9 115 -9q200 0 313 123q100 109 100 285q0 223 -250 223q-73 0 -153 -22z" />
<glyph unicode="&#xdf;" horiz-adv-x="1142" d="M51 0l225 1085q16 79 43.5 152.5t73 145t102.5 124t136.5 85t171.5 32.5q154 0 234.5 -88.5t80.5 -232.5q0 -169 -84 -324q-70 -8 -126.5 -30.5t-97 -73t-40.5 -121.5q0 -37 17.5 -69t44 -55t57.5 -52t57.5 -57t44 -72t17.5 -97q0 -146 -116.5 -256t-299.5 -110 q-60 0 -113 14t-82 35l60 110q46 -28 131 -28q103 0 175.5 65t72.5 166q0 48 -23.5 87t-57 67.5t-67 59t-57 76t-23.5 103.5q0 115 81 190.5t204 110.5q61 119 61 279q0 186 -161 186q-87 0 -158 -57.5t-114 -147t-68 -206.5l-228 -1096h-174z" />
<glyph unicode="&#xe0;" horiz-adv-x="1093" d="M100 375q0 133 48.5 278.5t127.5 247.5q175 223 461 223q97 0 185.5 -23t134.5 -54l-205 -990q-135 -77 -354 -77q-194 0 -296 106t-102 289zM281 371q0 -273 237 -273q107 0 172 35l176 852q-55 31 -147 31q-193 0 -313 -191q-57 -90 -91 -216t-34 -238zM569 1503 q24 37 84 37q65 0 103 -35l88 -280h-94z" />
<glyph unicode="&#xe1;" horiz-adv-x="1093" d="M100 375q0 133 48.5 278.5t127.5 247.5q175 223 461 223q97 0 185.5 -23t134.5 -54l-205 -990q-135 -77 -354 -77q-194 0 -296 106t-102 289zM281 371q0 -273 237 -273q107 0 172 35l176 852q-55 31 -147 31q-193 0 -313 -191q-57 -90 -91 -216t-34 -238zM680 1225 l201 280q56 35 123 35q70 0 79 -37l-297 -278h-106z" />
<glyph unicode="&#xe2;" horiz-adv-x="1093" d="M100 375q0 133 48.5 278.5t127.5 247.5q175 223 461 223q97 0 185.5 -23t134.5 -54l-205 -990q-135 -77 -354 -77q-194 0 -296 106t-102 289zM281 371q0 -273 237 -273q107 0 172 35l176 852q-55 31 -147 31q-193 0 -313 -191q-57 -90 -91 -216t-34 -238zM485 1268 l244 205q37 30 74 30t61 -30l160 -205l-57 -47l-183 163l-247 -163z" />
<glyph unicode="&#xe3;" horiz-adv-x="1093" d="M100 375q0 133 48.5 278.5t127.5 247.5q175 223 461 223q97 0 185.5 -23t134.5 -54l-205 -990q-135 -77 -354 -77q-194 0 -296 106t-102 289zM281 371q0 -273 237 -273q107 0 172 35l176 852q-55 31 -147 31q-193 0 -313 -191q-57 -90 -91 -216t-34 -238zM467 1323 q61 115 182 115q41 0 78.5 -21t72 -42t68.5 -21q41 0 76 24.5t57 61.5l52 -78q-27 -51 -73.5 -81t-102.5 -30q-50 0 -118 40t-112 40q-77 0 -133 -88z" />
<glyph unicode="&#xe4;" horiz-adv-x="1093" d="M100 375q0 133 48.5 278.5t127.5 247.5q175 223 461 223q97 0 185.5 -23t134.5 -54l-205 -990q-135 -77 -354 -77q-194 0 -296 106t-102 289zM281 371q0 -273 237 -273q107 0 172 35l176 852q-55 31 -147 31q-193 0 -313 -191q-57 -90 -91 -216t-34 -238zM520 1333 q0 41 35 74t78 33q33 0 54.5 -21.5t21.5 -52.5q0 -40 -34 -72t-79 -32q-34 0 -55 20t-21 51zM860 1333q0 41 34 74t77 33q33 0 55.5 -21.5t22.5 -52.5q0 -40 -34 -72t-79 -32q-34 0 -55 20t-21 51z" />
<glyph unicode="&#xe5;" horiz-adv-x="1093" d="M100 375q0 133 48.5 278.5t127.5 247.5q175 223 461 223q97 0 185.5 -23t134.5 -54l-205 -990q-135 -77 -354 -77q-194 0 -296 106t-102 289zM281 371q0 -273 237 -273q107 0 172 35l176 852q-55 31 -147 31q-193 0 -313 -191q-57 -90 -91 -216t-34 -238zM618 1354 q0 76 59.5 137t139.5 61q59 0 98 -38.5t39 -94.5q0 -76 -58 -136t-140 -60q-60 0 -99 37.5t-39 93.5zM690 1364q0 -33 20.5 -55.5t53.5 -22.5q48 0 83.5 39t35.5 86q0 33 -19.5 55.5t-52.5 22.5q-46 0 -83.5 -40t-37.5 -85z" />
<glyph unicode="&#xe6;" horiz-adv-x="1658" d="M57 229q0 131 75.5 231t201.5 158q161 73 430 99q2 9 8.5 39.5t10 51.5t3.5 40q0 49 -19.5 82.5t-53 49.5t-66 22t-69.5 6q-126 0 -271 -68l-20 107q150 77 338 77q243 0 280 -198q68 99 165.5 148.5t197.5 49.5q160 0 247 -87t87 -261q0 -90 -23 -194l-713 -101 q-30 -189 40 -282t212 -93q81 0 159.5 19t129.5 45l23 -117q-55 -31 -146.5 -52t-196.5 -21q-120 0 -204.5 52.5t-122.5 149.5q-69 -104 -157 -153t-224 -49q-150 0 -236 65.5t-86 183.5zM221 246q0 -80 50 -120t137 -40q93 0 171 57.5t99 155.5l65 322q-219 -26 -335 -84 q-87 -44 -137 -120t-50 -171zM879 582l542 80q17 90 17 139q0 207 -193 207q-125 0 -223.5 -106t-142.5 -320z" />
<glyph unicode="&#xe7;" horiz-adv-x="860" d="M-2 -401l55 69q54 -4 105 -4q128 0 194 25t66 69q0 30 -34 43t-108 13q-36 0 -106 -4l53 63q99 6 109 6q115 0 169 -29.5t54 -80.5q0 -83 -95 -131t-286 -48q-66 0 -176 9zM104 389q0 126 41 264t109 238q76 114 179.5 173.5t223.5 59.5q79 0 145.5 -24t94.5 -53l-68 -97 q-68 49 -149 49q-174 0 -281 -178q-51 -86 -82.5 -208.5t-31.5 -229.5q0 -127 49.5 -197.5t146.5 -70.5q51 0 101 17.5t82 41.5l24 -117q-39 -33 -108.5 -55t-147.5 -22q-151 0 -239.5 111.5t-88.5 297.5z" />
<glyph unicode="&#xe8;" horiz-adv-x="1073" d="M100 375q0 125 41.5 264t108.5 242q79 119 190 181t238 62q160 0 248 -90t88 -264q0 -87 -23 -188l-715 -101q-48 -372 256 -372q155 0 287 67l23 -119q-143 -77 -342 -77q-186 0 -293 99t-107 296zM289 580l547 82q16 82 16 133q0 215 -193 215q-83 0 -157.5 -49 t-130.5 -146q-56 -102 -82 -235zM514 1503q24 37 84 37q64 0 102 -35l88 -280h-94z" />
<glyph unicode="&#xe9;" horiz-adv-x="1073" d="M100 375q0 125 41.5 264t108.5 242q79 119 190 181t238 62q160 0 248 -90t88 -264q0 -87 -23 -188l-715 -101q-48 -372 256 -372q155 0 287 67l23 -119q-143 -77 -342 -77q-186 0 -293 99t-107 296zM289 580l547 82q16 82 16 133q0 215 -193 215q-83 0 -157.5 -49 t-130.5 -146q-56 -102 -82 -235zM621 1225l200 280q56 35 123 35q71 0 80 -37l-297 -278h-106z" />
<glyph unicode="&#xea;" horiz-adv-x="1073" d="M100 375q0 125 41.5 264t108.5 242q79 119 190 181t238 62q160 0 248 -90t88 -264q0 -87 -23 -188l-715 -101q-48 -372 256 -372q155 0 287 67l23 -119q-143 -77 -342 -77q-186 0 -293 99t-107 296zM289 580l547 82q16 82 16 133q0 215 -193 215q-83 0 -157.5 -49 t-130.5 -146q-56 -102 -82 -235zM438 1268l244 205q38 30 74 30q37 0 61 -30l160 -205l-57 -47l-183 163l-248 -163z" />
<glyph unicode="&#xeb;" horiz-adv-x="1073" d="M100 375q0 125 41.5 264t108.5 242q79 119 190 181t238 62q160 0 248 -90t88 -264q0 -87 -23 -188l-715 -101q-48 -372 256 -372q155 0 287 67l23 -119q-143 -77 -342 -77q-186 0 -293 99t-107 296zM289 580l547 82q16 82 16 133q0 215 -193 215q-83 0 -157.5 -49 t-130.5 -146q-56 -102 -82 -235zM469 1333q0 41 35 74t78 33q33 0 54 -21.5t21 -52.5q0 -40 -33.5 -72t-78.5 -32q-34 0 -55 20t-21 51zM809 1333q0 41 34 74t77 33q33 0 55 -21.5t22 -52.5q0 -40 -33.5 -72t-78.5 -32q-34 0 -55 20t-21 51z" />
<glyph unicode="&#xec;" horiz-adv-x="485" d="M49 0l230 1104h180l-230 -1104h-180zM217 1503q24 37 84 37q64 0 102 -35l89 -280h-95z" />
<glyph unicode="&#xed;" horiz-adv-x="485" d="M49 0l230 1104h180l-230 -1104h-180zM283 1225l200 280q56 35 123 35q71 0 80 -37l-297 -278h-106z" />
<glyph unicode="&#xee;" horiz-adv-x="485" d="M49 0l230 1104h180l-230 -1104h-180zM127 1268l244 205q37 30 73 30q38 0 62 -30l160 -205l-58 -47l-182 163l-248 -163z" />
<glyph unicode="&#xef;" horiz-adv-x="485" d="M49 0l230 1104h180l-230 -1104h-180zM152 1333q0 41 34.5 74t77.5 33q33 0 54.5 -21.5t21.5 -52.5q0 -40 -34 -72t-79 -32q-33 0 -54 20t-21 51zM492 1333q0 41 33.5 74t76.5 33q33 0 55.5 -21.5t22.5 -52.5q0 -40 -34 -72t-79 -32q-33 0 -54 20t-21 51z" />
<glyph unicode="&#xf0;" horiz-adv-x="1085" d="M98 365q0 131 44.5 276.5t117.5 249.5q74 106 177.5 165.5t230.5 59.5q68 0 139 -22q-32 170 -80 286l-197 -57q-3 9 -17 41.5t-17 36.5l192 57q-38 81 -63 119l145 45q39 -57 68 -119l180 53q8 -8 35 -75l-176 -54q129 -303 129 -618q0 -157 -39 -321t-113 -283 q-143 -230 -412 -230q-161 0 -252.5 104t-91.5 286zM276 356q0 -120 48 -187t149 -67q157 0 246 183q54 111 82 260.5t28 288.5q0 90 -12 155q-61 23 -141 23q-167 0 -279 -193q-52 -92 -86.5 -223.5t-34.5 -239.5z" />
<glyph unicode="&#xf1;" horiz-adv-x="1093" d="M41 0l217 1047q170 77 408 77q179 0 262.5 -71t83.5 -187q0 -46 -8 -82l-164 -784h-181l166 795q6 34 6 63q0 67 -46.5 108.5t-147.5 41.5q-115 0 -213 -37l-203 -971h-180zM416 1323q61 115 182 115q41 0 78.5 -21t72 -42t68.5 -21q41 0 76 24.5t57 61.5l51 -78 q-27 -51 -73.5 -81t-102.5 -30q-50 0 -117.5 40t-111.5 40q-77 0 -133 -88z" />
<glyph unicode="&#xf2;" horiz-adv-x="1083" d="M98 352q0 129 40.5 276.5t105.5 252.5q150 243 422 243q171 0 255.5 -98.5t84.5 -271.5q0 -128 -40.5 -276.5t-105.5 -252.5q-154 -245 -422 -245q-171 0 -255.5 99.5t-84.5 272.5zM272 336q0 -232 183 -232q169 0 268 199q46 92 78.5 233.5t32.5 245.5q0 228 -181 228 q-173 0 -272 -203q-45 -92 -77 -230t-32 -241zM498 1503q24 37 84 37q64 0 102 -35l88 -280h-94z" />
<glyph unicode="&#xf3;" horiz-adv-x="1083" d="M98 352q0 129 40.5 276.5t105.5 252.5q150 243 422 243q171 0 255.5 -98.5t84.5 -271.5q0 -128 -40.5 -276.5t-105.5 -252.5q-154 -245 -422 -245q-171 0 -255.5 99.5t-84.5 272.5zM272 336q0 -232 183 -232q169 0 268 199q46 92 78.5 233.5t32.5 245.5q0 228 -181 228 q-173 0 -272 -203q-45 -92 -77 -230t-32 -241zM604 1225l201 280q56 35 123 35q71 0 80 -37l-297 -278h-107z" />
<glyph unicode="&#xf4;" horiz-adv-x="1083" d="M98 352q0 129 40.5 276.5t105.5 252.5q150 243 422 243q171 0 255.5 -98.5t84.5 -271.5q0 -128 -40.5 -276.5t-105.5 -252.5q-154 -245 -422 -245q-171 0 -255.5 99.5t-84.5 272.5zM272 336q0 -232 183 -232q169 0 268 199q46 92 78.5 233.5t32.5 245.5q0 228 -181 228 q-173 0 -272 -203q-45 -92 -77 -230t-32 -241zM428 1268l244 205q38 30 73 30q38 0 62 -30l160 -205l-58 -47l-182 163l-248 -163z" />
<glyph unicode="&#xf5;" horiz-adv-x="1083" d="M98 352q0 129 40.5 276.5t105.5 252.5q150 243 422 243q171 0 255.5 -98.5t84.5 -271.5q0 -128 -40.5 -276.5t-105.5 -252.5q-154 -245 -422 -245q-171 0 -255.5 99.5t-84.5 272.5zM272 336q0 -232 183 -232q169 0 268 199q46 92 78.5 233.5t32.5 245.5q0 228 -181 228 q-173 0 -272 -203q-45 -92 -77 -230t-32 -241zM416 1323q61 115 182 115q41 0 78.5 -21t72 -42t68.5 -21q41 0 76 24.5t57 61.5l51 -78q-27 -51 -73.5 -81t-102.5 -30q-50 0 -117.5 40t-111.5 40q-77 0 -133 -88z" />
<glyph unicode="&#xf6;" horiz-adv-x="1083" d="M98 352q0 129 40.5 276.5t105.5 252.5q150 243 422 243q171 0 255.5 -98.5t84.5 -271.5q0 -128 -40.5 -276.5t-105.5 -252.5q-154 -245 -422 -245q-171 0 -255.5 99.5t-84.5 272.5zM272 336q0 -232 183 -232q169 0 268 199q46 92 78.5 233.5t32.5 245.5q0 228 -181 228 q-173 0 -272 -203q-45 -92 -77 -230t-32 -241zM451 1333q0 41 34.5 74t77.5 33q33 0 54.5 -21.5t21.5 -52.5q0 -40 -34 -72t-79 -32q-33 0 -54 20t-21 51zM791 1333q0 41 33.5 74t76.5 33q33 0 55.5 -21.5t22.5 -52.5q0 -40 -34 -72t-79 -32q-33 0 -54 20t-21 51z" />
<glyph unicode="&#xf7;" d="M174 629l23 106h786l-22 -106h-787zM406 334q0 47 38 85t88 38q37 0 59.5 -22.5t22.5 -57.5q0 -46 -38 -84.5t-87 -38.5q-36 0 -59.5 23t-23.5 57zM541 985q0 47 37.5 85t87.5 38q37 0 60.5 -22.5t23.5 -57.5q0 -46 -39 -84.5t-88 -38.5q-36 0 -59 23t-23 57z" />
<glyph unicode="&#xf8;" horiz-adv-x="1083" d="M27 -57l131 168q-62 91 -62 241q0 128 41 276t107 253q150 243 420 243q149 0 233 -75l121 153l49 -37l-129 -164q66 -92 66 -247q0 -128 -40.5 -276.5t-105.5 -252.5q-154 -245 -422 -245q-150 0 -237 81l-125 -161zM260 334q0 -59 6 -86l545 692q-47 86 -156 86 q-179 0 -284 -211q-49 -97 -80 -234.5t-31 -246.5zM291 176q47 -86 160 -86q176 0 278 205q48 97 81.5 236.5t33.5 250.5q0 52 -8 88z" />
<glyph unicode="&#xf9;" horiz-adv-x="1073" d="M102 244q0 50 11 98l157 762h181l-160 -768q-8 -33 -8 -76q0 -154 186 -154q125 0 203 35l198 963h181l-217 -1047q-63 -35 -166.5 -56t-223.5 -21q-342 0 -342 264zM518 1503q24 37 84 37q65 0 103 -35l88 -280h-95z" />
<glyph unicode="&#xfa;" horiz-adv-x="1073" d="M102 244q0 50 11 98l157 762h181l-160 -768q-8 -33 -8 -76q0 -154 186 -154q125 0 203 35l198 963h181l-217 -1047q-63 -35 -166.5 -56t-223.5 -21q-342 0 -342 264zM604 1225l201 280q56 35 123 35q71 0 80 -37l-297 -278h-107z" />
<glyph unicode="&#xfb;" horiz-adv-x="1073" d="M102 244q0 50 11 98l157 762h181l-160 -768q-8 -33 -8 -76q0 -154 186 -154q125 0 203 35l198 963h181l-217 -1047q-63 -35 -166.5 -56t-223.5 -21q-342 0 -342 264zM424 1268l244 205q37 30 73 30q38 0 62 -30l160 -205l-58 -47l-182 163l-248 -163z" />
<glyph unicode="&#xfc;" horiz-adv-x="1073" d="M102 244q0 50 11 98l157 762h181l-160 -768q-8 -33 -8 -76q0 -154 186 -154q125 0 203 35l198 963h181l-217 -1047q-63 -35 -166.5 -56t-223.5 -21q-342 0 -342 264zM446 1333q0 41 35 74t78 33q33 0 54.5 -21.5t21.5 -52.5q0 -40 -34 -72t-79 -32q-34 0 -55 20t-21 51z M786 1333q0 41 34 74t77 33q33 0 55.5 -21.5t22.5 -52.5q0 -40 -34 -72t-79 -32q-34 0 -55 20t-21 51z" />
<glyph unicode="&#xfd;" horiz-adv-x="1021" d="M59 -440l273 442l-139 1102h188l63 -795q3 -34 3 -68t-1 -51l-2 -18h5q16 61 55 137l401 795h174l-825 -1544h-195zM582 1225l200 280q56 35 123 35q71 0 80 -37l-297 -278h-106z" />
<glyph unicode="&#xfe;" d="M-49 -440l424 2048h178l-113 -537q100 49 203 49q177 0 273 -97t96 -278q0 -138 -49.5 -286.5t-131.5 -253.5q-86 -109 -200.5 -166t-245.5 -57q-82 0 -164 24l-92 -446h-178zM244 113q67 -23 131 -23q199 0 327 189q60 90 97 224t37 249q0 126 -58.5 193t-189.5 67 q-91 0 -166 -37z" />
<glyph unicode="&#xff;" horiz-adv-x="1021" d="M59 -440l273 442l-139 1102h188l63 -795q3 -34 3 -68t-1 -51l-2 -18h5q16 61 55 137l401 795h174l-825 -1544h-195zM428 1333q0 41 35 74t78 33q33 0 54 -21.5t21 -52.5q0 -40 -33.5 -72t-78.5 -32q-34 0 -55 20t-21 51zM768 1333q0 41 34 74t77 33q33 0 55 -21.5 t22 -52.5q0 -40 -33.5 -72t-78.5 -32q-34 0 -55 20t-21 51z" />
<glyph unicode="&#x152;" horiz-adv-x="1564" d="M127 469q0 187 64.5 388t175.5 335q199 238 497 238q79 0 166 -21h623l-27 -127h-463l-102 -491h418l-25 -125h-420l-108 -537h463l-27 -129h-625q-74 -20 -172 -20q-214 0 -326 130.5t-112 358.5zM315 446q0 -340 273 -340q104 0 160 17l243 1175q-55 15 -137 15 q-208 0 -348 -203q-85 -124 -138 -313t-53 -351z" />
<glyph unicode="&#x153;" horiz-adv-x="1728" d="M98 354q0 154 54.5 324t146.5 276q148 170 365 170q224 0 284 -227q73 113 177 170t212 57q332 0 332 -346q0 -80 -22 -196l-707 -101q-13 -106 2.5 -181.5t54.5 -116.5t88 -59t111 -18q143 0 279 68l24 -117q-142 -77 -338 -77q-129 0 -219.5 62t-118.5 189 q-69 -123 -169 -187t-220 -64q-170 0 -253 100.5t-83 273.5zM270 338q0 -236 176 -236q161 0 259 174q52 91 89 246.5t37 268.5q0 102 -40 160.5t-138 58.5q-139 0 -233 -136q-65 -93 -107.5 -251t-42.5 -285zM950 582l543 77q16 85 16 140q0 217 -188 217 q-126 0 -227.5 -110.5t-143.5 -323.5z" />
<glyph unicode="&#x178;" horiz-adv-x="1050" d="M231 1409h195l145 -637h4l424 637h189l-549 -784l-129 -625h-188l129 625zM498 1622q0 41 34.5 74t77.5 33q33 0 54.5 -21.5t21.5 -52.5q0 -40 -34 -72.5t-79 -32.5q-33 0 -54 20.5t-21 51.5zM838 1622q0 41 33.5 74t76.5 33q33 0 55.5 -21.5t22.5 -52.5q0 -40 -34 -72.5 t-79 -32.5q-33 0 -54 20.5t-21 51.5z" />
<glyph unicode="&#x2c6;" horiz-adv-x="434" d="M104 1268l244 205q38 30 74 30q37 0 61 -30l160 -205l-57 -47l-183 163l-247 -163z" />
<glyph unicode="&#x2dc;" horiz-adv-x="434" d="M96 1323q61 115 183 115q41 0 78.5 -21t72 -42t68.5 -21q41 0 76 24.5t57 61.5l51 -78q-27 -51 -73.5 -81t-102.5 -30q-50 0 -118 40t-112 40q-77 0 -133 -88z" />
<glyph unicode="&#x2000;" horiz-adv-x="920" />
<glyph unicode="&#x2001;" horiz-adv-x="1841" />
<glyph unicode="&#x2002;" horiz-adv-x="920" />
<glyph unicode="&#x2003;" horiz-adv-x="1841" />
<glyph unicode="&#x2004;" horiz-adv-x="613" />
<glyph unicode="&#x2005;" horiz-adv-x="460" />
<glyph unicode="&#x2006;" horiz-adv-x="306" />
<glyph unicode="&#x2007;" horiz-adv-x="306" />
<glyph unicode="&#x2008;" horiz-adv-x="230" />
<glyph unicode="&#x2009;" horiz-adv-x="368" />
<glyph unicode="&#x200a;" horiz-adv-x="102" />
<glyph unicode="&#x2010;" horiz-adv-x="710" d="M143 616l31 144h465l-29 -144h-467z" />
<glyph unicode="&#x2011;" horiz-adv-x="710" d="M143 616l31 144h465l-29 -144h-467z" />
<glyph unicode="&#x2012;" horiz-adv-x="710" d="M143 616l31 144h465l-29 -144h-467z" />
<glyph unicode="&#x2013;" horiz-adv-x="802" d="M18 625l25 125h815l-24 -125h-816z" />
<glyph unicode="&#x2014;" horiz-adv-x="1605" d="M18 633l23 106h1620l-23 -106h-1620z" />
<glyph unicode="&#x2018;" horiz-adv-x="540" d="M223 1102l352 506h101l-266 -506q-47 -51 -123 -51q-31 0 -46.5 15t-17.5 36z" />
<glyph unicode="&#x2019;" horiz-adv-x="540" d="M203 1059l266 506q47 51 125 51q59 0 63 -51l-354 -506h-100z" />
<glyph unicode="&#x201a;" horiz-adv-x="540" d="M-86 -346l266 506q47 51 125 51q58 0 62 -51l-353 -506h-100z" />
<glyph unicode="&#x201c;" horiz-adv-x="903" d="M223 1102l352 506h101l-266 -506q-47 -51 -123 -51q-31 0 -46.5 15t-17.5 36zM586 1102l352 506h102l-266 -506q-47 -51 -125 -51q-59 0 -63 51z" />
<glyph unicode="&#x201d;" horiz-adv-x="903" d="M203 1059l266 506q47 51 125 51q59 0 63 -51l-354 -506h-100zM565 1059l269 506q47 51 122 51q31 0 46.5 -15t17.5 -36l-352 -506h-103z" />
<glyph unicode="&#x201e;" horiz-adv-x="903" d="M-86 -346l266 506q47 51 123 51q31 0 46.5 -15t17.5 -36l-353 -506h-100zM276 -346l267 506q47 51 125 51q57 0 61 -51l-352 -506h-101z" />
<glyph unicode="&#x2022;" horiz-adv-x="704" d="M186 692q0 95 76 169.5t172 74.5q76 0 125 -48.5t49 -121.5q0 -96 -77 -170t-173 -74q-76 0 -124 48.5t-48 121.5z" />
<glyph unicode="&#x2026;" horiz-adv-x="1552" d="M57 86q0 53 45 97t101 44q42 0 69 -26t27 -66q0 -53 -44.5 -97t-100.5 -44q-43 0 -70 26t-27 66zM575 86q0 53 45 97t101 44q42 0 69 -26t27 -66q0 -53 -44.5 -97t-100.5 -44q-43 0 -70 26t-27 66zM1094 86q0 53 43.5 97t99.5 44q43 0 70.5 -26t27.5 -66q0 -53 -44.5 -97 t-100.5 -44q-42 0 -69 26t-27 66z" />
<glyph unicode="&#x202f;" horiz-adv-x="368" />
<glyph unicode="&#x2039;" horiz-adv-x="653" d="M147 686l392 444l92 -69l-344 -387l176 -373l-107 -61z" />
<glyph unicode="&#x203a;" horiz-adv-x="653" d="M96 307l344 387l-176 373l105 63l211 -448l-392 -442z" />
<glyph unicode="&#x205f;" horiz-adv-x="460" />
<glyph unicode="&#x2122;" horiz-adv-x="1615" d="M270 1331l15 78h499l-16 -78h-199l-129 -633h-102l131 633h-199zM688 698l240 711h141l49 -610l297 610h146l-54 -711h-100l55 621l-317 -621h-96l-62 621l-199 -621h-100z" />
<glyph unicode="&#x25fc;" horiz-adv-x="1105" d="M0 0v1106h1106v-1106h-1106z" />
<glyph unicode="&#xfb01;" horiz-adv-x="1073" d="M104 0l205 993h-125l23 111h127l31 156q18 92 59.5 162t97.5 109.5t117 59t127 19.5q31 0 45 -2l-25 -115q-46 1 -91 -17t-88 -69t-58 -129l-35 -174h193l-23 -111h-195l-204 -993h-181zM639 0l229 1104h181l-230 -1104h-180zM913 1395q0 45 38.5 81.5t88.5 36.5 q38 0 63 -23t25 -56q0 -46 -39 -82.5t-90 -36.5q-38 0 -62 23t-24 57z" />
<glyph unicode="&#xfb02;" horiz-adv-x="1093" d="M104 0l205 993h-125l23 111h127l31 156q18 92 59.5 162t97.5 109.5t117 59t127 19.5q31 0 45 -2l-25 -115q-46 1 -91 -17t-88 -69t-58 -129l-35 -174h193l-23 -111h-195l-204 -993h-181zM651 0l334 1608h180l-334 -1608h-180z" />
</font>
</defs>
</svg>
